<?xml version="1.0" encoding="utf-8"?>
<!-- Generator: Adobe Illustrator 15.1.0, SVG Export Plug-In . SVG Version: 6.00 Build 0)  -->
<!DOCTYPE svg PUBLIC "-//W3C//DTD SVG 1.1//EN" "http://www.w3.org/Graphics/SVG/1.1/DTD/svg11.dtd">
<svg version="1.1" id="Abre" xmlns="http://www.w3.org/2000/svg" xmlns:xlink="http://www.w3.org/1999/xlink" x="0px" y="0px"
	 width="800px" height="715px" viewBox="0 0 800 715" enable-background="new 0 0 800 715" xml:space="preserve">
<g>
	<path fill="#FFFFFF" d="M137.167,116.34h-15.408v48.672h-6.336V116.34h-15.48v-5.328h37.224V116.34z"/>
	<path fill="#FFFFFF" d="M148.578,161.483c-2.617-3.071-3.924-8.039-3.924-14.903c0-6.769,1.32-11.7,3.96-14.796
		c2.639-3.097,6.743-4.645,12.312-4.645c5.568,0,9.659,1.537,12.276,4.608c2.616,3.072,3.924,7.991,3.924,14.76
		c0,6.768-1.332,11.725-3.996,14.868c-2.664,3.145-6.804,4.716-12.42,4.716C155.238,166.092,151.194,164.556,148.578,161.483z
		 M168.45,157.56c1.608-2.279,2.412-6.156,2.412-11.628c0-3.552-0.324-6.336-0.972-8.352c-0.648-2.017-1.668-3.468-3.06-4.356
		c-1.393-0.888-3.288-1.332-5.688-1.332c-2.496,0-4.489,0.48-5.976,1.44c-1.489,0.96-2.568,2.509-3.24,4.644
		c-0.673,2.137-1.008,5.029-1.008,8.676c0,3.601,0.335,6.444,1.008,8.532c0.672,2.088,1.692,3.576,3.06,4.464
		c1.368,0.889,3.204,1.332,5.508,1.332C164.19,160.979,166.841,159.84,168.45,157.56z"/>
	<path fill="#FFFFFF" d="M234.653,127.5v37.512h-6.192v-3.816c-1.969,1.44-3.864,2.497-5.688,3.168
		c-1.825,0.672-3.792,1.009-5.904,1.009c-3.841,0-6.613-1.032-8.316-3.097c-1.705-2.062-2.556-5.591-2.556-10.584V127.5h6.408
		v23.256c0,2.448,0.216,4.32,0.648,5.616c0.432,1.296,1.104,2.185,2.016,2.664c0.912,0.479,2.208,0.72,3.888,0.72
		c2.448,0,5.616-0.937,9.504-2.809V127.5H234.653z"/>
	<path fill="#FFFFFF" d="M275.729,130.235c1.704,2.064,2.556,5.593,2.556,10.584v24.192h-6.192v-23.04
		c0-2.448-0.216-4.308-0.648-5.58c-0.432-1.271-1.128-2.147-2.088-2.628c-0.96-0.479-2.28-0.72-3.96-0.72
		c-1.632,0-3.301,0.216-5.004,0.647c-1.704,0.433-3.661,1.201-5.868,2.305v29.016h-6.192V127.5h6.192v4.319
		c2.207-1.631,4.295-2.819,6.264-3.563c1.968-0.744,4.2-1.116,6.696-1.116C271.276,127.14,274.024,128.173,275.729,130.235z"/>
	<path fill="#FFFFFF" d="M319.54,163.932c-2.401,0.673-4.944,1.199-7.632,1.584c-2.689,0.384-5.065,0.576-7.128,0.576
		c-10.368,0-15.552-6.312-15.552-18.937c0-6.911,1.476-12.035,4.428-15.371c2.952-3.336,7.02-5.005,12.204-5.005
		c2.16,0,4.583,0.385,7.272,1.152v-20.52h6.336L319.54,163.932z M297.903,157.956c1.848,2.064,4.476,3.096,7.884,3.096
		c1.872,0,4.32-0.312,7.344-0.937V132.54c-2.113-0.528-4.104-0.792-5.976-0.792c-3.792,0-6.745,1.177-8.856,3.527
		c-2.112,2.353-3.168,6.312-3.168,11.88C295.131,152.292,296.055,155.893,297.903,157.956z"/>
	<path fill="#FFFFFF" d="M352.335,160.332c1.464-0.336,3.228-0.84,5.292-1.513l0.936,4.752c-2.352,0.913-4.392,1.584-6.12,2.017
		c-1.728,0.432-3.553,0.647-5.472,0.647c-5.04,0-9.061-1.584-12.06-4.752c-3-3.168-4.5-8.159-4.5-14.976
		c0-6.72,1.451-11.628,4.356-14.724c2.904-3.097,6.779-4.645,11.628-4.645c4.511,0,7.74,1.224,9.684,3.672s2.916,5.832,2.916,10.152
		c0,2.688-0.169,4.896-0.504,6.624l-21.888-0.072c0.24,5.04,1.32,8.521,3.24,10.44c1.919,1.92,4.511,2.88,7.776,2.88
		C349.299,160.836,350.871,160.668,352.335,160.332z M339.555,134.304c-1.632,1.704-2.592,4.597-2.88,8.676l16.632-0.216
		c0.096-1.248,0.144-2.279,0.144-3.096c0-2.544-0.565-4.5-1.692-5.868c-1.128-1.368-3.013-2.052-5.652-2.052
		C343.371,131.748,341.187,132.601,339.555,134.304z"/>
	<path fill="#FFFFFF" d="M389.522,133.188c-2.448,0-4.849,0.373-7.2,1.116c-2.352,0.745-4.392,1.74-6.12,2.988v27.72h-6.192V127.5
		h6.192v4.968c1.775-1.487,3.888-2.736,6.336-3.744c2.448-1.008,4.919-1.535,7.416-1.584L389.522,133.188z"/>
	<path fill="#FFFFFF" d="M397.37,154.859c1.343,1.584,3.191,2.893,5.544,3.925c2.351,1.032,4.632,1.548,6.84,1.548
		c2.256,0,4.115-0.588,5.58-1.765c1.464-1.175,2.196-2.628,2.196-4.355c0-1.296-0.421-2.352-1.26-3.168
		c-0.841-0.815-1.873-1.451-3.097-1.908c-1.224-0.456-2.892-0.972-5.004-1.548c-2.592-0.72-4.656-1.404-6.192-2.052
		c-1.536-0.648-2.856-1.596-3.959-2.845c-1.105-1.247-1.656-2.88-1.656-4.896c0-2.207,0.624-4.115,1.872-5.725
		c1.248-1.607,2.916-2.831,5.004-3.672c2.088-0.839,4.331-1.26,6.731-1.26c2.305,0,4.465,0.36,6.48,1.08s3.791,1.681,5.328,2.88
		l-1.872,4.248c-1.44-0.911-2.988-1.631-4.644-2.16c-1.656-0.527-3.277-0.792-4.861-0.792c-2.256,0-4.188,0.48-5.795,1.44
		c-1.609,0.961-2.412,2.231-2.412,3.815c0,1.394,0.648,2.425,1.943,3.097c1.297,0.673,3.359,1.344,6.192,2.016
		c2.735,0.673,4.968,1.345,6.696,2.016c1.728,0.673,3.215,1.753,4.464,3.24c1.247,1.488,1.872,3.48,1.872,5.977
		c0,3.553-1.236,6.384-3.709,8.496s-5.651,3.168-9.539,3.168c-2.929,0-5.82-0.602-8.676-1.801c-2.857-1.199-5.077-2.88-6.661-5.04
		L397.37,154.859z"/>
	<path fill="#FFFFFF" d="M453.025,164.796c-2.208,0.479-4.224,0.72-6.048,0.72c-4.801,0-8.16-1.26-10.08-3.78
		c-1.92-2.52-2.88-6.467-2.88-11.844v-17.855h-4.536V127.5h4.536v-9.648h5.976v9.648h10.512v4.536h-10.512v17.928
		c0,2.784,0.275,4.957,0.828,6.516c0.552,1.561,1.44,2.664,2.664,3.312c1.225,0.647,2.892,0.972,5.004,0.972
		c0.721,0,1.944-0.096,3.672-0.288L453.025,164.796z"/>
	<path fill="#FFFFFF" d="M481.034,128.436c1.773,0.864,3.096,2.316,3.959,4.356s1.297,4.859,1.297,8.46v23.76h-5.473v-4.824
		c-3.266,3.601-7.176,5.4-11.736,5.4c-3.793,0-6.612-1.008-8.46-3.024c-1.849-2.016-2.772-4.56-2.772-7.632
		c0-3.552,1.104-6.348,3.312-8.388c2.207-2.04,5.375-3.061,9.504-3.061h9.576c0-3.119-0.252-5.459-0.756-7.02
		c-0.504-1.56-1.297-2.628-2.377-3.204c-1.078-0.576-2.604-0.864-4.57-0.864c-2.689,0-6.457,0.576-11.305,1.729l-1.08-4.248
		c4.654-1.824,9.24-2.736,13.752-2.736C476.882,127.14,479.257,127.571,481.034,128.436z M480.241,156.516v-8.496h-9.504
		c-2.641,0-4.5,0.637-5.58,1.908c-1.08,1.272-1.62,2.748-1.62,4.428c0,1.872,0.587,3.349,1.765,4.429
		c1.176,1.079,2.771,1.619,4.787,1.619C473.161,160.403,476.544,159.107,480.241,156.516z"/>
	<path fill="#FFFFFF" d="M527.364,130.235c1.703,2.064,2.557,5.593,2.557,10.584v24.192h-6.193v-23.04
		c0-2.448-0.215-4.308-0.646-5.58c-0.434-1.271-1.129-2.147-2.088-2.628c-0.961-0.479-2.281-0.72-3.961-0.72
		c-1.633,0-3.301,0.216-5.004,0.647c-1.705,0.433-3.66,1.201-5.867,2.305v29.016h-6.193V127.5h6.193v4.319
		c2.207-1.631,4.295-2.819,6.264-3.563c1.967-0.744,4.199-1.116,6.695-1.116C522.911,127.14,525.659,128.173,527.364,130.235z"/>
	<path fill="#FFFFFF" d="M571.175,163.932c-2.4,0.673-4.943,1.199-7.631,1.584c-2.689,0.384-5.064,0.576-7.129,0.576
		c-10.367,0-15.553-6.312-15.553-18.937c0-6.911,1.477-12.035,4.43-15.371c2.951-3.336,7.02-5.005,12.203-5.005
		c2.16,0,4.584,0.385,7.271,1.152v-20.52h6.336L571.175,163.932z M549.54,157.956c1.846,2.064,4.475,3.096,7.883,3.096
		c1.873,0,4.32-0.312,7.344-0.937V132.54c-2.111-0.528-4.104-0.792-5.975-0.792c-3.793,0-6.744,1.177-8.857,3.527
		c-2.111,2.353-3.168,6.312-3.168,11.88C546.767,152.292,547.69,155.893,549.54,157.956z"/>
	<path fill="#FFFFFF" d="M622.224,164.796c-2.209,0.479-4.225,0.72-6.049,0.72c-4.801,0-8.16-1.26-10.08-3.78
		c-1.92-2.52-2.879-6.467-2.879-11.844v-17.855h-4.537V127.5h4.537v-9.648h5.975v9.648h10.512v4.536H609.19v17.928
		c0,2.784,0.275,4.957,0.828,6.516c0.551,1.561,1.439,2.664,2.664,3.312c1.225,0.647,2.891,0.972,5.004,0.972
		c0.721,0,1.945-0.096,3.672-0.288L622.224,164.796z"/>
	<path fill="#FFFFFF" d="M657.683,130.235c1.703,2.064,2.557,5.593,2.557,10.584v24.192h-6.193v-23.04
		c0-2.448-0.215-4.308-0.646-5.58c-0.434-1.271-1.129-2.147-2.088-2.628c-0.961-0.479-2.281-0.72-3.961-0.72
		c-1.633,0-3.289,0.216-4.969,0.647c-1.68,0.433-3.6,1.177-5.76,2.232v29.088h-6.191v-57.6h6.191v24.336
		c2.111-1.584,4.152-2.748,6.121-3.492c1.967-0.744,4.199-1.116,6.695-1.116C653.229,127.14,655.978,128.173,657.683,130.235z"/>
	<path fill="#FFFFFF" d="M693.106,160.332c1.463-0.336,3.229-0.84,5.293-1.513l0.936,4.752c-2.354,0.913-4.393,1.584-6.121,2.017
		c-1.727,0.432-3.553,0.647-5.471,0.647c-5.041,0-9.061-1.584-12.061-4.752s-4.5-8.159-4.5-14.976c0-6.72,1.451-11.628,4.355-14.724
		c2.904-3.097,6.779-4.645,11.629-4.645c4.512,0,7.74,1.224,9.684,3.672s2.916,5.832,2.916,10.152c0,2.688-0.168,4.896-0.504,6.624
		l-21.889-0.072c0.24,5.04,1.32,8.521,3.24,10.44s4.512,2.88,7.775,2.88C690.069,160.836,691.642,160.668,693.106,160.332z
		 M680.327,134.304c-1.633,1.704-2.592,4.597-2.881,8.676l16.633-0.216c0.096-1.248,0.143-2.279,0.143-3.096
		c0-2.544-0.564-4.5-1.691-5.868c-1.129-1.368-3.012-2.052-5.652-2.052C684.144,131.748,681.958,132.601,680.327,134.304z"/>
	<path fill="#FFFFFF" d="M90.081,257.932c-2.401,0.673-4.944,1.199-7.632,1.584c-2.689,0.384-5.065,0.576-7.128,0.576
		c-10.368,0-15.552-6.312-15.552-18.937c0-6.911,1.476-12.035,4.428-15.371c2.952-3.336,7.02-5.005,12.204-5.005
		c2.16,0,4.583,0.385,7.272,1.152v-20.52h6.336L90.081,257.932z M68.444,251.956c1.848,2.064,4.476,3.096,7.884,3.096
		c1.872,0,4.32-0.312,7.344-0.937V226.54c-2.113-0.528-4.104-0.792-5.976-0.792c-3.792,0-6.745,1.177-8.856,3.527
		c-2.112,2.353-3.168,6.312-3.168,11.88C65.672,246.292,66.596,249.893,68.444,251.956z"/>
	<path fill="#FFFFFF" d="M103.76,212.176c-0.817-0.792-1.224-1.764-1.224-2.916c0-1.104,0.396-2.04,1.188-2.808
		s1.788-1.152,2.988-1.152c1.152,0,2.124,0.385,2.916,1.152s1.188,1.728,1.188,2.88c0,1.151-0.396,2.112-1.188,2.88
		c-0.792,0.769-1.764,1.151-2.916,1.151C105.56,213.363,104.576,212.968,103.76,212.176z M103.544,221.5h6.192v37.512h-6.192V221.5z
		"/>
	<path fill="#FFFFFF" d="M151.711,221.5l-13.248,37.512h-6.768L118.447,221.5h6.84l9.864,32.256l9.864-32.256H151.711z"/>
	<path fill="#FFFFFF" d="M179.754,254.332c1.464-0.336,3.228-0.84,5.292-1.513l0.936,4.752c-2.352,0.913-4.392,1.584-6.12,2.017
		c-1.728,0.432-3.553,0.647-5.472,0.647c-5.04,0-9.061-1.584-12.06-4.752c-3-3.168-4.5-8.159-4.5-14.976
		c0-6.72,1.451-11.628,4.356-14.724c2.904-3.097,6.779-4.645,11.628-4.645c4.511,0,7.74,1.224,9.684,3.672s2.916,5.832,2.916,10.152
		c0,2.688-0.169,4.896-0.504,6.624l-21.888-0.072c0.24,5.04,1.32,8.521,3.24,10.44c1.919,1.92,4.511,2.88,7.776,2.88
		C176.718,254.836,178.29,254.668,179.754,254.332z M166.975,228.304c-1.632,1.704-2.592,4.597-2.88,8.676l16.632-0.216
		c0.096-1.248,0.144-2.279,0.144-3.096c0-2.544-0.565-4.5-1.692-5.868c-1.128-1.368-3.013-2.052-5.652-2.052
		C170.791,225.748,168.606,226.601,166.975,228.304z"/>
	<path fill="#FFFFFF" d="M216.942,227.188c-2.448,0-4.849,0.373-7.2,1.116c-2.352,0.745-4.392,1.74-6.12,2.988v27.72h-6.192V221.5
		h6.192v4.968c1.775-1.487,3.888-2.736,6.336-3.744c2.448-1.008,4.919-1.535,7.416-1.584L216.942,227.188z"/>
	<path fill="#FFFFFF" d="M224.79,248.859c1.343,1.584,3.191,2.893,5.544,3.925c2.351,1.032,4.632,1.548,6.84,1.548
		c2.256,0,4.115-0.588,5.58-1.765c1.464-1.175,2.196-2.628,2.196-4.355c0-1.296-0.421-2.352-1.26-3.168
		c-0.84-0.815-1.872-1.451-3.096-1.908c-1.224-0.456-2.892-0.972-5.004-1.548c-2.592-0.72-4.656-1.404-6.192-2.052
		c-1.537-0.648-2.856-1.596-3.96-2.845c-1.105-1.247-1.656-2.88-1.656-4.896c0-2.207,0.624-4.115,1.872-5.725
		c1.248-1.607,2.916-2.831,5.004-3.672c2.088-0.839,4.331-1.26,6.732-1.26c2.304,0,4.464,0.36,6.48,1.08
		c2.016,0.72,3.791,1.681,5.328,2.88l-1.872,4.248c-1.44-0.911-2.988-1.631-4.644-2.16c-1.656-0.527-3.276-0.792-4.86-0.792
		c-2.256,0-4.188,0.48-5.796,1.44c-1.609,0.961-2.412,2.231-2.412,3.815c0,1.394,0.648,2.425,1.944,3.097
		c1.296,0.673,3.359,1.344,6.192,2.016c2.736,0.673,4.968,1.345,6.696,2.016c1.728,0.673,3.215,1.753,4.464,3.24
		c1.248,1.488,1.872,3.48,1.872,5.977c0,3.553-1.236,6.384-3.708,8.496c-2.473,2.112-5.652,3.168-9.54,3.168
		c-2.929,0-5.821-0.602-8.676-1.801c-2.856-1.199-5.076-2.88-6.66-5.04L224.79,248.859z"/>
	<path fill="#FFFFFF" d="M261.078,212.176c-0.817-0.792-1.224-1.764-1.224-2.916c0-1.104,0.396-2.04,1.188-2.808
		s1.788-1.152,2.988-1.152c1.152,0,2.124,0.385,2.916,1.152s1.188,1.728,1.188,2.88c0,1.151-0.396,2.112-1.188,2.88
		c-0.792,0.769-1.764,1.151-2.916,1.151C262.877,213.363,261.893,212.968,261.078,212.176z M260.861,221.5h6.192v37.512h-6.192
		V221.5z"/>
	<path fill="#FFFFFF" d="M300.028,258.796c-2.208,0.479-4.224,0.72-6.048,0.72c-4.8,0-8.161-1.26-10.08-3.78
		c-1.92-2.52-2.88-6.467-2.88-11.844v-17.855h-4.536V221.5h4.536v-9.648h5.976v9.648h10.512v4.536h-10.512v17.928
		c0,2.784,0.275,4.957,0.828,6.516c0.551,1.561,1.44,2.664,2.664,3.312c1.224,0.647,2.891,0.972,5.004,0.972
		c0.72,0,1.944-0.096,3.672-0.288L300.028,258.796z"/>
	<path fill="#FFFFFF" d="M334.876,221.5l-17.496,51.912h-6.12l4.824-14.4h-0.576L302.836,221.5h6.768l9.216,30.815l9.72-30.815
		H334.876z"/>
	<path fill="#FFFFFF" d="M361.155,212.176c-0.817-0.792-1.224-1.764-1.224-2.916c0-1.104,0.396-2.04,1.188-2.808
		s1.788-1.152,2.988-1.152c1.152,0,2.124,0.385,2.916,1.152s1.188,1.728,1.188,2.88c0,1.151-0.396,2.112-1.188,2.88
		c-0.792,0.769-1.764,1.151-2.916,1.151C362.955,213.363,361.971,212.968,361.155,212.176z M360.939,221.5h6.192v37.512h-6.192
		V221.5z"/>
	<path fill="#FFFFFF" d="M408.062,224.235c1.704,2.064,2.557,5.593,2.557,10.584v24.192h-6.191v-23.04
		c0-2.448-0.217-4.308-0.648-5.58c-0.432-1.271-1.129-2.147-2.088-2.628c-0.961-0.479-2.281-0.72-3.96-0.72
		c-1.632,0-3.301,0.216-5.004,0.647c-1.704,0.433-3.661,1.201-5.868,2.305v29.016h-6.192V221.5h6.192v4.319
		c2.207-1.631,4.295-2.819,6.264-3.563c1.968-0.744,4.2-1.116,6.696-1.116C403.609,221.14,406.358,222.173,408.062,224.235z"/>
	<path fill="#FFFFFF" d="M461.737,258.796c-2.208,0.479-4.225,0.72-6.048,0.72c-4.8,0-8.161-1.26-10.08-3.78
		c-1.921-2.52-2.88-6.467-2.88-11.844v-17.855h-4.536V221.5h4.536v-9.648h5.977v9.648h10.512v4.536h-10.512v17.928
		c0,2.784,0.275,4.957,0.828,6.516c0.551,1.561,1.439,2.664,2.664,3.312c1.223,0.647,2.891,0.972,5.004,0.972
		c0.719,0,1.943-0.096,3.672-0.288L461.737,258.796z"/>
	<path fill="#FFFFFF" d="M497.196,224.235c1.705,2.064,2.557,5.593,2.557,10.584v24.192h-6.191v-23.04
		c0-2.448-0.217-4.308-0.648-5.58c-0.432-1.271-1.129-2.147-2.088-2.628c-0.961-0.479-2.281-0.72-3.959-0.72
		c-1.633,0-3.289,0.216-4.969,0.647c-1.682,0.433-3.6,1.177-5.76,2.232v29.088h-6.193v-57.6h6.193v24.336
		c2.111-1.584,4.15-2.748,6.119-3.492s4.199-1.116,6.697-1.116C492.745,221.14,495.493,222.173,497.196,224.235z"/>
	<path fill="#FFFFFF" d="M532.622,254.332c1.463-0.336,3.227-0.84,5.291-1.513l0.936,4.752c-2.352,0.913-4.391,1.584-6.119,2.017
		c-1.729,0.432-3.553,0.647-5.473,0.647c-5.039,0-9.061-1.584-12.061-4.752s-4.5-8.159-4.5-14.976c0-6.72,1.453-11.628,4.357-14.724
		c2.902-3.097,6.779-4.645,11.627-4.645c4.512,0,7.74,1.224,9.686,3.672c1.943,2.448,2.916,5.832,2.916,10.152
		c0,2.688-0.17,4.896-0.506,6.624l-21.887-0.072c0.238,5.04,1.318,8.521,3.24,10.44c1.918,1.92,4.51,2.88,7.775,2.88
		C529.585,254.836,531.157,254.668,532.622,254.332z M519.841,228.304c-1.633,1.704-2.592,4.597-2.879,8.676l16.631-0.216
		c0.096-1.248,0.145-2.279,0.145-3.096c0-2.544-0.564-4.5-1.691-5.868c-1.129-1.368-3.014-2.052-5.652-2.052
		C523.657,225.748,521.472,226.601,519.841,228.304z"/>
	<path fill="#FFFFFF" d="M613.009,221.5l-9.359,37.512h-6.48l-8.928-26.928l-9,26.928h-6.408l-9.361-37.512h6.842l6.191,30.527
		l9-27.647h5.4l9.07,27.936l6.193-30.815H613.009z"/>
	<path fill="#FFFFFF" d="M623.052,255.483c-2.617-3.071-3.924-8.039-3.924-14.903c0-6.769,1.32-11.7,3.961-14.796
		c2.639-3.097,6.742-4.645,12.311-4.645s9.66,1.537,12.277,4.608c2.615,3.072,3.924,7.991,3.924,14.76
		c0,6.768-1.332,11.725-3.996,14.868c-2.664,3.145-6.805,4.716-12.42,4.716C629.712,260.092,625.667,258.556,623.052,255.483z
		 M642.925,251.56c1.607-2.279,2.41-6.156,2.41-11.628c0-3.552-0.322-6.336-0.971-8.352c-0.648-2.017-1.668-3.468-3.061-4.356
		c-1.393-0.888-3.289-1.332-5.688-1.332c-2.496,0-4.488,0.48-5.977,1.44s-2.568,2.509-3.24,4.644
		c-0.672,2.137-1.008,5.029-1.008,8.676c0,3.601,0.336,6.444,1.008,8.532s1.693,3.576,3.061,4.464
		c1.367,0.889,3.203,1.332,5.508,1.332C638.663,254.979,641.315,253.84,642.925,251.56z"/>
	<path fill="#FFFFFF" d="M682.054,227.188c-2.447,0-4.848,0.373-7.199,1.116c-2.352,0.745-4.393,1.74-6.119,2.988v27.72h-6.193
		V221.5h6.193v4.968c1.775-1.487,3.887-2.736,6.336-3.744c2.447-1.008,4.92-1.535,7.416-1.584L682.054,227.188z"/>
	<path fill="#FFFFFF" d="M690.694,201.412h6.191v57.6h-6.191V201.412z"/>
	<path fill="#FFFFFF" d="M738.069,257.932c-2.4,0.673-4.945,1.199-7.633,1.584c-2.688,0.384-5.064,0.576-7.127,0.576
		c-10.369,0-15.553-6.312-15.553-18.937c0-6.911,1.477-12.035,4.428-15.371c2.953-3.336,7.02-5.005,12.205-5.005
		c2.16,0,4.582,0.385,7.271,1.152v-20.52h6.336L738.069,257.932z M716.433,251.956c1.848,2.064,4.475,3.096,7.885,3.096
		c1.871,0,4.32-0.312,7.344-0.937V226.54c-2.113-0.528-4.104-0.792-5.977-0.792c-3.793,0-6.744,1.177-8.855,3.527
		c-2.113,2.353-3.168,6.312-3.168,11.88C713.661,246.292,714.585,249.893,716.433,251.956z"/>
	<path fill="#FFFFFF" d="M132.883,306.176c-0.817-0.792-1.224-1.764-1.224-2.916c0-1.104,0.396-2.04,1.188-2.808
		s1.788-1.152,2.988-1.152c1.152,0,2.124,0.385,2.916,1.152s1.188,1.728,1.188,2.88c0,1.151-0.396,2.112-1.188,2.88
		c-0.792,0.769-1.764,1.151-2.916,1.151C134.683,307.363,133.699,306.968,132.883,306.176z M132.667,315.5h6.192v37.512h-6.192
		V315.5z"/>
	<path fill="#FFFFFF" d="M171.834,352.796c-2.208,0.479-4.224,0.72-6.048,0.72c-4.8,0-8.161-1.26-10.08-3.78
		c-1.92-2.52-2.88-6.467-2.88-11.844v-17.855h-4.536V315.5h4.536v-9.648h5.976v9.648h10.512v4.536h-10.512v17.928
		c0,2.784,0.275,4.957,0.828,6.516c0.551,1.561,1.44,2.664,2.664,3.312c1.224,0.647,2.891,0.972,5.004,0.972
		c0.72,0,1.944-0.096,3.672-0.288L171.834,352.796z"/>
	<path fill="#FFFFFF" d="M198.186,306.176c-0.817-0.792-1.224-1.764-1.224-2.916c0-1.104,0.396-2.04,1.188-2.808
		s1.788-1.152,2.988-1.152c1.152,0,2.124,0.385,2.916,1.152s1.188,1.728,1.188,2.88c0,1.151-0.396,2.112-1.188,2.88
		c-0.792,0.769-1.764,1.151-2.916,1.151C199.986,307.363,199.001,306.968,198.186,306.176z M197.97,315.5h6.192v37.512h-6.192V315.5
		z"/>
	<path fill="#FFFFFF" d="M216.833,342.859c1.343,1.584,3.191,2.893,5.544,3.925c2.351,1.032,4.632,1.548,6.84,1.548
		c2.256,0,4.115-0.588,5.58-1.765c1.464-1.175,2.196-2.628,2.196-4.355c0-1.296-0.421-2.352-1.26-3.168
		c-0.84-0.815-1.872-1.451-3.096-1.908c-1.224-0.456-2.892-0.972-5.004-1.548c-2.592-0.72-4.656-1.404-6.192-2.052
		c-1.537-0.648-2.856-1.596-3.96-2.845c-1.105-1.247-1.656-2.88-1.656-4.896c0-2.207,0.624-4.115,1.872-5.725
		c1.248-1.607,2.916-2.831,5.004-3.672c2.088-0.839,4.331-1.26,6.732-1.26c2.304,0,4.464,0.36,6.48,1.08
		c2.016,0.72,3.791,1.681,5.328,2.88l-1.872,4.248c-1.44-0.911-2.988-1.631-4.644-2.16c-1.656-0.527-3.276-0.792-4.86-0.792
		c-2.256,0-4.188,0.48-5.796,1.44c-1.609,0.961-2.412,2.231-2.412,3.815c0,1.394,0.648,2.425,1.944,3.097
		c1.296,0.673,3.359,1.344,6.192,2.016c2.736,0.673,4.968,1.345,6.696,2.016c1.728,0.673,3.215,1.753,4.464,3.24
		c1.248,1.488,1.872,3.48,1.872,5.977c0,3.553-1.236,6.384-3.708,8.496c-2.473,2.112-5.652,3.168-9.54,3.168
		c-2.929,0-5.821-0.602-8.676-1.801c-2.856-1.199-5.076-2.88-6.66-5.04L216.833,342.859z"/>
	<path fill="#FFFFFF" d="M298.444,318.235c1.704,2.064,2.556,5.593,2.556,10.584v24.192h-6.192v-23.04
		c0-2.448-0.216-4.308-0.648-5.58c-0.432-1.271-1.128-2.147-2.088-2.628c-0.96-0.479-2.28-0.72-3.96-0.72
		c-1.632,0-3.301,0.216-5.004,0.647c-1.704,0.433-3.661,1.201-5.868,2.305v29.016h-6.192V315.5h6.192v4.319
		c2.207-1.631,4.295-2.819,6.264-3.563c1.968-0.744,4.2-1.116,6.696-1.116C293.992,315.14,296.74,316.173,298.444,318.235z"/>
	<path fill="#FFFFFF" d="M333.867,348.332c1.464-0.336,3.228-0.84,5.292-1.513l0.936,4.752c-2.352,0.913-4.392,1.584-6.12,2.017
		c-1.728,0.432-3.553,0.647-5.472,0.647c-5.04,0-9.061-1.584-12.06-4.752c-3-3.168-4.5-8.159-4.5-14.976
		c0-6.72,1.451-11.628,4.356-14.724c2.904-3.097,6.779-4.645,11.628-4.645c4.511,0,7.74,1.224,9.684,3.672s2.916,5.832,2.916,10.152
		c0,2.688-0.169,4.896-0.504,6.624l-21.888-0.072c0.24,5.04,1.32,8.521,3.24,10.44c1.919,1.92,4.511,2.88,7.776,2.88
		C330.831,348.836,332.403,348.668,333.867,348.332z M321.087,322.304c-1.632,1.704-2.592,4.597-2.88,8.676l16.632-0.216
		c0.096-1.248,0.144-2.279,0.144-3.096c0-2.544-0.565-4.5-1.692-5.868c-1.128-1.368-3.013-2.052-5.652-2.052
		C324.903,319.748,322.719,320.601,321.087,322.304z"/>
	<path fill="#FFFFFF" d="M352.982,319.567c2.784-2.952,6.552-4.428,11.304-4.428c1.824,0,3.696,0.205,5.616,0.612
		c1.919,0.408,3.672,1.021,5.256,1.836l-1.224,4.392c-2.833-1.055-5.641-1.584-8.424-1.584c-3.6,0-6.253,0.984-7.956,2.952
		c-1.705,1.969-2.556,5.425-2.556,10.368c0,5.425,0.936,9.192,2.808,11.304c1.872,2.113,4.439,3.168,7.704,3.168
		c2.016,0,5.063-0.432,9.144-1.296l0.864,4.32c-3.841,1.584-7.464,2.376-10.872,2.376c-4.752,0-8.58-1.596-11.484-4.788
		c-2.905-3.191-4.356-8.172-4.356-14.94C348.807,327.284,350.198,322.52,352.982,319.567z"/>
	<path fill="#FFFFFF" d="M404.93,348.332c1.464-0.336,3.228-0.84,5.292-1.513l0.936,4.752c-2.352,0.913-4.392,1.584-6.119,2.017
		c-1.729,0.432-3.553,0.647-5.472,0.647c-5.04,0-9.061-1.584-12.06-4.752c-3-3.168-4.5-8.159-4.5-14.976
		c0-6.72,1.451-11.628,4.356-14.724c2.904-3.097,6.779-4.645,11.628-4.645c4.511,0,7.74,1.224,9.684,3.672s2.916,5.832,2.916,10.152
		c0,2.688-0.169,4.896-0.504,6.624l-21.888-0.072c0.24,5.04,1.32,8.521,3.24,10.44c1.919,1.92,4.511,2.88,7.776,2.88
		C401.894,348.836,403.466,348.668,404.93,348.332z M392.15,322.304c-1.632,1.704-2.592,4.597-2.88,8.676l16.631-0.216
		c0.096-1.248,0.145-2.279,0.145-3.096c0-2.544-0.564-4.5-1.691-5.868c-1.129-1.368-3.014-2.052-5.653-2.052
		C395.966,319.748,393.781,320.601,392.15,322.304z"/>
	<path fill="#FFFFFF" d="M421.741,342.859c1.344,1.584,3.191,2.893,5.544,3.925c2.351,1.032,4.632,1.548,6.84,1.548
		c2.256,0,4.115-0.588,5.58-1.765c1.464-1.175,2.196-2.628,2.196-4.355c0-1.296-0.421-2.352-1.26-3.168
		c-0.841-0.815-1.873-1.451-3.097-1.908c-1.224-0.456-2.892-0.972-5.004-1.548c-2.592-0.72-4.656-1.404-6.192-2.052
		c-1.536-0.648-2.855-1.596-3.959-2.845c-1.105-1.247-1.656-2.88-1.656-4.896c0-2.207,0.623-4.115,1.871-5.725
		c1.248-1.607,2.916-2.831,5.005-3.672c2.088-0.839,4.331-1.26,6.731-1.26c2.305,0,4.465,0.36,6.48,1.08s3.791,1.681,5.328,2.88
		l-1.872,4.248c-1.44-0.911-2.988-1.631-4.644-2.16c-1.656-0.527-3.277-0.792-4.861-0.792c-2.256,0-4.188,0.48-5.795,1.44
		c-1.609,0.961-2.412,2.231-2.412,3.815c0,1.394,0.648,2.425,1.943,3.097c1.297,0.673,3.359,1.344,6.192,2.016
		c2.735,0.673,4.968,1.345,6.696,2.016c1.728,0.673,3.215,1.753,4.464,3.24c1.247,1.488,1.872,3.48,1.872,5.977
		c0,3.553-1.236,6.384-3.709,8.496s-5.651,3.168-9.539,3.168c-2.929,0-5.82-0.602-8.676-1.801c-2.857-1.199-5.076-2.88-6.66-5.04
		L421.741,342.859z"/>
	<path fill="#FFFFFF" d="M457.093,342.859c1.344,1.584,3.191,2.893,5.544,3.925c2.351,1.032,4.632,1.548,6.841,1.548
		c2.254,0,4.115-0.588,5.58-1.765c1.463-1.175,2.195-2.628,2.195-4.355c0-1.296-0.422-2.352-1.26-3.168
		c-0.842-0.815-1.873-1.451-3.096-1.908c-1.225-0.456-2.893-0.972-5.004-1.548c-2.594-0.72-4.657-1.404-6.193-2.052
		c-1.536-0.648-2.855-1.596-3.959-2.845c-1.105-1.247-1.656-2.88-1.656-4.896c0-2.207,0.623-4.115,1.871-5.725
		c1.248-1.607,2.916-2.831,5.005-3.672c2.087-0.839,4.331-1.26,6.731-1.26c2.305,0,4.465,0.36,6.48,1.08s3.791,1.681,5.328,2.88
		l-1.873,4.248c-1.439-0.911-2.986-1.631-4.643-2.16c-1.656-0.527-3.277-0.792-4.861-0.792c-2.256,0-4.188,0.48-5.795,1.44
		c-1.609,0.961-2.412,2.231-2.412,3.815c0,1.394,0.648,2.425,1.943,3.097c1.297,0.673,3.359,1.344,6.191,2.016
		c2.736,0.673,4.969,1.345,6.697,2.016c1.729,0.673,3.215,1.753,4.463,3.24c1.248,1.488,1.873,3.48,1.873,5.977
		c0,3.553-1.236,6.384-3.709,8.496s-5.65,3.168-9.539,3.168c-2.928,0-5.82-0.602-8.676-1.801c-2.857-1.199-5.076-2.88-6.66-5.04
		L457.093,342.859z"/>
	<path fill="#FFFFFF" d="M513.036,316.436c1.775,0.864,3.096,2.316,3.961,4.356c0.863,2.04,1.295,4.859,1.295,8.46v23.76h-5.473
		v-4.824c-3.264,3.601-7.176,5.4-11.734,5.4c-3.793,0-6.613-1.008-8.461-3.024c-1.848-2.016-2.771-4.56-2.771-7.632
		c0-3.552,1.104-6.348,3.312-8.388c2.207-2.04,5.375-3.061,9.504-3.061h9.576c0-3.119-0.252-5.459-0.758-7.02
		c-0.504-1.56-1.295-2.628-2.375-3.204s-2.604-0.864-4.572-0.864c-2.689,0-6.457,0.576-11.305,1.729l-1.078-4.248
		c4.654-1.824,9.238-2.736,13.752-2.736C508.884,315.14,511.261,315.571,513.036,316.436z M512.245,344.516v-8.496h-9.504
		c-2.641,0-4.5,0.637-5.58,1.908c-1.08,1.272-1.621,2.748-1.621,4.428c0,1.872,0.588,3.349,1.764,4.429
		c1.176,1.079,2.773,1.619,4.789,1.619C505.163,348.403,508.548,347.107,512.245,344.516z"/>
	<path fill="#FFFFFF" d="M551.483,321.188c-2.447,0-4.85,0.373-7.199,1.116c-2.354,0.745-4.393,1.74-6.121,2.988v27.72h-6.191V315.5
		h6.191v4.968c1.775-1.487,3.889-2.736,6.336-3.744c2.449-1.008,4.92-1.535,7.416-1.584L551.483,321.188z"/>
	<path fill="#FFFFFF" d="M586.763,315.5l-17.496,51.912h-6.119l4.824-14.4h-0.576L554.724,315.5h6.768l9.215,30.815l9.721-30.815
		H586.763z"/>
	<path fill="#FFFFFF" d="M632.411,352.796c-2.209,0.479-4.225,0.72-6.049,0.72c-4.801,0-8.16-1.26-10.08-3.78
		c-1.92-2.52-2.879-6.467-2.879-11.844v-17.855h-4.537V315.5h4.537v-9.648h5.975v9.648h10.512v4.536h-10.512v17.928
		c0,2.784,0.275,4.957,0.828,6.516c0.551,1.561,1.439,2.664,2.664,3.312c1.225,0.647,2.891,0.972,5.004,0.972
		c0.721,0,1.945-0.096,3.672-0.288L632.411,352.796z"/>
	<path fill="#FFFFFF" d="M641.878,349.483c-2.617-3.071-3.924-8.039-3.924-14.903c0-6.769,1.32-11.7,3.961-14.796
		c2.639-3.097,6.742-4.645,12.311-4.645s9.66,1.537,12.277,4.608c2.615,3.072,3.924,7.991,3.924,14.76
		c0,6.768-1.332,11.725-3.996,14.868c-2.664,3.145-6.805,4.716-12.42,4.716C648.538,354.092,644.493,352.556,641.878,349.483z
		 M661.751,345.56c1.607-2.279,2.41-6.156,2.41-11.628c0-3.552-0.322-6.336-0.971-8.352c-0.648-2.017-1.668-3.468-3.061-4.356
		c-1.393-0.888-3.289-1.332-5.688-1.332c-2.496,0-4.488,0.48-5.977,1.44s-2.568,2.509-3.24,4.644
		c-0.672,2.137-1.008,5.029-1.008,8.676c0,3.601,0.336,6.444,1.008,8.532s1.693,3.576,3.061,4.464
		c1.367,0.889,3.203,1.332,5.508,1.332C657.489,348.979,660.142,347.84,661.751,345.56z"/>
	<path fill="#FFFFFF" d="M72.296,415.188c-2.448,0-4.849,0.373-7.2,1.116c-2.352,0.745-4.392,1.74-6.12,2.988v27.72h-6.192V409.5
		h6.192v4.968c1.775-1.487,3.888-2.736,6.336-3.744c2.448-1.008,4.919-1.535,7.416-1.584L72.296,415.188z"/>
	<path fill="#FFFFFF" d="M100.195,442.332c1.464-0.336,3.228-0.84,5.292-1.513l0.936,4.752c-2.352,0.913-4.392,1.584-6.12,2.017
		c-1.728,0.432-3.553,0.647-5.472,0.647c-5.04,0-9.061-1.584-12.06-4.752c-3-3.168-4.5-8.159-4.5-14.976
		c0-6.72,1.451-11.628,4.356-14.724c2.904-3.097,6.779-4.645,11.628-4.645c4.511,0,7.74,1.224,9.684,3.672s2.916,5.832,2.916,10.152
		c0,2.688-0.169,4.896-0.504,6.624l-21.888-0.072c0.24,5.04,1.32,8.521,3.24,10.44c1.919,1.92,4.511,2.88,7.776,2.88
		C97.159,442.836,98.731,442.668,100.195,442.332z M87.416,416.304c-1.632,1.704-2.592,4.597-2.88,8.676l16.632-0.216
		c0.096-1.248,0.144-2.279,0.144-3.096c0-2.544-0.565-4.5-1.692-5.868c-1.128-1.368-3.013-2.052-5.652-2.052
		C91.231,413.748,89.047,414.601,87.416,416.304z"/>
	<path fill="#FFFFFF" d="M119.311,413.567c2.784-2.952,6.552-4.428,11.304-4.428c1.824,0,3.696,0.205,5.616,0.612
		c1.919,0.408,3.672,1.021,5.256,1.836l-1.224,4.392c-2.833-1.055-5.641-1.584-8.424-1.584c-3.6,0-6.253,0.984-7.956,2.952
		c-1.705,1.969-2.556,5.425-2.556,10.368c0,5.425,0.936,9.192,2.808,11.304c1.872,2.113,4.439,3.168,7.704,3.168
		c2.016,0,5.063-0.432,9.144-1.296l0.864,4.32c-3.841,1.584-7.464,2.376-10.872,2.376c-4.752,0-8.58-1.596-11.484-4.788
		c-2.905-3.191-4.356-8.172-4.356-14.94C115.135,421.284,116.526,416.52,119.311,413.567z"/>
	<path fill="#FFFFFF" d="M153.258,443.483c-2.617-3.071-3.924-8.039-3.924-14.903c0-6.769,1.32-11.7,3.96-14.796
		c2.639-3.097,6.743-4.645,12.312-4.645c5.568,0,9.659,1.537,12.276,4.608c2.616,3.072,3.924,7.991,3.924,14.76
		c0,6.768-1.332,11.725-3.996,14.868c-2.664,3.145-6.804,4.716-12.42,4.716C159.918,448.092,155.874,446.556,153.258,443.483z
		 M173.13,439.56c1.608-2.279,2.412-6.156,2.412-11.628c0-3.552-0.324-6.336-0.972-8.352c-0.648-2.017-1.668-3.468-3.06-4.356
		c-1.393-0.888-3.288-1.332-5.688-1.332c-2.496,0-4.489,0.48-5.976,1.44c-1.489,0.96-2.568,2.509-3.24,4.644
		c-0.673,2.137-1.008,5.029-1.008,8.676c0,3.601,0.335,6.444,1.008,8.532c0.672,2.088,1.692,3.576,3.06,4.464
		c1.368,0.889,3.204,1.332,5.508,1.332C168.87,442.979,171.521,441.84,173.13,439.56z"/>
	<path fill="#FFFFFF" d="M220.325,411.731v34.2c0,5.76-1.236,9.864-3.708,12.312c-2.473,2.447-6.132,3.672-10.98,3.672
		c-5.04,0-9.72-1.753-14.04-5.256l1.872-3.673c1.584,1.297,3.395,2.292,5.436,2.988c2.04,0.695,3.899,1.044,5.58,1.044
		c3.168,0,5.604-0.696,7.308-2.088c1.704-1.393,2.556-4.057,2.556-7.992v-2.52c-3.121,2.4-6.528,3.6-10.224,3.6
		c-4.176,0-7.572-1.499-10.188-4.5c-2.617-2.999-3.924-7.764-3.924-14.292c0-6.912,1.523-11.999,4.572-15.264
		c3.048-3.264,7.26-4.896,12.636-4.896c2.063,0,4.271,0.205,6.624,0.612c2.351,0.408,4.536,0.972,6.552,1.692L220.325,411.731z
		 M210.137,442.368c1.656-0.456,3.06-1.068,4.212-1.837v-25.56c-2.016-0.432-4.104-0.648-6.264-0.648
		c-3.984,0-7.008,1.021-9.072,3.061c-2.064,2.041-3.096,5.749-3.096,11.124c0,5.328,0.912,9.084,2.736,11.268
		c1.823,2.186,4.104,3.276,6.84,3.276C206.933,443.052,208.481,442.824,210.137,442.368z"/>
	<path fill="#FFFFFF" d="M261.401,412.235c1.704,2.064,2.556,5.593,2.556,10.584v24.192h-6.192v-23.04
		c0-2.448-0.216-4.308-0.648-5.58c-0.432-1.271-1.128-2.147-2.088-2.628c-0.96-0.479-2.28-0.72-3.96-0.72
		c-1.632,0-3.301,0.216-5.004,0.647c-1.704,0.433-3.661,1.201-5.868,2.305v29.016h-6.192V409.5h6.192v4.319
		c2.207-1.631,4.295-2.819,6.264-3.563c1.968-0.744,4.2-1.116,6.696-1.116C256.948,409.14,259.697,410.173,261.401,412.235z"/>
	<path fill="#FFFFFF" d="M277.708,400.176c-0.817-0.792-1.224-1.764-1.224-2.916c0-1.104,0.396-2.04,1.188-2.808
		s1.788-1.152,2.988-1.152c1.152,0,2.124,0.385,2.916,1.152s1.188,1.728,1.188,2.88c0,1.151-0.396,2.112-1.188,2.88
		c-0.792,0.769-1.764,1.151-2.916,1.151C279.508,401.363,278.524,400.968,277.708,400.176z M277.492,409.5h6.192v37.512h-6.192
		V409.5z"/>
	<path fill="#FFFFFF" d="M321.339,441.684v5.328h-27.576v-5.76l19.512-26.424h-18.792V409.5h25.2v5.399L300.1,441.684H321.339z"/>
	<path fill="#FFFFFF" d="M350.679,442.332c1.464-0.336,3.228-0.84,5.292-1.513l0.936,4.752c-2.352,0.913-4.392,1.584-6.12,2.017
		c-1.728,0.432-3.553,0.647-5.472,0.647c-5.04,0-9.061-1.584-12.06-4.752c-3-3.168-4.5-8.159-4.5-14.976
		c0-6.72,1.451-11.628,4.356-14.724c2.904-3.097,6.779-4.645,11.628-4.645c4.511,0,7.74,1.224,9.684,3.672s2.916,5.832,2.916,10.152
		c0,2.688-0.169,4.896-0.504,6.624l-21.888-0.072c0.24,5.04,1.32,8.521,3.24,10.44c1.919,1.92,4.511,2.88,7.776,2.88
		C347.643,442.836,349.215,442.668,350.679,442.332z M337.899,416.304c-1.632,1.704-2.592,4.597-2.88,8.676l16.632-0.216
		c0.096-1.248,0.144-2.279,0.144-3.096c0-2.544-0.565-4.5-1.692-5.868c-1.128-1.368-3.013-2.052-5.652-2.052
		C341.715,413.748,339.531,414.601,337.899,416.304z"/>
	<path fill="#FFFFFF" d="M386.427,400.176c-0.817-0.792-1.224-1.764-1.224-2.916c0-1.104,0.396-2.04,1.188-2.808
		s1.788-1.152,2.988-1.152c1.152,0,2.124,0.385,2.916,1.152s1.188,1.728,1.188,2.88c0,1.151-0.396,2.112-1.188,2.88
		c-0.792,0.769-1.764,1.151-2.916,1.151C388.227,401.363,387.243,400.968,386.427,400.176z M386.211,409.5h6.192v37.512h-6.192
		V409.5z"/>
	<path fill="#FFFFFF" d="M425.378,446.796c-2.208,0.479-4.225,0.72-6.048,0.72c-4.8,0-8.161-1.26-10.08-3.78
		c-1.921-2.52-2.88-6.467-2.88-11.844v-17.855h-4.536V409.5h4.536v-9.648h5.977v9.648h10.512v4.536h-10.512v17.928
		c0,2.784,0.275,4.957,0.828,6.516c0.551,1.561,1.439,2.664,2.664,3.312c1.223,0.647,2.891,0.972,5.004,0.972
		c0.719,0,1.943-0.096,3.672-0.288L425.378,446.796z"/>
	<path fill="#FFFFFF" d="M432.794,436.859c1.344,1.584,3.191,2.893,5.544,3.925c2.351,1.032,4.632,1.548,6.84,1.548
		c2.256,0,4.115-0.588,5.58-1.765c1.464-1.175,2.196-2.628,2.196-4.355c0-1.296-0.421-2.352-1.26-3.168
		c-0.841-0.815-1.873-1.451-3.097-1.908c-1.224-0.456-2.892-0.972-5.004-1.548c-2.592-0.72-4.656-1.404-6.192-2.052
		c-1.536-0.648-2.855-1.596-3.959-2.845c-1.105-1.247-1.656-2.88-1.656-4.896c0-2.207,0.623-4.115,1.871-5.725
		c1.248-1.607,2.916-2.831,5.005-3.672c2.088-0.839,4.331-1.26,6.731-1.26c2.305,0,4.465,0.36,6.48,1.08s3.791,1.681,5.328,2.88
		l-1.872,4.248c-1.44-0.911-2.988-1.631-4.644-2.16c-1.656-0.527-3.277-0.792-4.861-0.792c-2.256,0-4.188,0.48-5.795,1.44
		c-1.609,0.961-2.412,2.231-2.412,3.815c0,1.394,0.648,2.425,1.943,3.097c1.297,0.673,3.359,1.344,6.192,2.016
		c2.735,0.673,4.968,1.345,6.696,2.016c1.728,0.673,3.215,1.753,4.464,3.24c1.247,1.488,1.872,3.48,1.872,5.977
		c0,3.553-1.236,6.384-3.709,8.496s-5.651,3.168-9.539,3.168c-2.929,0-5.82-0.602-8.676-1.801c-2.857-1.199-5.076-2.88-6.66-5.04
		L432.794,436.859z"/>
	<path fill="#FFFFFF" d="M486.146,436.859c1.344,1.584,3.191,2.893,5.543,3.925s4.633,1.548,6.842,1.548
		c2.254,0,4.115-0.588,5.58-1.765c1.463-1.175,2.195-2.628,2.195-4.355c0-1.296-0.422-2.352-1.26-3.168
		c-0.842-0.815-1.873-1.451-3.096-1.908c-1.225-0.456-2.893-0.972-5.004-1.548c-2.594-0.72-4.658-1.404-6.193-2.052
		c-1.537-0.648-2.855-1.596-3.959-2.845c-1.105-1.247-1.656-2.88-1.656-4.896c0-2.207,0.623-4.115,1.871-5.725
		c1.248-1.607,2.916-2.831,5.004-3.672c2.088-0.839,4.332-1.26,6.732-1.26c2.305,0,4.465,0.36,6.48,1.08s3.791,1.681,5.328,2.88
		l-1.873,4.248c-1.439-0.911-2.986-1.631-4.643-2.16c-1.656-0.527-3.277-0.792-4.861-0.792c-2.256,0-4.188,0.48-5.795,1.44
		c-1.609,0.961-2.412,2.231-2.412,3.815c0,1.394,0.648,2.425,1.943,3.097c1.297,0.673,3.359,1.344,6.191,2.016
		c2.736,0.673,4.969,1.345,6.697,2.016c1.729,0.673,3.215,1.753,4.463,3.24c1.248,1.488,1.873,3.48,1.873,5.977
		c0,3.553-1.236,6.384-3.709,8.496s-5.65,3.168-9.539,3.168c-2.928,0-5.82-0.602-8.676-1.801c-2.857-1.199-5.076-2.88-6.66-5.04
		L486.146,436.859z"/>
	<path fill="#FFFFFF" d="M548.929,409.5l-17.496,51.912h-6.119l4.824-14.4h-0.576L516.89,409.5h6.768l9.215,30.815l9.721-30.815
		H548.929z"/>
	<path fill="#FFFFFF" d="M608.22,412.235c1.703,2.064,2.557,5.593,2.557,10.584v24.192h-6.191v-23.04
		c0-2.448-0.217-4.308-0.648-5.58c-0.432-1.271-1.129-2.147-2.088-2.628c-0.961-0.479-2.281-0.72-3.961-0.72
		s-3.383,0.229-5.111,0.684c-1.729,0.457-3.721,1.26-5.977,2.412c0.191,1.2,0.289,2.761,0.289,4.68v24.192h-6.193v-23.04
		c0-2.448-0.215-4.308-0.646-5.58c-0.434-1.271-1.129-2.147-2.088-2.628c-0.961-0.479-2.281-0.72-3.961-0.72
		c-1.633,0-3.301,0.216-5.004,0.647c-1.705,0.433-3.66,1.201-5.867,2.305v29.016h-6.193V409.5h6.193v4.319
		c2.207-1.631,4.295-2.819,6.264-3.563c1.967-0.744,4.199-1.116,6.695-1.116s4.537,0.432,6.121,1.296s2.76,2.28,3.527,4.248
		c2.494-1.968,4.787-3.384,6.875-4.248s4.477-1.296,7.164-1.296C603.769,409.14,606.517,410.173,608.22,412.235z"/>
	<path fill="#FFFFFF" d="M650.771,413.64c2.617,3,3.926,7.765,3.926,14.292c0,6.912-1.525,12-4.572,15.264
		c-3.049,3.266-7.262,4.896-12.637,4.896c-2.064,0-4.273-0.205-6.623-0.612c-2.354-0.408-4.537-0.972-6.553-1.691v-0.072
		l0.072-56.304h6.191v23.184c3.023-2.304,6.359-3.456,10.008-3.456C644.759,409.14,648.155,410.641,650.771,413.64z
		 M645.696,439.775c2.062-2.039,3.096-5.747,3.096-11.124c0-5.328-0.912-9.083-2.736-11.268c-1.824-2.184-4.104-3.276-6.84-3.276
		c-1.346,0-2.834,0.229-4.465,0.685c-1.633,0.456-3.023,1.021-4.176,1.691v25.776c2.064,0.385,4.08,0.576,6.049,0.576
		C640.606,442.836,643.632,441.816,645.696,439.775z"/>
	<path fill="#FFFFFF" d="M666.827,443.483c-2.617-3.071-3.924-8.039-3.924-14.903c0-6.769,1.32-11.7,3.961-14.796
		c2.639-3.097,6.742-4.645,12.311-4.645s9.66,1.537,12.277,4.608c2.615,3.072,3.924,7.991,3.924,14.76
		c0,6.768-1.332,11.725-3.996,14.868c-2.664,3.145-6.805,4.716-12.42,4.716C673.487,448.092,669.442,446.556,666.827,443.483z
		 M686.7,439.56c1.607-2.279,2.41-6.156,2.41-11.628c0-3.552-0.322-6.336-0.971-8.352c-0.648-2.017-1.668-3.468-3.061-4.356
		c-1.393-0.888-3.289-1.332-5.688-1.332c-2.496,0-4.488,0.48-5.977,1.44s-2.568,2.509-3.24,4.644
		c-0.672,2.137-1.008,5.029-1.008,8.676c0,3.601,0.336,6.444,1.008,8.532s1.693,3.576,3.061,4.464
		c1.367,0.889,3.203,1.332,5.508,1.332C682.438,442.979,685.091,441.84,686.7,439.56z"/>
	<path fill="#FFFFFF" d="M706.245,389.412h6.193v57.6h-6.193V389.412z"/>
	<path fill="#FFFFFF" d="M725.181,436.859c1.344,1.584,3.193,2.893,5.545,3.925s4.631,1.548,6.84,1.548
		c2.256,0,4.115-0.588,5.58-1.765c1.463-1.175,2.195-2.628,2.195-4.355c0-1.296-0.42-2.352-1.26-3.168
		c-0.84-0.815-1.871-1.451-3.096-1.908c-1.225-0.456-2.893-0.972-5.004-1.548c-2.592-0.72-4.656-1.404-6.191-2.052
		c-1.537-0.648-2.857-1.596-3.961-2.845c-1.104-1.247-1.656-2.88-1.656-4.896c0-2.207,0.623-4.115,1.873-5.725
		c1.248-1.607,2.916-2.831,5.004-3.672c2.088-0.839,4.33-1.26,6.732-1.26c2.303,0,4.463,0.36,6.479,1.08
		c2.018,0.72,3.793,1.681,5.328,2.88l-1.871,4.248c-1.439-0.911-2.988-1.631-4.645-2.16c-1.656-0.527-3.275-0.792-4.859-0.792
		c-2.258,0-4.189,0.48-5.797,1.44c-1.607,0.961-2.412,2.231-2.412,3.815c0,1.394,0.648,2.425,1.945,3.097
		c1.295,0.673,3.359,1.344,6.191,2.016c2.736,0.673,4.969,1.345,6.695,2.016c1.729,0.673,3.217,1.753,4.465,3.24
		c1.248,1.488,1.871,3.48,1.871,5.977c0,3.553-1.236,6.384-3.707,8.496c-2.473,2.112-5.652,3.168-9.541,3.168
		c-2.928,0-5.82-0.602-8.676-1.801s-5.076-2.88-6.66-5.04L725.181,436.859z"/>
	<path fill="#ED1C24" d="M318.602,523.662c4.4,1.767,7.616,4.584,9.65,8.449c2.033,3.867,3.05,8.968,3.05,15.301
		c0,6.6-1.017,11.917-3.05,15.949c-2.034,4.035-5.25,6.984-9.65,8.851c-4.4,1.867-10.2,2.8-17.4,2.8h-1.9v21h-23.3v-75h25.2
		C308.402,521.012,314.202,521.896,318.602,523.662z M307.402,554.762c1.266-1.5,1.9-4.016,1.9-7.55c0-3.266-0.617-5.616-1.85-7.05
		c-1.234-1.434-3.317-2.15-6.25-2.15h-1.9v19h1.9C304.067,557.012,306.135,556.262,307.402,554.762z"/>
	<path fill="#ED1C24" d="M392.602,577.012v19h-51.3v-75h23.3v56H392.602z"/>
	<path fill="#ED1C24" d="M439.901,584.412h-16.5l-2.199,11.6h-23.601l19.601-75h28.799l19.801,75h-23.6L439.901,584.412z
		 M436.602,567.412l-5-25.9l-4.899,25.9H436.602z"/>
	<path fill="#ED1C24" d="M528.501,521.012l-21.4,44v31H483.8v-31l-21.5-44h24.6l8.801,24.2l8.699-24.2H528.501z"/>
</g>
</svg>
