<?xml version="1.0" encoding="utf-8"?>
<!-- Generator: Adobe Illustrator 15.1.0, SVG Export Plug-In . SVG Version: 6.00 Build 0)  -->
<!DOCTYPE svg PUBLIC "-//W3C//DTD SVG 1.1//EN" "http://www.w3.org/Graphics/SVG/1.1/DTD/svg11.dtd">
<svg version="1.1" id="Layer_34" xmlns="http://www.w3.org/2000/svg" xmlns:xlink="http://www.w3.org/1999/xlink" x="0px" y="0px"
	 width="800px" height="715px" viewBox="0 0 800 715" enable-background="new 0 0 800 715" xml:space="preserve">
<g>
	<path fill="#ED1C24" d="M559.014,344.568c0,39.084-15.227,75.871-42.879,103.481c-27.662,27.646-64.396,42.881-103.479,42.881
		c-39.091,0-75.865-15.234-103.526-42.881c-27.595-27.61-42.813-64.397-42.813-103.481c0-33.841,11.404-65.918,32.375-91.837
		L169.282,123.343l26.309-26.318l129.913,129.956c25.079-18.653,55.354-28.731,87.152-28.731c39.082,0,75.816,15.227,103.479,42.88
		C543.787,268.751,559.014,305.478,559.014,344.568z M521.83,344.568c0-60.196-48.973-109.174-109.174-109.174
		c-60.215,0-109.168,48.978-109.168,109.174c0,60.159,48.953,109.215,109.168,109.215
		C472.857,453.783,521.83,404.727,521.83,344.568z"/>
</g>
</svg>
