<?xml version="1.0" encoding="utf-8"?>
<!-- Generator: Adobe Illustrator 15.1.0, SVG Export Plug-In . SVG Version: 6.00 Build 0)  -->
<!DOCTYPE svg PUBLIC "-//W3C//DTD SVG 1.1//EN" "http://www.w3.org/Graphics/SVG/1.1/DTD/svg11.dtd">
<svg version="1.1" id="Layer_33" xmlns="http://www.w3.org/2000/svg" xmlns:xlink="http://www.w3.org/1999/xlink" x="0px" y="0px"
	 width="800px" height="715px" viewBox="0 0 800 715" enable-background="new 0 0 800 715" xml:space="preserve">
<g>
	<path fill="#ED1C24" d="M602.107,357.53v172.095H429.561v-37.158h109.027l-59.84-59.9l-38.342,38.351l-26.293-26.287l38.355-38.355
		l-22.027-22.061c-25.598,19.984-56.896,30.826-89.853,30.826c-39.091,0-75.87-15.24-103.54-42.885
		c-27.596-27.602-42.827-64.396-42.827-103.474c0-39.1,15.231-75.821,42.827-103.449c27.67-27.653,64.449-42.888,103.54-42.888
		c39.084,0,75.815,15.234,103.483,42.888c27.645,27.628,42.887,64.35,42.887,103.449c0,32.676-10.643,63.753-30.314,89.194
		l22.111,22.111l38.316-38.324l26.277,26.281l-38.314,38.33l59.9,59.917V357.53H602.107z M449.771,268.683
		c0-60.212-48.986-109.188-109.183-109.188c-60.219,0-109.178,48.976-109.178,109.188c0,60.157,48.959,109.202,109.178,109.202
		C400.785,377.885,449.771,328.84,449.771,268.683z"/>
</g>
</svg>
