<?xml version="1.0" encoding="utf-8"?>
<!-- Generator: Adobe Illustrator 15.1.0, SVG Export Plug-In . SVG Version: 6.00 Build 0)  -->
<!DOCTYPE svg PUBLIC "-//W3C//DTD SVG 1.1//EN" "http://www.w3.org/Graphics/SVG/1.1/DTD/svg11.dtd">
<svg version="1.1" id="Botoes" xmlns="http://www.w3.org/2000/svg" xmlns:xlink="http://www.w3.org/1999/xlink" x="0px" y="0px"
	 width="190px" height="95px" viewBox="0 0 190 95" enable-background="new 0 0 190 95" xml:space="preserve">
<g>
	<path fill="#FFFFFF" d="M37.691,55.361H26.073l-2.371,7.588h-3.674l9.839-29.793h4.109l9.8,29.793h-3.714L37.691,55.361z
		 M36.781,52.479l-4.938-15.768l-4.9,15.768H36.781z"/>
	<path fill="#FFFFFF" d="M64.48,43.588v18.768c0,3.162-0.678,5.414-2.035,6.758c-1.356,1.346-3.365,2.018-6.025,2.018
		c-2.766,0-5.334-0.963-7.705-2.885l1.027-2.018c0.869,0.711,1.863,1.258,2.983,1.643c1.119,0.381,2.14,0.57,3.062,0.57
		c1.739,0,3.076-0.383,4.012-1.145c0.934-0.766,1.402-2.229,1.402-4.387v-1.385c-1.713,1.318-3.583,1.979-5.611,1.979
		c-2.291,0-4.155-0.822-5.591-2.471c-1.437-1.645-2.153-4.262-2.153-7.844c0-3.793,0.836-6.586,2.509-8.377
		c1.673-1.791,3.984-2.688,6.935-2.688c1.133,0,2.345,0.113,3.635,0.336c1.291,0.225,2.49,0.533,3.597,0.928L64.48,43.588z
		 M58.889,60.4c0.909-0.25,1.679-0.586,2.312-1.008V45.365c-1.106-0.236-2.252-0.355-3.438-0.355c-2.188,0-3.847,0.561-4.979,1.68
		c-1.133,1.119-1.699,3.154-1.699,6.105c0,2.924,0.5,4.984,1.502,6.186c1,1.197,2.252,1.797,3.753,1.797
		C57.13,60.775,57.98,60.65,58.889,60.4z"/>
	<path fill="#FFFFFF" d="M82.517,60.381c0.805-0.184,1.771-0.461,2.904-0.83l0.514,2.607c-1.291,0.5-2.41,0.869-3.357,1.107
		c-0.949,0.236-1.95,0.355-3.004,0.355c-2.766,0-4.973-0.869-6.618-2.609c-1.646-1.738-2.47-4.479-2.47-8.219
		c0-3.689,0.797-6.381,2.391-8.08c1.594-1.699,3.721-2.549,6.382-2.549c2.476,0,4.247,0.672,5.313,2.016s1.602,3.201,1.602,5.572
		c0,1.475-0.094,2.686-0.277,3.635l-12.012-0.039c0.131,2.766,0.725,4.676,1.778,5.729c1.054,1.055,2.476,1.58,4.267,1.58
		C80.851,60.656,81.714,60.564,82.517,60.381z M75.504,46.096c-0.896,0.936-1.423,2.523-1.581,4.762l9.127-0.119
		c0.053-0.684,0.08-1.25,0.08-1.697c0-1.396-0.311-2.471-0.93-3.221c-0.619-0.752-1.652-1.127-3.101-1.127
		C77.599,44.693,76.4,45.162,75.504,46.096z"/>
	<path fill="#FFFFFF" d="M107.253,43.863c0.937,1.133,1.401,3.07,1.401,5.809v13.277h-3.397V50.305c0-1.344-0.117-2.365-0.354-3.062
		c-0.236-0.697-0.619-1.18-1.146-1.441c-0.526-0.264-1.252-0.396-2.174-0.396c-0.896,0-1.812,0.119-2.746,0.355
		c-0.937,0.238-2.011,0.66-3.222,1.266v15.924h-3.397V42.361h3.397v2.371c1.211-0.895,2.357-1.547,3.438-1.955
		c1.081-0.406,2.306-0.611,3.677-0.611C104.811,42.164,106.318,42.73,107.253,43.863z"/>
	<path fill="#FFFFFF" d="M131.296,62.355c-1.315,0.369-2.714,0.658-4.188,0.869c-1.477,0.211-2.779,0.316-3.912,0.316
		c-5.688,0-8.535-3.465-8.535-10.395c0-3.793,0.812-6.604,2.431-8.436c1.621-1.83,3.854-2.746,6.696-2.746
		c1.187,0,2.517,0.211,3.992,0.633V31.336h3.478L131.296,62.355z M119.423,59.076c1.015,1.133,2.455,1.699,4.325,1.699
		c1.027,0,2.371-0.172,4.031-0.514V45.129c-1.16-0.291-2.254-0.438-3.28-0.438c-2.08,0-3.701,0.646-4.859,1.938
		c-1.159,1.291-1.737,3.465-1.737,6.52C117.902,55.969,118.406,57.943,119.423,59.076z"/>
	<path fill="#FFFFFF" d="M149.294,60.381c0.805-0.184,1.771-0.461,2.903-0.83l0.515,2.607c-1.291,0.5-2.41,0.869-3.356,1.107
		c-0.949,0.236-1.951,0.355-3.004,0.355c-2.767,0-4.974-0.869-6.619-2.609c-1.646-1.738-2.47-4.479-2.47-8.219
		c0-3.689,0.798-6.381,2.392-8.08s3.721-2.549,6.381-2.549c2.477,0,4.248,0.672,5.314,2.016c1.064,1.344,1.602,3.201,1.602,5.572
		c0,1.475-0.094,2.686-0.277,3.635l-12.012-0.039c0.131,2.766,0.725,4.676,1.777,5.729c1.053,1.055,2.477,1.58,4.268,1.58
		C147.628,60.656,148.49,60.564,149.294,60.381z M142.279,46.096c-0.895,0.936-1.422,2.523-1.58,4.762l9.127-0.119
		c0.054-0.684,0.08-1.25,0.08-1.697c0-1.396-0.311-2.471-0.93-3.221c-0.619-0.752-1.652-1.127-3.102-1.127
		C144.373,44.693,143.177,45.162,142.279,46.096z"/>
	<path fill="#FFFFFF" d="M169.701,45.484c-1.344,0-2.66,0.203-3.95,0.611c-1.291,0.41-2.41,0.955-3.356,1.641v15.213h-3.398V42.361
		h3.398v2.727c0.973-0.816,2.133-1.5,3.477-2.055c1.344-0.553,2.699-0.842,4.07-0.869L169.701,45.484z"/>
</g>
</svg>
