<?xml version="1.0" encoding="utf-8"?>
<!-- Generator: Adobe Illustrator 15.1.0, SVG Export Plug-In . SVG Version: 6.00 Build 0)  -->
<!DOCTYPE svg PUBLIC "-//W3C//DTD SVG 1.1//EN" "http://www.w3.org/Graphics/SVG/1.1/DTD/svg11.dtd">
<svg version="1.1" id="Botoes" xmlns="http://www.w3.org/2000/svg" xmlns:xlink="http://www.w3.org/1999/xlink" x="0px" y="0px"
	 width="320px" height="95px" viewBox="0 0 320 95" enable-background="new 0 0 320 95" xml:space="preserve">
<g>
	<path fill="#FFFFFF" d="M58.334,55.211H46.717l-2.371,7.588h-3.675l9.839-29.793h4.11l9.799,29.793h-3.714L58.334,55.211z
		 M57.425,52.328L52.486,36.56l-4.9,15.769H57.425z"/>
	<path fill="#FFFFFF" d="M85.024,43.712c0.936,1.133,1.403,3.07,1.403,5.809v13.277H83.03V50.154c0-1.344-0.119-2.365-0.356-3.062
		c-0.237-0.697-0.619-1.18-1.146-1.441c-0.526-0.264-1.251-0.395-2.173-0.395c-0.896,0-1.812,0.119-2.746,0.354
		c-0.936,0.238-2.009,0.66-3.221,1.268v15.924H69.99v-20.59h3.397v2.371c1.211-0.896,2.357-1.549,3.438-1.955
		c1.08-0.408,2.305-0.613,3.675-0.613C82.581,42.014,84.09,42.58,85.024,43.712z"/>
	<path fill="#FFFFFF" d="M109.068,62.205c-1.317,0.369-2.714,0.658-4.188,0.869c-1.476,0.211-2.78,0.315-3.912,0.315
		c-5.689,0-8.535-3.463-8.535-10.394c0-3.793,0.811-6.604,2.431-8.438c1.619-1.83,3.853-2.746,6.697-2.746
		c1.187,0,2.516,0.211,3.991,0.633v-11.26h3.479L109.068,62.205z M97.195,58.926c1.014,1.133,2.455,1.699,4.326,1.699
		c1.027,0,2.371-0.172,4.03-0.514V44.979c-1.159-0.291-2.252-0.436-3.279-0.436c-2.082,0-3.701,0.645-4.859,1.936
		c-1.16,1.291-1.739,3.465-1.739,6.52C95.673,55.818,96.181,57.793,97.195,58.926z"/>
	<path fill="#FFFFFF" d="M127.245,45.333c-1.344,0-2.661,0.203-3.951,0.611c-1.291,0.41-2.411,0.955-3.359,1.641v15.213h-3.397
		V42.21h3.397v2.727c0.975-0.814,2.134-1.5,3.479-2.055c1.343-0.553,2.7-0.842,4.069-0.869L127.245,45.333z"/>
	<path fill="#FFFFFF" d="M132.678,60.861c-1.437-1.686-2.153-4.41-2.153-8.178c0-3.715,0.725-6.422,2.174-8.121
		c1.448-1.699,3.7-2.549,6.757-2.549c3.056,0,5.301,0.844,6.736,2.529c1.437,1.686,2.153,4.387,2.153,8.1
		c0,3.715-0.73,6.436-2.192,8.16c-1.463,1.727-3.734,2.588-6.816,2.588C136.332,63.391,134.113,62.549,132.678,60.861z
		 M143.583,58.709c0.882-1.252,1.324-3.379,1.324-6.381c0-1.949-0.179-3.479-0.534-4.584c-0.355-1.107-0.916-1.902-1.679-2.391
		c-0.765-0.488-1.806-0.73-3.122-0.73c-1.37,0-2.464,0.262-3.279,0.789c-0.817,0.527-1.41,1.377-1.778,2.549
		c-0.369,1.172-0.553,2.76-0.553,4.762c0,1.975,0.184,3.537,0.553,4.682c0.369,1.146,0.93,1.963,1.68,2.451
		c0.751,0.486,1.758,0.73,3.022,0.73C141.246,60.586,142.701,59.961,143.583,58.709z"/>
	<path fill="#FFFFFF" d="M169.482,43.438v18.768c0,3.162-0.678,5.414-2.035,6.758c-1.354,1.345-3.364,2.017-6.024,2.017
		c-2.765,0-5.333-0.963-7.704-2.885l1.027-2.017c0.869,0.711,1.862,1.258,2.982,1.642c1.119,0.381,2.141,0.571,3.062,0.571
		c1.739,0,3.075-0.383,4.011-1.146c0.934-0.764,1.402-2.228,1.402-4.385v-1.386c-1.713,1.318-3.584,1.978-5.611,1.978
		c-2.292,0-4.156-0.821-5.591-2.469c-1.437-1.646-2.153-4.263-2.153-7.845c0-3.793,0.836-6.585,2.509-8.376
		c1.674-1.791,3.984-2.688,6.935-2.688c1.133,0,2.347,0.113,3.636,0.336c1.291,0.225,2.489,0.533,3.598,0.928L169.482,43.438z
		 M163.893,60.25c0.91-0.25,1.68-0.586,2.312-1.008V45.214c-1.105-0.236-2.252-0.354-3.438-0.354c-2.188,0-3.848,0.562-4.979,1.682
		c-1.133,1.117-1.699,3.152-1.699,6.104c0,2.925,0.5,4.986,1.502,6.187c1,1.197,2.252,1.797,3.753,1.797
		C162.135,60.625,162.982,60.5,163.893,60.25z"/>
	<path fill="#FFFFFF" d="M191.57,42.21l-9.602,28.491h-3.357l2.646-7.902h-0.316l-6.953-20.588h3.714l5.06,16.913l5.334-16.913
		H191.57L191.57,42.21z"/>
	<path fill="#FFFFFF" d="M211.109,43.712c0.937,1.133,1.402,3.07,1.402,5.809v13.277h-3.396V50.154c0-1.344-0.118-2.365-0.355-3.062
		c-0.236-0.697-0.619-1.18-1.146-1.441c-0.526-0.264-1.252-0.395-2.174-0.395c-0.896,0-1.812,0.119-2.746,0.354
		c-0.936,0.238-2.01,0.66-3.221,1.268v15.924h-3.398v-20.59h3.398v2.371c1.211-0.896,2.357-1.549,3.438-1.955
		c1.082-0.408,2.306-0.613,3.676-0.613C208.667,42.014,210.176,42.58,211.109,43.712z"/>
	<path fill="#FFFFFF" d="M220.673,60.861c-1.438-1.686-2.153-4.41-2.153-8.178c0-3.715,0.725-6.422,2.174-8.121
		c1.447-1.699,3.699-2.549,6.756-2.549s5.303,0.844,6.738,2.529c1.435,1.685,2.151,4.387,2.151,8.1c0,3.715-0.729,6.436-2.192,8.16
		c-1.461,1.727-3.732,2.588-6.814,2.588C224.327,63.391,222.107,62.549,220.673,60.861z M231.579,58.709
		c0.881-1.252,1.321-3.379,1.321-6.381c0-1.949-0.178-3.479-0.532-4.584c-0.354-1.107-0.916-1.902-1.681-2.391
		c-0.764-0.49-1.805-0.73-3.121-0.73c-1.369,0-2.463,0.262-3.278,0.789c-0.815,0.527-1.41,1.377-1.776,2.549
		c-0.369,1.172-0.556,2.76-0.556,4.762c0,1.975,0.187,3.537,0.556,4.682c0.366,1.146,0.928,1.963,1.678,2.451
		c0.752,0.486,1.76,0.73,3.022,0.73C229.24,60.586,230.695,59.961,231.579,58.709z"/>
	<path fill="#FFFFFF" d="M258.031,42.21v20.588h-3.396v-2.094c-1.08,0.789-2.121,1.369-3.121,1.738
		c-1.002,0.366-2.082,0.553-3.24,0.553c-2.105,0-3.629-0.566-4.562-1.699c-0.936-1.133-1.402-3.068-1.402-5.809V42.21h3.519v12.764
		c0,1.344,0.116,2.371,0.354,3.082c0.236,0.711,0.605,1.199,1.105,1.463s1.211,0.396,2.133,0.396c1.346,0,3.082-0.516,5.217-1.541
		V42.212h3.396V42.21H258.031z"/>
	<path fill="#FFFFFF" d="M265.064,57.227c0.736,0.869,1.752,1.588,3.043,2.154c1.289,0.564,2.541,0.85,3.754,0.85
		c1.236,0,2.259-0.322,3.062-0.969c0.806-0.646,1.205-1.441,1.205-2.391c0-0.713-0.229-1.291-0.69-1.738s-1.025-0.797-1.697-1.047
		s-1.586-0.533-2.746-0.852c-1.422-0.396-2.557-0.771-3.398-1.127s-1.566-0.875-2.172-1.562c-0.607-0.684-0.908-1.579-0.908-2.687
		c0-1.211,0.342-2.258,1.025-3.141c0.686-0.883,1.602-1.555,2.746-2.018c1.146-0.461,2.377-0.689,3.693-0.689
		c1.266,0,2.451,0.197,3.559,0.594c1.104,0.395,2.08,0.922,2.924,1.58l-1.027,2.332c-0.791-0.5-1.641-0.896-2.549-1.186
		c-0.908-0.291-1.799-0.438-2.668-0.438c-1.238,0-2.299,0.264-3.18,0.791c-0.883,0.527-1.324,1.225-1.324,2.094
		c0,0.766,0.355,1.331,1.066,1.699c0.711,0.369,1.844,0.737,3.396,1.104c1.502,0.369,2.729,0.738,3.676,1.107
		s1.766,0.961,2.449,1.777c0.686,0.814,1.026,1.91,1.026,3.279c0,1.949-0.679,3.504-2.035,4.662s-3.103,1.737-5.233,1.737
		c-1.605,0-3.193-0.33-4.763-0.987c-1.567-0.656-2.784-1.578-3.655-2.767L265.064,57.227z"/>
</g>
</svg>
