<?xml version="1.0" encoding="utf-8"?>
<!-- Generator: Adobe Illustrator 15.1.0, SVG Export Plug-In . SVG Version: 6.00 Build 0)  -->
<!DOCTYPE svg PUBLIC "-//W3C//DTD SVG 1.1//EN" "http://www.w3.org/Graphics/SVG/1.1/DTD/svg11.dtd">
<svg version="1.1" id="Botoes" xmlns="http://www.w3.org/2000/svg" xmlns:xlink="http://www.w3.org/1999/xlink" x="0px" y="0px"
	 width="320px" height="95px" viewBox="0 0 320 95" enable-background="new 0 0 320 95" xml:space="preserve">
<g>
	<path fill="#FFFFFF" d="M57.464,49.975c0.791,1.252,1.186,2.838,1.186,4.762c0,2.791-0.777,4.859-2.332,6.203
		c-1.555,1.344-3.925,2.016-7.112,2.016H38.023V33.32h9.443c3.424,0,5.888,0.592,7.389,1.777c1.501,1.185,2.252,3.135,2.252,5.848
		c0,1.607-0.277,2.912-0.83,3.912c-0.553,1.002-1.462,1.777-2.727,2.332C55.371,47.795,56.674,48.723,57.464,49.975z M41.421,36.164
		v9.879h6.362c2.239,0,3.813-0.369,4.722-1.106c0.909-0.735,1.363-1.988,1.363-3.754c0-1.791-0.474-3.074-1.422-3.853
		c-0.948-0.777-2.622-1.166-5.018-1.166H41.421z M55.331,54.578c0-1.818-0.56-3.207-1.679-4.17c-1.12-0.961-2.958-1.441-5.512-1.441
		h-6.717v10.984l7.784-0.039C53.289,59.912,55.331,58.135,55.331,54.578z"/>
	<path fill="#FFFFFF" d="M65.446,37.252c-0.448-0.436-0.672-0.969-0.672-1.602c0-0.605,0.217-1.119,0.652-1.541
		c0.435-0.42,0.981-0.633,1.64-0.633c0.632,0,1.166,0.213,1.6,0.633c0.435,0.422,0.652,0.949,0.652,1.58
		c0,0.633-0.217,1.16-0.652,1.582s-0.968,0.631-1.6,0.631C66.434,37.902,65.893,37.686,65.446,37.252z M65.328,42.367h3.398v20.588
		h-3.398V42.367z"/>
	<path fill="#FFFFFF" d="M75.68,57.383c0.737,0.869,1.751,1.588,3.042,2.154c1.29,0.565,2.542,0.85,3.754,0.85
		c1.238,0,2.258-0.322,3.062-0.969c0.803-0.646,1.205-1.441,1.205-2.392c0-0.711-0.231-1.291-0.691-1.737
		c-0.461-0.447-1.027-0.798-1.699-1.048c-0.671-0.25-1.587-0.532-2.746-0.85c-1.422-0.396-2.555-0.771-3.398-1.128
		c-0.843-0.354-1.568-0.875-2.173-1.561c-0.606-0.684-0.909-1.58-0.909-2.688c0-1.211,0.342-2.258,1.027-3.141
		c0.685-0.884,1.6-1.556,2.746-2.017s2.377-0.69,3.694-0.69c1.265,0,2.45,0.196,3.557,0.594c1.106,0.395,2.081,0.922,2.924,1.58
		l-1.027,2.332c-0.791-0.5-1.64-0.896-2.549-1.187c-0.909-0.291-1.798-0.437-2.667-0.437c-1.239,0-2.299,0.265-3.181,0.791
		c-0.883,0.527-1.324,1.226-1.324,2.095c0,0.764,0.355,1.329,1.067,1.698c0.711,0.369,1.843,0.738,3.398,1.105
		c1.501,0.369,2.727,0.738,3.675,1.107c0.948,0.369,1.765,0.961,2.45,1.777c0.685,0.815,1.027,1.909,1.027,3.278
		c0,1.951-0.678,3.504-2.035,4.664c-1.357,1.157-3.102,1.737-5.236,1.737c-1.607,0-3.194-0.33-4.761-0.987
		c-1.568-0.658-2.786-1.58-3.655-2.767L75.68,57.383z"/>
	<path fill="#FFFFFF" d="M106.084,60.387c0.803-0.184,1.771-0.461,2.904-0.83l0.514,2.607c-1.291,0.5-2.41,0.868-3.359,1.106
		c-0.948,0.235-1.95,0.354-3.003,0.354c-2.766,0-4.973-0.869-6.619-2.608c-1.646-1.738-2.469-4.478-2.469-8.22
		c0-3.688,0.796-6.381,2.391-8.08c1.593-1.698,3.72-2.549,6.381-2.549c2.476,0,4.248,0.672,5.314,2.017
		c1.066,1.344,1.6,3.2,1.6,5.571c0,1.476-0.092,2.687-0.276,3.636l-12.012-0.039c0.131,2.767,0.724,4.676,1.778,5.729
		c1.053,1.055,2.476,1.58,4.267,1.58C104.417,60.662,105.281,60.57,106.084,60.387z M99.071,46.102
		c-0.896,0.936-1.422,2.523-1.581,4.762l9.127-0.119c0.053-0.684,0.079-1.25,0.079-1.699c0-1.395-0.31-2.469-0.928-3.219
		c-0.62-0.752-1.654-1.127-3.102-1.127C101.165,44.699,99.965,45.168,99.071,46.102z"/>
	<path fill="#FFFFFF" d="M126.295,62.955l-4.742-7.666l-4.742,7.666h-3.675l6.678-10.313l-6.559-10.272h3.675l4.663,7.469
		l4.583-7.469h3.714l-6.56,10.233l6.638,10.354h-3.673V62.955z"/>
	<path fill="#FFFFFF" d="M150.518,42.367v20.588h-3.398v-2.094c-1.081,0.789-2.121,1.369-3.122,1.738
		c-1.001,0.367-2.081,0.553-3.24,0.553c-2.106,0-3.629-0.566-4.562-1.699c-0.937-1.133-1.403-3.068-1.403-5.809V42.367h3.517v12.764
		c0,1.345,0.119,2.371,0.355,3.082c0.237,0.711,0.606,1.199,1.106,1.463c0.5,0.265,1.211,0.396,2.134,0.396
		c1.344,0,3.082-0.515,5.216-1.541V42.369h3.398V42.367z"/>
	<path fill="#FFFFFF" d="M168.852,42.881c0.975,0.475,1.699,1.271,2.173,2.391c0.474,1.121,0.712,2.668,0.712,4.645v13.039h-3.004
		v-2.647c-1.791,1.978-3.938,2.965-6.439,2.965c-2.083,0-3.629-0.556-4.644-1.66c-1.014-1.106-1.521-2.502-1.521-4.188
		c0-1.949,0.606-3.482,1.818-4.603c1.211-1.12,2.95-1.68,5.215-1.68h5.256c0-1.714-0.139-2.996-0.414-3.854
		c-0.277-0.854-0.713-1.441-1.305-1.758c-0.593-0.316-1.431-0.475-2.51-0.475c-1.477,0-3.543,0.316-6.204,0.949l-0.593-2.332
		c2.555-1,5.07-1.502,7.547-1.502C166.572,42.17,167.875,42.408,168.852,42.881z M168.416,58.291v-4.662h-5.215
		c-1.449,0-2.471,0.351-3.063,1.047c-0.593,0.699-0.889,1.511-0.889,2.433c0,1.026,0.322,1.836,0.968,2.431
		c0.645,0.592,1.522,0.889,2.627,0.889C164.531,60.426,166.388,59.715,168.416,58.291z"/>
	<path fill="#FFFFFF" d="M179.203,31.344h3.398v31.611h-3.398V31.344z"/>
	<path fill="#FFFFFF" d="M225.156,62.955l-2.33-24.262l-6.955,20.469h-3.557l-6.994-20.469l-2.252,24.262h-3.477l3.082-29.793h3.674
		l7.706,22.482l7.704-22.482h3.715l3.16,29.793H225.156z"/>
	<path fill="#FFFFFF" d="M246.572,42.881c0.975,0.475,1.699,1.271,2.174,2.391c0.476,1.121,0.711,2.668,0.711,4.645v13.039h-3.002
		v-2.647c-1.793,1.978-3.938,2.965-6.44,2.965c-2.082,0-3.63-0.556-4.644-1.66c-1.015-1.106-1.521-2.502-1.521-4.188
		c0-1.949,0.604-3.482,1.817-4.603c1.211-1.12,2.949-1.68,5.215-1.68h5.257c0-1.714-0.14-2.996-0.416-3.854
		c-0.274-0.854-0.711-1.441-1.304-1.758c-0.594-0.316-1.43-0.475-2.51-0.475c-1.476,0-3.543,0.316-6.203,0.949l-0.594-2.332
		c2.555-1,5.071-1.502,7.547-1.502C244.293,42.17,245.598,42.408,246.572,42.881z M246.139,58.291v-4.662h-5.217
		c-1.449,0-2.469,0.351-3.062,1.047c-0.592,0.699-0.889,1.511-0.889,2.433c0,1.026,0.322,1.836,0.969,2.431
		c0.645,0.592,1.521,0.889,2.627,0.889C242.252,60.426,244.109,59.715,246.139,58.291z"/>
	<path fill="#FFFFFF" d="M256.924,31.344h3.398v31.611h-3.398V31.344z"/>
	<path fill="#FFFFFF" d="M278.32,60.387c0.805-0.184,1.771-0.461,2.904-0.83l0.514,2.607c-1.291,0.5-2.41,0.868-3.357,1.106
		c-0.948,0.235-1.95,0.354-3.004,0.354c-2.766,0-4.973-0.869-6.619-2.608c-1.645-1.738-2.469-4.478-2.469-8.22
		c0-3.688,0.797-6.381,2.392-8.08c1.595-1.698,3.722-2.549,6.381-2.549c2.478,0,4.248,0.672,5.313,2.017
		c1.068,1.344,1.602,3.2,1.602,5.571c0,1.476-0.093,2.687-0.275,3.636l-12.013-0.039c0.132,2.767,0.724,4.676,1.776,5.729
		c1.055,1.055,2.479,1.58,4.27,1.58C276.654,60.662,277.518,60.57,278.32,60.387z M271.307,46.102
		c-0.896,0.936-1.422,2.523-1.58,4.762l9.127-0.119c0.053-0.684,0.08-1.25,0.08-1.699c0-1.395-0.311-2.469-0.93-3.219
		c-0.619-0.752-1.652-1.127-3.102-1.127C273.402,44.699,272.203,45.168,271.307,46.102z"/>
</g>
</svg>
