<?xml version="1.0" encoding="utf-8"?>
<!-- Generator: Adobe Illustrator 15.1.0, SVG Export Plug-In . SVG Version: 6.00 Build 0)  -->
<!DOCTYPE svg PUBLIC "-//W3C//DTD SVG 1.1//EN" "http://www.w3.org/Graphics/SVG/1.1/DTD/svg11.dtd">
<svg version="1.1" id="Botoes" xmlns="http://www.w3.org/2000/svg" xmlns:xlink="http://www.w3.org/1999/xlink" x="0px" y="0px"
	 width="320px" height="95px" viewBox="0 0 320 95" enable-background="new 0 0 320 95" xml:space="preserve">
<g>
	<path fill="#FFFFFF" d="M34.646,49.975c0.791,1.252,1.186,2.838,1.186,4.762c0,2.791-0.776,4.859-2.332,6.203
		c-1.555,1.344-3.925,2.016-7.111,2.016H15.206V33.32h9.443c3.424,0,5.888,0.593,7.389,1.777c1.501,1.186,2.252,3.135,2.252,5.848
		c0,1.607-0.276,2.912-0.83,3.912c-0.553,1.002-1.462,1.777-2.727,2.332C32.553,47.795,33.856,48.723,34.646,49.975z M18.604,36.165
		v9.878h6.361c2.239,0,3.813-0.369,4.723-1.106c0.909-0.735,1.362-1.988,1.362-3.754c0-1.791-0.474-3.074-1.422-3.852
		c-0.947-0.778-2.622-1.166-5.018-1.166H18.604z M32.513,54.578c0-1.818-0.561-3.207-1.68-4.17c-1.12-0.961-2.958-1.441-5.512-1.441
		h-6.717v10.984l7.784-0.039C30.472,59.912,32.513,58.135,32.513,54.578z"/>
	<path fill="#FFFFFF" d="M42.627,37.253c-0.447-0.437-0.672-0.969-0.672-1.603c0-0.604,0.217-1.119,0.652-1.541
		c0.435-0.42,0.98-0.633,1.64-0.633c0.632,0,1.166,0.213,1.601,0.633c0.435,0.422,0.651,0.949,0.651,1.58
		c0,0.633-0.217,1.16-0.651,1.582c-0.436,0.422-0.969,0.631-1.601,0.631S43.075,37.686,42.627,37.253z M42.51,42.368h3.397v20.587
		H42.51V42.368z"/>
	<path fill="#FFFFFF" d="M52.861,57.383c0.737,0.869,1.751,1.588,3.042,2.154c1.29,0.565,2.542,0.85,3.754,0.85
		c1.238,0,2.258-0.322,3.062-0.969c0.803-0.646,1.204-1.441,1.204-2.392c0-0.711-0.23-1.291-0.69-1.737
		c-0.461-0.447-1.027-0.797-1.699-1.047c-0.671-0.25-1.587-0.533-2.746-0.852c-1.422-0.395-2.555-0.77-3.397-1.127
		c-0.844-0.354-1.568-0.875-2.174-1.561c-0.605-0.684-0.908-1.58-0.908-2.688c0-1.211,0.342-2.258,1.026-3.141
		c0.686-0.883,1.601-1.556,2.746-2.017c1.146-0.461,2.377-0.69,3.694-0.69c1.265,0,2.45,0.196,3.557,0.594
		c1.106,0.395,2.081,0.922,2.924,1.58l-1.026,2.332c-0.791-0.5-1.641-0.896-2.549-1.187c-0.909-0.291-1.799-0.437-2.667-0.437
		c-1.239,0-2.3,0.265-3.182,0.791c-0.883,0.527-1.324,1.226-1.324,2.095c0,0.765,0.355,1.329,1.067,1.698
		c0.711,0.369,1.843,0.738,3.398,1.105c1.501,0.369,2.727,0.738,3.675,1.107s1.765,0.961,2.45,1.777
		c0.685,0.815,1.026,1.91,1.026,3.278c0,1.951-0.678,3.505-2.035,4.664c-1.356,1.158-3.102,1.737-5.235,1.737
		c-1.607,0-3.194-0.329-4.761-0.987c-1.568-0.657-2.786-1.58-3.655-2.767L52.861,57.383z"/>
	<path fill="#FFFFFF" d="M83.267,60.387c0.803-0.184,1.771-0.461,2.903-0.83l0.515,2.607c-1.291,0.5-2.41,0.869-3.359,1.106
		c-0.948,0.235-1.95,0.354-3.003,0.354c-2.766,0-4.973-0.869-6.619-2.609c-1.646-1.737-2.469-4.477-2.469-8.219
		c0-3.688,0.796-6.381,2.391-8.08c1.594-1.698,3.721-2.548,6.381-2.548c2.477,0,4.248,0.672,5.314,2.016s1.6,3.2,1.6,5.571
		c0,1.476-0.092,2.687-0.275,3.635l-12.013-0.038c0.132,2.767,0.725,4.676,1.778,5.729c1.053,1.055,2.477,1.58,4.268,1.58
		C81.601,60.662,82.462,60.57,83.267,60.387z M76.252,46.102c-0.896,0.936-1.422,2.523-1.581,4.762l9.127-0.119
		c0.054-0.684,0.079-1.25,0.079-1.699c0-1.395-0.31-2.469-0.928-3.219c-0.62-0.752-1.654-1.127-3.102-1.127
		C78.348,44.699,77.147,45.168,76.252,46.102z"/>
	<path fill="#FFFFFF" d="M103.478,62.955l-4.742-7.666l-4.742,7.666h-3.675l6.678-10.314l-6.559-10.271h3.675l4.663,7.469
		l4.583-7.469h3.714l-6.56,10.233l6.638,10.354h-3.673V62.955z"/>
	<path fill="#FFFFFF" d="M127.699,42.368v20.587h-3.397v-2.094c-1.081,0.789-2.121,1.369-3.122,1.738
		c-1.001,0.367-2.081,0.553-3.24,0.553c-2.107,0-3.629-0.566-4.563-1.699c-0.936-1.133-1.402-3.068-1.402-5.809V42.368h3.517v12.763
		c0,1.345,0.119,2.371,0.355,3.082s0.605,1.199,1.105,1.463c0.5,0.265,1.211,0.396,2.134,0.396c1.345,0,3.082-0.515,5.217-1.541
		V42.368H127.699z"/>
	<path fill="#FFFFFF" d="M146.032,42.881c0.974,0.475,1.699,1.271,2.173,2.391c0.475,1.121,0.711,2.668,0.711,4.645v13.039h-3.003
		v-2.648c-1.792,1.977-3.938,2.965-6.439,2.965c-2.082,0-3.629-0.555-4.644-1.66c-1.014-1.107-1.521-2.502-1.521-4.189
		c0-1.949,0.605-3.481,1.817-4.602c1.211-1.121,2.95-1.68,5.216-1.68h5.256c0-1.713-0.139-2.996-0.415-3.854
		c-0.276-0.855-0.711-1.441-1.305-1.759c-0.593-0.315-1.43-0.476-2.509-0.476c-1.476,0-3.543,0.316-6.204,0.949l-0.593-2.332
		c2.555-0.999,5.071-1.501,7.547-1.501C143.753,42.171,145.058,42.409,146.032,42.881z M145.599,58.291v-4.662h-5.217
		c-1.448,0-2.47,0.351-3.062,1.047c-0.593,0.699-0.889,1.511-0.889,2.433c0,1.026,0.321,1.836,0.968,2.431
		c0.645,0.592,1.521,0.889,2.627,0.889C141.711,60.426,143.569,59.715,145.599,58.291z"/>
	<path fill="#FFFFFF" d="M156.384,31.344h3.398v31.611h-3.398V31.344z"/>
	<path fill="#FFFFFF" d="M180.646,36.402v10.945h13.947v3.002h-13.947v12.605h-3.477V33.32h18.609v3.082H180.646L180.646,36.402z"/>
	<path fill="#FFFFFF" d="M211.96,60.387c0.803-0.184,1.771-0.461,2.904-0.83l0.514,2.607c-1.291,0.5-2.41,0.869-3.359,1.106
		c-0.947,0.235-1.949,0.354-3.003,0.354c-2.767,0-4.974-0.869-6.618-2.609c-1.646-1.737-2.47-4.477-2.47-8.219
		c0-3.688,0.796-6.381,2.392-8.08c1.592-1.698,3.719-2.548,6.381-2.548c2.475,0,4.248,0.672,5.314,2.016s1.6,3.2,1.6,5.571
		c0,1.476-0.092,2.687-0.275,3.635l-12.014-0.038c0.133,2.767,0.725,4.676,1.779,5.729c1.053,1.055,2.475,1.58,4.268,1.58
		C210.292,60.662,211.155,60.57,211.96,60.387z M204.946,46.102c-0.896,0.936-1.423,2.523-1.58,4.762l9.127-0.119
		c0.053-0.684,0.078-1.25,0.078-1.699c0-1.395-0.309-2.469-0.928-3.219c-0.619-0.752-1.654-1.127-3.102-1.127
		C207.04,44.699,205.841,45.168,204.946,46.102z"/>
	<path fill="#FFFFFF" d="M249.694,43.869c0.936,1.133,1.402,3.07,1.402,5.809v13.277H247.7V50.311c0-1.344-0.119-2.365-0.357-3.062
		c-0.235-0.697-0.618-1.18-1.145-1.441c-0.527-0.264-1.252-0.395-2.174-0.395s-1.857,0.125-2.807,0.375
		c-0.947,0.252-2.041,0.69-3.279,1.323c0.105,0.658,0.158,1.517,0.158,2.567v13.277H234.7V50.311c0-1.344-0.119-2.365-0.357-3.062
		c-0.235-0.697-0.618-1.18-1.145-1.441c-0.527-0.264-1.252-0.395-2.174-0.395c-0.896,0-1.812,0.118-2.746,0.354
		c-0.936,0.238-2.01,0.66-3.221,1.267v15.925h-3.398V42.368h3.398v2.37c1.211-0.895,2.357-1.547,3.438-1.954
		c1.082-0.408,2.305-0.613,3.676-0.613c1.369,0,2.488,0.238,3.357,0.711c0.869,0.475,1.516,1.251,1.938,2.331
		c1.369-1.08,2.627-1.856,3.773-2.331c1.145-0.473,2.455-0.711,3.932-0.711C247.251,42.171,248.759,42.736,249.694,43.869z"/>
	<path fill="#FFFFFF" d="M269.392,42.881c0.975,0.475,1.699,1.271,2.174,2.391c0.475,1.121,0.711,2.668,0.711,4.645v13.039h-3.004
		v-2.648c-1.791,1.977-3.938,2.965-6.439,2.965c-2.082,0-3.629-0.555-4.644-1.66c-1.015-1.107-1.521-2.502-1.521-4.189
		c0-1.949,0.605-3.481,1.816-4.602c1.213-1.121,2.95-1.68,5.217-1.68h5.256c0-1.713-0.139-2.996-0.416-3.854
		c-0.275-0.855-0.711-1.441-1.303-1.759c-0.594-0.317-1.431-0.476-2.51-0.476c-1.477,0-3.544,0.316-6.204,0.949l-0.593-2.332
		c2.555-0.999,5.07-1.501,7.547-1.501C267.112,42.171,268.417,42.409,269.392,42.881z M268.956,58.291v-4.662h-5.215
		c-1.449,0-2.471,0.351-3.062,1.047c-0.594,0.699-0.889,1.511-0.889,2.433c0,1.026,0.322,1.836,0.967,2.431
		c0.646,0.592,1.521,0.889,2.629,0.889C265.071,60.426,266.929,59.715,268.956,58.291z"/>
	<path fill="#FFFFFF" d="M279.743,31.344h3.398v31.611h-3.398V31.344z"/>
	<path fill="#FFFFFF" d="M301.14,60.387c0.803-0.184,1.771-0.461,2.904-0.83l0.514,2.607c-1.291,0.5-2.41,0.869-3.359,1.106
		c-0.947,0.235-1.949,0.354-3.002,0.354c-2.767,0-4.973-0.869-6.619-2.609c-1.646-1.737-2.469-4.477-2.469-8.219
		c0-3.688,0.797-6.381,2.391-8.08c1.594-1.698,3.721-2.548,6.381-2.548c2.477,0,4.248,0.672,5.314,2.016s1.6,3.2,1.6,5.571
		c0,1.476-0.092,2.687-0.274,3.635l-12.013-0.038c0.132,2.767,0.724,4.676,1.777,5.729c1.053,1.055,2.477,1.58,4.269,1.58
		C299.474,60.662,300.335,60.57,301.14,60.387z M294.126,46.102c-0.896,0.936-1.422,2.523-1.58,4.762l9.127-0.119
		c0.053-0.684,0.078-1.25,0.078-1.699c0-1.395-0.309-2.469-0.928-3.219c-0.619-0.752-1.654-1.127-3.103-1.127
		C296.22,44.699,295.021,45.168,294.126,46.102z"/>
</g>
</svg>
