<?xml version="1.0" encoding="utf-8"?>
<!-- Generator: Adobe Illustrator 15.1.0, SVG Export Plug-In . SVG Version: 6.00 Build 0)  -->
<!DOCTYPE svg PUBLIC "-//W3C//DTD SVG 1.1//EN" "http://www.w3.org/Graphics/SVG/1.1/DTD/svg11.dtd">
<svg version="1.1" id="Botoes" xmlns="http://www.w3.org/2000/svg" xmlns:xlink="http://www.w3.org/1999/xlink" x="0px" y="0px"
	 width="290px" height="95px" viewBox="0 0 290 95" enable-background="new 0 0 290 95" xml:space="preserve">
<g>
	<path fill="#FFFFFF" d="M84.711,36.425V47.37h13.949v3.002H84.711v12.605h-3.477V33.343h18.611v3.082H84.711z"/>
	<path fill="#FFFFFF" d="M116.026,60.409c0.805-0.184,1.771-0.461,2.904-0.83l0.514,2.607c-1.291,0.5-2.41,0.869-3.357,1.107
		c-0.949,0.236-1.951,0.355-3.004,0.355c-2.766,0-4.973-0.869-6.619-2.609c-1.646-1.738-2.469-4.477-2.469-8.219
		c0-3.688,0.797-6.381,2.391-8.08s3.721-2.549,6.381-2.549c2.477,0,4.248,0.672,5.314,2.016s1.602,3.201,1.602,5.572
		c0,1.475-0.094,2.686-0.277,3.635l-12.012-0.039c0.131,2.766,0.725,4.676,1.777,5.729c1.053,1.055,2.477,1.58,4.268,1.58
		C114.36,60.685,115.223,60.593,116.026,60.409z M109.012,46.124c-0.895,0.936-1.422,2.523-1.58,4.762l9.127-0.119
		c0.053-0.684,0.08-1.25,0.08-1.699c0-1.395-0.311-2.469-0.93-3.219c-0.619-0.752-1.652-1.127-3.102-1.127
		C111.106,44.722,109.909,45.19,109.012,46.124z"/>
	<path fill="#FFFFFF" d="M153.762,43.892c0.934,1.133,1.402,3.07,1.402,5.809v13.277h-3.398V50.333c0-1.344-0.119-2.365-0.355-3.062
		c-0.238-0.697-0.619-1.18-1.146-1.441c-0.527-0.264-1.252-0.396-2.174-0.396s-1.855,0.125-2.804,0.375
		c-0.949,0.252-2.041,0.691-3.279,1.324c0.105,0.658,0.158,1.516,0.158,2.568v13.277h-3.398V50.333c0-1.344-0.119-2.365-0.355-3.062
		c-0.238-0.697-0.619-1.18-1.146-1.441c-0.527-0.264-1.252-0.396-2.174-0.396c-0.895,0-1.811,0.119-2.746,0.355
		c-0.936,0.238-2.008,0.66-3.219,1.266v15.924h-3.398V42.39h3.398v2.371c1.211-0.895,2.355-1.547,3.438-1.955
		c1.08-0.408,2.305-0.613,3.674-0.613s2.49,0.238,3.359,0.711c0.869,0.475,1.514,1.252,1.936,2.332
		c1.369-1.08,2.627-1.857,3.773-2.332c1.146-0.473,2.457-0.711,3.931-0.711C151.316,42.192,152.826,42.759,153.762,43.892z"/>
	<path fill="#FFFFFF" d="M173.457,42.903c0.975,0.475,1.699,1.271,2.174,2.391c0.475,1.121,0.711,2.668,0.711,4.645v13.039h-3.002
		v-2.648c-1.793,1.977-3.939,2.965-6.441,2.965c-2.08,0-3.629-0.555-4.643-1.66c-1.014-1.107-1.521-2.502-1.521-4.189
		c0-1.949,0.605-3.482,1.818-4.602c1.211-1.121,2.949-1.68,5.215-1.68h5.256c0-1.713-0.139-2.996-0.414-3.854
		c-0.277-0.855-0.713-1.441-1.305-1.758c-0.594-0.316-1.43-0.475-2.51-0.475c-1.475,0-3.543,0.316-6.203,0.949l-0.594-2.332
		c2.557-1,5.072-1.502,7.549-1.502C171.18,42.192,172.482,42.431,173.457,42.903z M173.023,58.313v-4.662h-5.217
		c-1.447,0-2.469,0.35-3.061,1.047c-0.594,0.699-0.891,1.51-0.891,2.432c0,1.027,0.322,1.836,0.969,2.43
		c0.645,0.592,1.521,0.889,2.627,0.889C169.137,60.448,170.994,59.737,173.023,58.313z"/>
	<path fill="#FFFFFF" d="M183.811,31.366h3.398v31.611h-3.398V31.366z"/>
	<path fill="#FFFFFF" d="M205.207,60.409c0.803-0.184,1.771-0.461,2.904-0.83l0.514,2.607c-1.291,0.5-2.41,0.869-3.359,1.107
		c-0.947,0.236-1.949,0.355-3.002,0.355c-2.768,0-4.973-0.869-6.619-2.609c-1.646-1.738-2.471-4.477-2.471-8.219
		c0-3.688,0.797-6.381,2.391-8.08s3.721-2.549,6.383-2.549c2.475,0,4.248,0.672,5.314,2.016s1.6,3.201,1.6,5.572
		c0,1.475-0.092,2.686-0.277,3.635l-12.012-0.039c0.133,2.766,0.725,4.676,1.779,5.729c1.053,1.055,2.475,1.58,4.268,1.58
		C203.541,60.685,204.402,60.593,205.207,60.409z M198.193,46.124c-0.896,0.936-1.424,2.523-1.58,4.762l9.127-0.119
		c0.053-0.684,0.078-1.25,0.078-1.699c0-1.395-0.309-2.469-0.928-3.219c-0.619-0.752-1.654-1.127-3.102-1.127
		C200.287,44.722,199.088,45.19,198.193,46.124z"/>
</g>
</svg>
