<?xml version="1.0" encoding="utf-8"?>
<!-- Generator: Adobe Illustrator 15.1.0, SVG Export Plug-In . SVG Version: 6.00 Build 0)  -->
<!DOCTYPE svg PUBLIC "-//W3C//DTD SVG 1.1//EN" "http://www.w3.org/Graphics/SVG/1.1/DTD/svg11.dtd">
<svg version="1.1" id="Botoes" xmlns="http://www.w3.org/2000/svg" xmlns:xlink="http://www.w3.org/1999/xlink" x="0px" y="0px"
	 width="190px" height="95px" viewBox="0 0 190 95" enable-background="new 0 0 190 95" xml:space="preserve">
<g>
	<path fill="#FFFFFF" d="M84.492,61.376c-1.815,0.844-3.338,1.416-4.562,1.719c-1.225,0.303-2.562,0.455-4.012,0.455
		c-4.558,0-7.862-1.225-9.918-3.674c-2.055-2.451-3.082-6.322-3.082-11.616c0-5.375,1.015-9.299,3.042-11.775
		c2.029-2.477,5.189-3.715,9.484-3.715c1.501,0,2.917,0.164,4.247,0.494c1.329,0.33,2.692,0.877,4.089,1.641l-0.869,2.725
		c-1.315-0.684-2.496-1.184-3.535-1.5c-1.041-0.316-2.26-0.475-3.654-0.475c-2.188,0-3.952,0.428-5.295,1.283
		c-1.345,0.857-2.331,2.207-2.965,4.051c-0.632,1.844-0.947,4.281-0.947,7.312c0,2.924,0.303,5.256,0.909,6.994
		c0.604,1.736,1.579,3.016,2.924,3.832c1.344,0.814,3.161,1.225,5.453,1.225c1.922,0,3.754-0.303,5.491-0.908V50.63h-6.717v-2.923
		h9.916V61.376z"/>
	<path fill="#FFFFFF" d="M102.076,42.924c0.976,0.475,1.698,1.271,2.174,2.391c0.476,1.121,0.711,2.668,0.711,4.646v13.039h-3.002
		v-2.648c-1.793,1.977-3.938,2.965-6.44,2.965c-2.08,0-3.629-0.555-4.644-1.66c-1.014-1.107-1.521-2.502-1.521-4.189
		c0-1.949,0.604-3.482,1.817-4.602c1.212-1.121,2.949-1.68,5.216-1.68h5.256c0-1.713-0.14-2.996-0.414-3.854
		c-0.277-0.855-0.713-1.441-1.306-1.758c-0.594-0.316-1.43-0.475-2.51-0.475c-1.476,0-3.543,0.316-6.203,0.949l-0.594-2.332
		c2.557-1,5.071-1.502,7.549-1.502C99.8,42.212,101.103,42.451,102.076,42.924z M101.644,58.333v-4.662h-5.217
		c-1.447,0-2.47,0.35-3.062,1.047c-0.595,0.699-0.892,1.51-0.892,2.432c0,1.027,0.322,1.836,0.969,2.432
		c0.646,0.592,1.521,0.889,2.627,0.889C97.756,60.468,99.612,59.757,101.644,58.333z"/>
	<path fill="#FFFFFF" d="M127.05,42.41l-9.604,28.49h-3.356l2.646-7.902h-0.315l-6.952-20.587h3.713l5.059,16.912l5.334-16.912
		H127.05z"/>
</g>
</svg>
