<?xml version="1.0" encoding="utf-8"?>
<!-- Generator: Adobe Illustrator 15.1.0, SVG Export Plug-In . SVG Version: 6.00 Build 0)  -->
<!DOCTYPE svg PUBLIC "-//W3C//DTD SVG 1.1//EN" "http://www.w3.org/Graphics/SVG/1.1/DTD/svg11.dtd">
<svg version="1.1" id="Botoes" xmlns="http://www.w3.org/2000/svg" xmlns:xlink="http://www.w3.org/1999/xlink" x="0px" y="0px"
	 width="290px" height="95px" viewBox="0 0 290 95" enable-background="new 0 0 290 95" xml:space="preserve">
<g>
	<path fill="#FFFFFF" d="M51.818,33.343v29.635h-3.479V49.345H34.273v13.633h-3.477V33.343h3.477v12.92h14.066v-12.92H51.818z"/>
	<path fill="#FFFFFF" d="M69.894,60.409c0.805-0.184,1.771-0.461,2.904-0.83l0.514,2.607c-1.291,0.5-2.41,0.869-3.357,1.107
		c-0.949,0.236-1.951,0.355-3.004,0.355c-2.766,0-4.973-0.869-6.619-2.609c-1.646-1.738-2.469-4.477-2.469-8.219
		c0-3.688,0.797-6.381,2.391-8.08s3.721-2.549,6.381-2.549c2.477,0,4.248,0.672,5.314,2.016s1.602,3.201,1.602,5.572
		c0,1.475-0.094,2.686-0.277,3.635l-12.012-0.039c0.131,2.766,0.725,4.676,1.777,5.729c1.053,1.055,2.477,1.58,4.268,1.58
		C68.228,60.685,69.091,60.593,69.894,60.409z M62.88,46.124c-0.895,0.936-1.422,2.523-1.58,4.762l9.127-0.119
		c0.053-0.684,0.08-1.25,0.08-1.699c0-1.395-0.311-2.469-0.93-3.219c-0.619-0.752-1.652-1.127-3.102-1.127
		C64.974,44.722,63.777,45.19,62.88,46.124z"/>
	<path fill="#FFFFFF" d="M90.263,62.858c-1.211,0.264-2.318,0.395-3.318,0.395c-2.635,0-4.479-0.691-5.533-2.074
		c-1.053-1.383-1.58-3.549-1.58-6.5V44.88h-2.488v-2.49h2.488v-5.295h3.279v5.295h5.77v2.49h-5.77v9.838
		c0,1.529,0.152,2.721,0.455,3.576c0.303,0.857,0.791,1.463,1.461,1.818c0.672,0.355,1.588,0.533,2.748,0.533
		c0.395,0,1.066-0.053,2.014-0.158L90.263,62.858z"/>
	<path fill="#FFFFFF" d="M105.337,60.409c0.805-0.184,1.771-0.461,2.904-0.83l0.514,2.607c-1.291,0.5-2.41,0.869-3.357,1.107
		c-0.949,0.236-1.951,0.355-3.004,0.355c-2.766,0-4.973-0.869-6.619-2.609c-1.646-1.738-2.469-4.477-2.469-8.219
		c0-3.688,0.797-6.381,2.391-8.08s3.721-2.549,6.381-2.549c2.477,0,4.248,0.672,5.314,2.016s1.602,3.201,1.602,5.572
		c0,1.475-0.094,2.686-0.277,3.635l-12.012-0.039c0.131,2.766,0.725,4.676,1.777,5.729c1.053,1.055,2.477,1.58,4.268,1.58
		C103.671,60.685,104.535,60.593,105.337,60.409z M98.324,46.124c-0.895,0.936-1.422,2.523-1.58,4.762l9.127-0.119
		c0.053-0.684,0.08-1.25,0.08-1.699c0-1.395-0.311-2.469-0.93-3.219c-0.619-0.752-1.652-1.127-3.102-1.127
		C100.417,44.722,99.22,45.19,98.324,46.124z"/>
	<path fill="#FFFFFF" d="M125.746,45.513c-1.344,0-2.66,0.203-3.951,0.611c-1.291,0.41-2.41,0.955-3.357,1.641v15.213h-3.398V42.39
		h3.398v2.727c0.973-0.816,2.133-1.5,3.477-2.055c1.344-0.553,2.699-0.842,4.07-0.869L125.746,45.513z"/>
	<path fill="#FFFFFF" d="M131.179,61.04c-1.436-1.686-2.154-4.41-2.154-8.178c0-3.715,0.725-6.422,2.174-8.121
		s3.701-2.549,6.758-2.549c3.055,0,5.301,0.844,6.736,2.529s2.155,4.387,2.155,8.1c0,3.715-0.733,6.436-2.194,8.16
		c-1.463,1.727-3.734,2.588-6.816,2.588C134.833,63.569,132.615,62.728,131.179,61.04z M142.085,58.888
		c0.881-1.252,1.322-3.379,1.322-6.381c0-1.949-0.178-3.479-0.533-4.584c-0.355-1.107-0.914-1.902-1.678-2.391
		c-0.766-0.488-1.805-0.73-3.123-0.73c-1.369,0-2.463,0.262-3.279,0.789s-1.41,1.377-1.777,2.549
		c-0.369,1.172-0.553,2.76-0.553,4.762c0,1.975,0.184,3.537,0.553,4.682c0.367,1.146,0.928,1.963,1.68,2.451
		c0.75,0.486,1.758,0.73,3.021,0.73C139.748,60.765,141.203,60.14,142.085,58.888z"/>
	<path fill="#FFFFFF" d="M152.377,57.405c0.738,0.869,1.752,1.588,3.043,2.154s2.543,0.85,3.754,0.85
		c1.238,0,2.258-0.322,3.062-0.969c0.803-0.645,1.205-1.441,1.205-2.391c0-0.711-0.23-1.291-0.691-1.738s-1.027-0.797-1.699-1.047
		s-1.588-0.533-2.746-0.85c-1.422-0.395-2.555-0.771-3.398-1.127s-1.566-0.875-2.174-1.561c-0.605-0.684-0.908-1.58-0.908-2.688
		c0-1.211,0.342-2.258,1.027-3.141s1.602-1.555,2.746-2.016c1.146-0.461,2.377-0.691,3.695-0.691c1.264,0,2.449,0.197,3.557,0.594
		c1.105,0.395,2.08,0.922,2.924,1.58l-1.027,2.332c-0.791-0.5-1.641-0.896-2.549-1.186c-0.908-0.291-1.799-0.436-2.668-0.436
		c-1.238,0-2.299,0.264-3.18,0.791c-0.883,0.527-1.324,1.225-1.324,2.094c0,0.764,0.355,1.33,1.066,1.699s1.844,0.738,3.398,1.105
		c1.502,0.369,2.727,0.738,3.674,1.107c0.949,0.369,1.766,0.961,2.451,1.777c0.684,0.816,1.027,1.91,1.027,3.279
		c0,1.951-0.68,3.504-2.035,4.664c-1.357,1.158-3.102,1.738-5.236,1.738c-1.607,0-3.193-0.33-4.762-0.988
		c-1.566-0.658-2.785-1.58-3.654-2.766L152.377,57.405z"/>
	<path fill="#FFFFFF" d="M182.783,60.409c0.805-0.184,1.771-0.461,2.904-0.83l0.514,2.607c-1.291,0.5-2.41,0.869-3.357,1.107
		c-0.949,0.236-1.951,0.355-3.004,0.355c-2.766,0-4.973-0.869-6.619-2.609c-1.646-1.738-2.469-4.477-2.469-8.219
		c0-3.688,0.797-6.381,2.391-8.08s3.721-2.549,6.381-2.549c2.477,0,4.248,0.672,5.314,2.016s1.602,3.201,1.602,5.572
		c0,1.475-0.094,2.686-0.277,3.635l-12.012-0.039c0.131,2.766,0.725,4.676,1.777,5.729c1.053,1.055,2.477,1.58,4.268,1.58
		C181.117,60.685,181.98,60.593,182.783,60.409z M175.77,46.124c-0.895,0.936-1.422,2.523-1.58,4.762l9.127-0.119
		c0.053-0.684,0.08-1.25,0.08-1.699c0-1.395-0.311-2.469-0.93-3.219c-0.619-0.752-1.652-1.127-3.102-1.127
		C177.863,44.722,176.666,45.19,175.77,46.124z"/>
	<path fill="#FFFFFF" d="M202.994,62.978l-4.742-7.666l-4.74,7.666h-3.676l6.678-10.314l-6.559-10.273h3.674l4.664,7.469
		l4.582-7.469h3.715l-6.559,10.234l6.639,10.354H202.994z"/>
	<path fill="#FFFFFF" d="M227.215,42.39v20.588h-3.396v-2.094c-1.082,0.789-2.121,1.369-3.123,1.738c-1,0.367-2.08,0.553-3.24,0.553
		c-2.107,0-3.629-0.566-4.562-1.699c-0.936-1.133-1.404-3.068-1.404-5.809V42.39h3.518v12.764c0,1.344,0.119,2.371,0.355,3.082
		s0.605,1.199,1.107,1.463c0.5,0.264,1.211,0.395,2.133,0.395c1.344,0,3.082-0.514,5.217-1.541V42.39H227.215z"/>
	<path fill="#FFFFFF" d="M245.549,42.903c0.975,0.475,1.699,1.271,2.174,2.391c0.475,1.121,0.711,2.668,0.711,4.645v13.039h-3.002
		v-2.648c-1.793,1.977-3.939,2.965-6.441,2.965c-2.08,0-3.629-0.555-4.643-1.66c-1.014-1.107-1.521-2.502-1.521-4.189
		c0-1.949,0.605-3.482,1.818-4.602c1.211-1.121,2.949-1.68,5.215-1.68h5.256c0-1.713-0.139-2.996-0.414-3.854
		c-0.277-0.855-0.713-1.441-1.305-1.758c-0.594-0.316-1.43-0.475-2.51-0.475c-1.475,0-3.543,0.316-6.203,0.949l-0.594-2.332
		c2.557-1,5.072-1.502,7.549-1.502C243.271,42.192,244.574,42.431,245.549,42.903z M245.115,58.313v-4.662h-5.217
		c-1.447,0-2.469,0.35-3.061,1.047c-0.594,0.699-0.891,1.51-0.891,2.432c0,1.027,0.322,1.836,0.969,2.43
		c0.645,0.592,1.521,0.889,2.627,0.889C241.229,60.448,243.086,59.737,245.115,58.313z"/>
	<path fill="#FFFFFF" d="M255.902,31.366h3.398v31.611h-3.398V31.366z"/>
</g>
</svg>
