<?xml version="1.0" encoding="utf-8"?>
<!-- Generator: Adobe Illustrator 15.1.0, SVG Export Plug-In . SVG Version: 6.00 Build 0)  -->
<!DOCTYPE svg PUBLIC "-//W3C//DTD SVG 1.1//EN" "http://www.w3.org/Graphics/SVG/1.1/DTD/svg11.dtd">
<svg version="1.1" id="Botoes" xmlns="http://www.w3.org/2000/svg" xmlns:xlink="http://www.w3.org/1999/xlink" x="0px" y="0px"
	 width="290px" height="95px" viewBox="0 0 290 95" enable-background="new 0 0 290 95" xml:space="preserve">
<g>
	<path fill="#FFFFFF" d="M75.208,33.354h3.477v29.635h-3.477V33.354z"/>
	<path fill="#FFFFFF" d="M101.228,43.903c0.936,1.133,1.402,3.07,1.402,5.809v13.277h-3.398V50.345c0-1.344-0.117-2.365-0.355-3.062
		c-0.236-0.697-0.619-1.18-1.145-1.441c-0.527-0.264-1.252-0.396-2.174-0.396c-0.896,0-1.812,0.119-2.746,0.355
		c-0.936,0.238-2.01,0.66-3.221,1.266v15.924h-3.398V42.401h3.398v2.371c1.211-0.895,2.357-1.547,3.438-1.955
		s2.305-0.613,3.676-0.613C98.785,42.204,100.292,42.771,101.228,43.903z"/>
	<path fill="#FFFFFF" d="M120.806,62.87c-1.211,0.264-2.318,0.395-3.318,0.395c-2.635,0-4.479-0.691-5.533-2.074
		c-1.053-1.383-1.58-3.549-1.58-6.5v-9.799h-2.488v-2.49h2.488v-5.295h3.279v5.295h5.77v2.49h-5.77v9.838
		c0,1.529,0.152,2.721,0.455,3.576c0.303,0.857,0.791,1.463,1.461,1.818c0.672,0.355,1.588,0.533,2.748,0.533
		c0.395,0,1.066-0.053,2.014-0.158L120.806,62.87z"/>
	<path fill="#FFFFFF" d="M135.88,60.421c0.805-0.184,1.771-0.461,2.904-0.83l0.514,2.607c-1.291,0.5-2.41,0.869-3.357,1.107
		c-0.949,0.236-1.951,0.355-3.004,0.355c-2.766,0-4.973-0.869-6.619-2.609c-1.646-1.738-2.469-4.477-2.469-8.219
		c0-3.688,0.797-6.381,2.391-8.08s3.721-2.549,6.381-2.549c2.477,0,4.248,0.672,5.314,2.016s1.602,3.201,1.602,5.572
		c0,1.475-0.094,2.686-0.277,3.635l-12.012-0.039c0.131,2.766,0.725,4.676,1.777,5.729c1.053,1.055,2.477,1.58,4.268,1.58
		C134.214,60.696,135.078,60.604,135.88,60.421z M128.867,46.136c-0.895,0.936-1.422,2.523-1.58,4.762l9.127-0.119
		c0.053-0.684,0.08-1.25,0.08-1.699c0-1.395-0.311-2.469-0.93-3.219c-0.619-0.752-1.652-1.127-3.102-1.127
		C130.96,44.733,129.763,45.202,128.867,46.136z"/>
	<path fill="#FFFFFF" d="M156.289,45.524c-1.344,0-2.66,0.203-3.951,0.611c-1.291,0.41-2.41,0.955-3.357,1.641v15.213h-3.399V42.401
		h3.399v2.727c0.973-0.816,2.133-1.5,3.477-2.055c1.344-0.553,2.699-0.842,4.07-0.869L156.289,45.524z"/>
	<path fill="#FFFFFF" d="M160.596,57.417c0.738,0.869,1.752,1.588,3.043,2.154s2.543,0.85,3.754,0.85
		c1.238,0,2.258-0.322,3.062-0.969c0.803-0.645,1.205-1.441,1.205-2.391c0-0.711-0.23-1.291-0.691-1.738s-1.027-0.797-1.699-1.047
		s-1.588-0.533-2.746-0.85c-1.422-0.395-2.555-0.771-3.398-1.127s-1.566-0.875-2.174-1.561c-0.605-0.684-0.908-1.58-0.908-2.688
		c0-1.211,0.342-2.258,1.027-3.141s1.602-1.555,2.746-2.016c1.146-0.461,2.377-0.691,3.695-0.691c1.264,0,2.449,0.197,3.557,0.594
		c1.105,0.395,2.08,0.922,2.924,1.58l-1.027,2.332c-0.791-0.5-1.641-0.896-2.549-1.186c-0.908-0.291-1.799-0.436-2.668-0.436
		c-1.238,0-2.299,0.264-3.18,0.791c-0.883,0.527-1.324,1.225-1.324,2.094c0,0.764,0.355,1.33,1.066,1.699s1.844,0.738,3.398,1.105
		c1.502,0.369,2.727,0.738,3.674,1.107c0.949,0.369,1.766,0.961,2.451,1.777c0.684,0.816,1.027,1.91,1.027,3.279
		c0,1.951-0.68,3.504-2.035,4.664c-1.357,1.158-3.102,1.738-5.236,1.738c-1.607,0-3.193-0.33-4.762-0.988
		c-1.566-0.658-2.785-1.58-3.654-2.766L160.596,57.417z"/>
	<path fill="#FFFFFF" d="M191.002,60.421c0.805-0.184,1.771-0.461,2.904-0.83l0.514,2.607c-1.291,0.5-2.41,0.869-3.357,1.107
		c-0.949,0.236-1.951,0.355-3.004,0.355c-2.766,0-4.973-0.869-6.619-2.609c-1.646-1.738-2.469-4.477-2.469-8.219
		c0-3.688,0.797-6.381,2.391-8.08s3.721-2.549,6.381-2.549c2.477,0,4.248,0.672,5.314,2.016s1.602,3.201,1.602,5.572
		c0,1.475-0.094,2.686-0.277,3.635l-12.012-0.039c0.131,2.766,0.725,4.676,1.777,5.729c1.053,1.055,2.477,1.58,4.268,1.58
		C189.336,60.696,190.199,60.604,191.002,60.421z M183.988,46.136c-0.895,0.936-1.422,2.523-1.58,4.762l9.127-0.119
		c0.053-0.684,0.08-1.25,0.08-1.699c0-1.395-0.311-2.469-0.93-3.219c-0.619-0.752-1.652-1.127-3.102-1.127
		C186.082,44.733,184.885,45.202,183.988,46.136z"/>
	<path fill="#FFFFFF" d="M211.213,62.989l-4.742-7.666l-4.74,7.666h-3.676l6.678-10.314l-6.559-10.273h3.674l4.664,7.469
		l4.582-7.469h3.715l-6.559,10.234l6.639,10.354H211.213z"/>
</g>
</svg>
