<?xml version="1.0" encoding="utf-8"?>
<!-- Generator: Adobe Illustrator 15.1.0, SVG Export Plug-In . SVG Version: 6.00 Build 0)  -->
<!DOCTYPE svg PUBLIC "-//W3C//DTD SVG 1.1//EN" "http://www.w3.org/Graphics/SVG/1.1/DTD/svg11.dtd">
<svg version="1.1" id="Botoes" xmlns="http://www.w3.org/2000/svg" xmlns:xlink="http://www.w3.org/1999/xlink" x="0px" y="0px"
	 width="190px" height="95px" viewBox="0 0 190 95" enable-background="new 0 0 190 95" xml:space="preserve">
<g>
	<path fill="#FFFFFF" d="M45.929,59.949v3.004H28.425V33.318h3.438v26.631H45.929z"/>
	<path fill="#FFFFFF" d="M61.398,60.385c0.803-0.184,1.771-0.461,2.904-0.83l0.514,2.607c-1.291,0.5-2.41,0.869-3.359,1.107
		c-0.947,0.236-1.949,0.355-3.002,0.355c-2.767,0-4.973-0.869-6.619-2.609c-1.646-1.738-2.469-4.479-2.469-8.219
		c0-3.689,0.796-6.381,2.391-8.08c1.593-1.699,3.72-2.549,6.381-2.549c2.476,0,4.248,0.672,5.314,2.016
		c1.066,1.344,1.6,3.201,1.6,5.572c0,1.475-0.092,2.686-0.275,3.635l-12.013-0.039c0.132,2.766,0.724,4.676,1.778,5.729
		c1.053,1.055,2.476,1.58,4.268,1.58C59.732,60.66,60.594,60.568,61.398,60.385z M54.384,46.1c-0.896,0.936-1.422,2.523-1.58,4.762
		l9.127-0.119c0.053-0.684,0.079-1.25,0.079-1.697c0-1.396-0.31-2.471-0.929-3.221c-0.619-0.752-1.653-1.127-3.102-1.127
		C56.479,44.697,55.279,45.166,54.384,46.1z"/>
	<path fill="#FFFFFF" d="M70.625,57.381c0.736,0.869,1.751,1.588,3.042,2.154c1.29,0.566,2.542,0.85,3.754,0.85
		c1.237,0,2.259-0.322,3.062-0.969c0.804-0.645,1.205-1.441,1.205-2.391c0-0.711-0.23-1.291-0.691-1.738s-1.027-0.797-1.699-1.047
		c-0.671-0.25-1.586-0.533-2.746-0.85c-1.422-0.396-2.555-0.771-3.397-1.127c-0.842-0.357-1.567-0.875-2.173-1.562
		c-0.607-0.684-0.909-1.58-0.909-2.688c0-1.211,0.342-2.258,1.027-3.141s1.601-1.555,2.746-2.016
		c1.146-0.461,2.377-0.691,3.694-0.691c1.265,0,2.45,0.197,3.557,0.594c1.105,0.395,2.08,0.922,2.924,1.58l-1.027,2.332
		c-0.791-0.5-1.64-0.896-2.549-1.186c-0.908-0.291-1.798-0.436-2.667-0.436c-1.239,0-2.299,0.264-3.181,0.791
		c-0.883,0.525-1.324,1.225-1.324,2.094c0,0.764,0.355,1.33,1.067,1.699c0.711,0.369,1.843,0.736,3.397,1.104
		c1.502,0.369,2.727,0.738,3.676,1.107c0.947,0.369,1.764,0.961,2.449,1.777c0.684,0.816,1.027,1.91,1.027,3.279
		c0,1.951-0.68,3.504-2.035,4.664c-1.357,1.158-3.102,1.738-5.235,1.738c-1.606,0-3.194-0.33-4.761-0.988
		c-1.568-0.658-2.786-1.58-3.656-2.766L70.625,57.381z"/>
	<path fill="#FFFFFF" d="M104.98,44.639c1.437,1.646,2.153,4.26,2.153,7.844c0,3.793-0.836,6.584-2.51,8.377
		c-1.672,1.791-3.983,2.688-6.934,2.688c-1.133,0-2.346-0.111-3.637-0.336c-1.292-0.225-2.488-0.533-3.596-0.93v-0.039l0.041-30.898
		h3.398v12.723c1.657-1.264,3.489-1.896,5.491-1.896C101.682,42.168,103.544,42.992,104.98,44.639z M102.195,58.982
		c1.134-1.121,1.699-3.154,1.699-6.105c0-2.924-0.5-4.984-1.502-6.184c-1.002-1.201-2.252-1.799-3.755-1.799
		c-0.735,0-1.555,0.125-2.448,0.375c-0.896,0.252-1.66,0.561-2.291,0.93v14.146c1.131,0.211,2.237,0.312,3.317,0.312
		C99.402,60.66,101.062,60.102,102.195,58.982z"/>
	<path fill="#FFFFFF" d="M113.179,37.25c-0.446-0.436-0.672-0.969-0.672-1.602c0-0.605,0.22-1.119,0.652-1.541
		c0.436-0.42,0.982-0.633,1.641-0.633c0.634,0,1.166,0.213,1.601,0.633c0.437,0.422,0.651,0.949,0.651,1.58
		c0,0.633-0.217,1.16-0.651,1.582S115.434,37.9,114.8,37.9C114.167,37.9,113.628,37.684,113.179,37.25z M113.062,42.365h3.397
		v20.588h-3.397V42.365z"/>
	<path fill="#FFFFFF" d="M134.714,42.879c0.976,0.475,1.699,1.271,2.174,2.391c0.474,1.121,0.712,2.668,0.712,4.645v13.039h-3.005
		v-2.646c-1.791,1.977-3.938,2.965-6.438,2.965c-2.082,0-3.63-0.555-4.646-1.66c-1.014-1.107-1.52-2.502-1.52-4.189
		c0-1.949,0.605-3.482,1.816-4.602c1.211-1.121,2.951-1.68,5.217-1.68h5.254c0-1.713-0.137-2.996-0.414-3.855
		c-0.277-0.854-0.711-1.439-1.305-1.758c-0.592-0.314-1.428-0.475-2.508-0.475c-1.477,0-3.543,0.316-6.205,0.949l-0.592-2.332
		c2.555-1,5.07-1.502,7.547-1.502C132.436,42.168,133.741,42.406,134.714,42.879z M134.279,58.289v-4.662h-5.215
		c-1.448,0-2.47,0.35-3.062,1.047c-0.592,0.699-0.89,1.51-0.89,2.432c0,1.027,0.322,1.836,0.97,2.43
		c0.645,0.594,1.52,0.891,2.627,0.891C130.395,60.424,132.251,59.713,134.279,58.289z"/>
	<path fill="#FFFFFF" d="M160.143,43.867c0.935,1.133,1.401,3.07,1.401,5.809v13.277h-3.397V50.309c0-1.344-0.119-2.365-0.354-3.062
		c-0.238-0.697-0.619-1.18-1.146-1.441c-0.527-0.264-1.252-0.396-2.174-0.396c-0.895,0-1.811,0.119-2.746,0.355
		c-0.936,0.238-2.008,0.66-3.219,1.266v15.924h-3.398V42.365h3.398v2.371c1.211-0.895,2.354-1.547,3.438-1.955
		c1.08-0.406,2.305-0.611,3.674-0.611C157.698,42.168,159.208,42.734,160.143,43.867z"/>
</g>
</svg>
