<?xml version="1.0" encoding="utf-8"?>
<!-- Generator: Adobe Illustrator 15.1.0, SVG Export Plug-In . SVG Version: 6.00 Build 0)  -->
<!DOCTYPE svg PUBLIC "-//W3C//DTD SVG 1.1//EN" "http://www.w3.org/Graphics/SVG/1.1/DTD/svg11.dtd">
<svg version="1.1" id="Botoes" xmlns="http://www.w3.org/2000/svg" xmlns:xlink="http://www.w3.org/1999/xlink" x="0px" y="0px"
	 width="190px" height="95px" viewBox="0 0 190 95" enable-background="new 0 0 190 95" xml:space="preserve">
<g>
	<path fill="#FFFFFF" d="M79.356,62.954l-2.33-24.262l-6.955,20.469h-3.557L59.52,38.692l-2.252,24.262h-3.477l3.082-29.793h3.674
		l7.706,22.482l7.705-22.482h3.714l3.16,29.793H79.356z"/>
	<path fill="#FFFFFF" d="M100.772,42.88c0.975,0.475,1.698,1.271,2.174,2.391c0.476,1.121,0.711,2.668,0.711,4.646v13.039h-3.002
		v-2.647c-1.793,1.977-3.938,2.965-6.44,2.965c-2.081,0-3.629-0.555-4.644-1.66c-1.014-1.107-1.521-2.502-1.521-4.189
		c0-1.949,0.605-3.482,1.818-4.602c1.211-1.121,2.949-1.68,5.216-1.68h5.256c0-1.713-0.14-2.996-0.414-3.854
		c-0.277-0.854-0.713-1.44-1.306-1.759c-0.594-0.315-1.43-0.475-2.51-0.475c-1.476,0-3.543,0.316-6.203,0.949l-0.594-2.332
		c2.557-1,5.071-1.502,7.549-1.502C98.495,42.169,99.799,42.407,100.772,42.88z M100.34,58.29v-4.662h-5.218
		c-1.446,0-2.469,0.35-3.061,1.047c-0.594,0.699-0.891,1.51-0.891,2.432c0,1.027,0.322,1.836,0.969,2.431
		c0.645,0.592,1.521,0.89,2.626,0.89C96.452,60.425,98.309,59.714,100.34,58.29z"/>
	<path fill="#FFFFFF" d="M111.127,31.343h3.397v31.611h-3.397V31.343z"/>
	<path fill="#FFFFFF" d="M132.521,60.386c0.804-0.184,1.771-0.461,2.904-0.83l0.515,2.607c-1.291,0.5-2.41,0.869-3.358,1.107
		c-0.947,0.235-1.949,0.354-3.002,0.354c-2.77,0-4.974-0.869-6.619-2.608c-1.646-1.738-2.472-4.478-2.472-8.22
		c0-3.688,0.797-6.381,2.392-8.079c1.594-1.699,3.721-2.55,6.383-2.55c2.475,0,4.248,0.673,5.313,2.017s1.601,3.201,1.601,5.572
		c0,1.475-0.092,2.686-0.277,3.635l-12.012-0.039c0.133,2.766,0.725,4.676,1.779,5.729c1.053,1.055,2.475,1.58,4.268,1.58
		C130.856,60.661,131.717,60.569,132.521,60.386z M125.51,46.101c-0.896,0.937-1.424,2.523-1.58,4.762l9.127-0.118
		c0.053-0.685,0.078-1.25,0.078-1.699c0-1.396-0.31-2.469-0.928-3.219c-0.619-0.752-1.654-1.127-3.104-1.127
		C127.602,44.698,126.403,45.167,125.51,46.101z"/>
</g>
</svg>
