<?xml version="1.0" encoding="utf-8"?>
<!-- Generator: Adobe Illustrator 15.1.0, SVG Export Plug-In . SVG Version: 6.00 Build 0)  -->
<!DOCTYPE svg PUBLIC "-//W3C//DTD SVG 1.1//EN" "http://www.w3.org/Graphics/SVG/1.1/DTD/svg11.dtd">
<svg version="1.1" id="Botoes" xmlns="http://www.w3.org/2000/svg" xmlns:xlink="http://www.w3.org/1999/xlink" x="0px" y="0px"
	 width="190px" height="95px" viewBox="0 0 190 95" enable-background="new 0 0 190 95" xml:space="preserve">
<g>
	<path fill="#FFFFFF" d="M40.95,33.331v29.635h-3.278l-13.83-23.787l-0.078,23.787h-3.279V33.331h3.397l13.79,23.746V33.331H40.95z"
		/>
	<path fill="#FFFFFF" d="M59.028,60.397c0.803-0.184,1.771-0.461,2.904-0.83l0.514,2.607c-1.291,0.5-2.41,0.869-3.358,1.107
		c-0.948,0.235-1.949,0.354-3.003,0.354c-2.768,0-4.974-0.869-6.618-2.608c-1.646-1.738-2.471-4.478-2.471-8.219
		c0-3.689,0.797-6.382,2.392-8.08c1.593-1.699,3.72-2.55,6.382-2.55c2.475,0,4.247,0.673,5.314,2.017
		c1.065,1.344,1.6,3.201,1.6,5.572c0,1.475-0.092,2.686-0.276,3.635l-12.013-0.039c0.132,2.766,0.725,4.676,1.779,5.729
		c1.053,1.055,2.475,1.58,4.267,1.58C57.361,60.673,58.224,60.581,59.028,60.397z M52.015,46.112
		c-0.896,0.937-1.423,2.523-1.581,4.762l9.128-0.118c0.053-0.685,0.078-1.25,0.078-1.699c0-1.396-0.31-2.469-0.928-3.219
		c-0.619-0.752-1.654-1.127-3.103-1.127C54.108,44.71,52.909,45.179,52.015,46.112z"/>
	<path fill="#FFFFFF" d="M84.415,42.378v20.588h-3.397v-2.094c-1.08,0.789-2.121,1.369-3.121,1.738
		c-1.002,0.367-2.082,0.553-3.24,0.553c-2.106,0-3.629-0.566-4.563-1.699c-0.936-1.133-1.402-3.068-1.402-5.809V42.378h3.517v12.764
		c0,1.344,0.118,2.371,0.355,3.082s0.606,1.199,1.106,1.463s1.211,0.395,2.134,0.395c1.344,0,3.082-0.514,5.216-1.541V42.379
		L84.415,42.378L84.415,42.378z"/>
	<path fill="#FFFFFF" d="M102.592,62.847c-1.211,0.264-2.318,0.395-3.318,0.395c-2.635,0-4.479-0.69-5.533-2.073
		c-1.053-1.384-1.58-3.55-1.58-6.501v-9.799h-2.487v-2.489h2.487v-5.296h3.279v5.296h5.77v2.489h-5.77v9.838
		c0,1.529,0.152,2.722,0.455,3.576c0.303,0.857,0.791,1.463,1.461,1.818c0.672,0.355,1.588,0.533,2.748,0.533
		c0.395,0,1.066-0.053,2.014-0.158L102.592,62.847z"/>
	<path fill="#FFFFFF" d="M117.844,45.501c-1.345,0-2.66,0.203-3.951,0.611c-1.291,0.41-2.41,0.955-3.357,1.641v15.213h-3.398V42.378
		h3.398v2.727c0.973-0.816,2.133-1.5,3.477-2.055c1.344-0.553,2.699-0.842,4.07-0.869L117.844,45.501z"/>
	<path fill="#FFFFFF" d="M123.276,61.028c-1.437-1.686-2.154-4.41-2.154-8.178c0-3.715,0.726-6.422,2.175-8.121
		c1.448-1.699,3.7-2.549,6.758-2.549c3.055,0,5.301,0.844,6.736,2.529c1.434,1.686,2.153,4.387,2.153,8.1
		c0,3.715-0.731,6.436-2.192,8.16c-1.464,1.727-3.734,2.588-6.816,2.588C126.93,63.558,124.713,62.716,123.276,61.028z
		 M134.182,58.876c0.881-1.252,1.322-3.379,1.322-6.381c0-1.949-0.178-3.479-0.533-4.584c-0.354-1.107-0.914-1.902-1.678-2.391
		c-0.766-0.488-1.805-0.73-3.123-0.73c-1.369,0-2.463,0.262-3.279,0.789c-0.815,0.527-1.41,1.377-1.776,2.549
		c-0.369,1.172-0.554,2.76-0.554,4.762c0,1.975,0.185,3.537,0.554,4.682c0.366,1.146,0.929,1.963,1.681,2.451
		c0.75,0.486,1.758,0.73,3.02,0.73C131.846,60.753,133.301,60.128,134.182,58.876z"/>
	<path fill="#FFFFFF" d="M144.987,37.263c-0.447-0.436-0.673-0.969-0.673-1.602c0-0.605,0.22-1.119,0.652-1.541
		c0.437-0.42,0.982-0.633,1.641-0.633c0.634,0,1.166,0.213,1.602,0.633c0.436,0.422,0.651,0.949,0.651,1.58
		c0,0.633-0.218,1.16-0.651,1.582c-0.436,0.422-0.968,0.631-1.602,0.631C145.975,37.913,145.436,37.696,144.987,37.263z
		 M144.87,42.378h3.397v20.588h-3.397V42.378z"/>
	<path fill="#FFFFFF" d="M155.221,57.394c0.736,0.869,1.752,1.588,3.043,2.154c1.289,0.566,2.541,0.85,3.754,0.85
		c1.236,0,2.259-0.322,3.062-0.969c0.803-0.645,1.205-1.441,1.205-2.391c0-0.711-0.232-1.291-0.691-1.738
		c-0.463-0.447-1.026-0.797-1.699-1.047c-0.672-0.25-1.588-0.533-2.746-0.85c-1.424-0.396-2.557-0.771-3.396-1.127
		c-0.845-0.355-1.568-0.875-2.175-1.562c-0.604-0.685-0.907-1.58-0.907-2.688c0-1.211,0.342-2.258,1.026-3.141
		s1.601-1.555,2.746-2.016s2.377-0.691,3.692-0.691c1.267,0,2.451,0.197,3.558,0.594c1.106,0.395,2.079,0.922,2.924,1.58
		l-1.026,2.332c-0.789-0.5-1.64-0.896-2.549-1.186c-0.908-0.291-1.798-0.436-2.666-0.436c-1.238,0-2.3,0.264-3.183,0.791
		c-0.884,0.526-1.324,1.225-1.324,2.094c0,0.764,0.354,1.33,1.067,1.699c0.711,0.368,1.845,0.737,3.396,1.104
		c1.502,0.369,2.727,0.738,3.676,1.107s1.764,0.961,2.449,1.777s1.027,1.91,1.027,3.279c0,1.951-0.678,3.504-2.035,4.664
		c-1.355,1.158-3.102,1.738-5.234,1.738c-1.607,0-3.195-0.33-4.762-0.988c-1.568-0.658-2.785-1.58-3.654-2.766L155.221,57.394z"/>
</g>
</svg>
