<?xml version="1.0" encoding="utf-8"?>
<!-- Generator: Adobe Illustrator 15.1.0, SVG Export Plug-In . SVG Version: 6.00 Build 0)  -->
<!DOCTYPE svg PUBLIC "-//W3C//DTD SVG 1.1//EN" "http://www.w3.org/Graphics/SVG/1.1/DTD/svg11.dtd">
<svg version="1.1" id="Botoes" xmlns="http://www.w3.org/2000/svg" xmlns:xlink="http://www.w3.org/1999/xlink" x="0px" y="0px"
	 width="290px" height="95px" viewBox="0 0 290 95" enable-background="new 0 0 290 95" xml:space="preserve">
<g>
	<path fill="#FFFFFF" d="M66.735,28.739v29.635h-3.279l-13.83-23.787l-0.078,23.787h-3.281V28.739h3.398l13.791,23.746V28.739
		H66.735z"/>
	<path fill="#FFFFFF" d="M74.934,56.437c-1.436-1.686-2.154-4.41-2.154-8.178c0-3.715,0.725-6.422,2.174-8.121
		s3.701-2.549,6.758-2.549c3.055,0,5.301,0.844,6.736,2.529s2.154,4.387,2.154,8.1c0,3.715-0.732,6.436-2.193,8.16
		c-1.463,1.727-3.734,2.588-6.816,2.588C78.588,58.966,76.37,58.124,74.934,56.437z M85.84,54.284
		c0.881-1.252,1.322-3.379,1.322-6.381c0-1.949-0.178-3.479-0.533-4.584c-0.355-1.107-0.914-1.902-1.678-2.391
		c-0.766-0.488-1.805-0.73-3.123-0.73c-1.369,0-2.463,0.262-3.279,0.789s-1.41,1.377-1.777,2.549
		c-0.369,1.172-0.553,2.76-0.553,4.762c0,1.975,0.184,3.537,0.553,4.682c0.367,1.146,0.928,1.963,1.68,2.451
		c0.75,0.486,1.758,0.73,3.021,0.73C83.502,56.161,84.958,55.536,85.84,54.284z"/>
	<path fill="#FFFFFF" d="M111.641,39.288c0.936,1.133,1.402,3.07,1.402,5.809v13.277h-3.398V45.729c0-1.344-0.117-2.365-0.355-3.062
		c-0.236-0.697-0.619-1.18-1.145-1.441c-0.527-0.264-1.252-0.396-2.174-0.396c-0.896,0-1.812,0.119-2.746,0.355
		c-0.936,0.238-2.01,0.66-3.221,1.266v15.924h-3.398V37.786h3.398v2.371c1.211-0.895,2.357-1.547,3.438-1.955
		s2.305-0.613,3.676-0.613C109.198,37.589,110.706,38.155,111.641,39.288z"/>
	<path fill="#FFFFFF" d="M149.908,45.394c0.791,1.252,1.186,2.838,1.186,4.762c0,2.791-0.777,4.859-2.332,6.203
		s-3.923,2.016-7.111,2.016h-11.184V28.739h9.445c3.424,0,5.887,0.592,7.388,1.777c1.502,1.186,2.252,3.135,2.252,5.848
		c0,1.607-0.277,2.912-0.83,3.912c-0.553,1.002-1.461,1.777-2.726,2.332C147.814,43.214,149.117,44.142,149.908,45.394z
		 M133.866,31.583v9.879h6.361c2.24,0,3.814-0.369,4.723-1.107c0.908-0.736,1.363-1.988,1.363-3.754
		c0-1.791-0.475-3.074-1.422-3.852c-0.949-0.777-2.621-1.166-5.02-1.166H133.866z M147.775,49.997c0-1.818-0.561-3.207-1.679-4.17
		c-1.121-0.961-2.957-1.441-5.512-1.441h-6.719V55.37l7.785-0.039C145.733,55.331,147.775,53.554,147.775,49.997z"/>
	<path fill="#FFFFFF" d="M157.889,32.671c-0.447-0.436-0.672-0.969-0.672-1.602c0-0.605,0.219-1.119,0.652-1.541
		c0.436-0.42,0.982-0.633,1.641-0.633c0.633,0,1.166,0.213,1.6,0.633c0.436,0.422,0.652,0.949,0.652,1.58
		c0,0.633-0.217,1.16-0.652,1.582c-0.434,0.422-0.967,0.631-1.6,0.631S158.338,33.104,157.889,32.671z M157.771,37.786h3.398v20.588
		h-3.398V37.786z"/>
	<path fill="#FFFFFF" d="M183.633,39.288c0.934,1.133,1.402,3.07,1.402,5.809v13.277h-3.398V45.729c0-1.344-0.119-2.365-0.355-3.062
		c-0.238-0.697-0.619-1.18-1.146-1.441c-0.527-0.264-1.252-0.396-2.174-0.396c-0.895,0-1.811,0.119-2.746,0.355
		c-0.936,0.238-2.008,0.66-3.219,1.266v15.924h-3.398V37.786h3.398v2.371c1.211-0.895,2.355-1.547,3.438-1.955
		c1.08-0.408,2.305-0.613,3.674-0.613C181.188,37.589,182.697,38.155,183.633,39.288z"/>
	<path fill="#FFFFFF" d="M203.367,38.3c0.975,0.475,1.699,1.271,2.174,2.391c0.475,1.121,0.711,2.668,0.711,4.645v13.039h-3.002
		v-2.648c-1.793,1.977-3.939,2.965-6.441,2.965c-2.08,0-3.629-0.555-4.643-1.66c-1.014-1.107-1.521-2.502-1.521-4.189
		c0-1.949,0.605-3.482,1.818-4.602c1.211-1.121,2.949-1.68,5.215-1.68h5.256c0-1.713-0.139-2.996-0.414-3.854
		c-0.277-0.855-0.713-1.441-1.305-1.758c-0.594-0.316-1.43-0.475-2.51-0.475c-1.475,0-3.543,0.316-6.203,0.949l-0.594-2.332
		c2.557-1,5.072-1.502,7.549-1.502C201.09,37.589,202.393,37.827,203.367,38.3z M202.934,53.71v-4.662h-5.217
		c-1.447,0-2.469,0.35-3.061,1.047c-0.594,0.699-0.891,1.51-0.891,2.432c0,1.027,0.322,1.836,0.969,2.43
		c0.645,0.592,1.521,0.889,2.627,0.889C199.047,55.845,200.904,55.134,202.934,53.71z"/>
	<path fill="#FFFFFF" d="M224.469,40.909c-1.344,0-2.662,0.203-3.951,0.611c-1.291,0.41-2.41,0.955-3.359,1.641v15.213h-3.398
		V37.786h3.398v2.727c0.975-0.816,2.135-1.5,3.477-2.055c1.344-0.553,2.701-0.842,4.07-0.869L224.469,40.909z"/>
	<path fill="#FFFFFF" d="M243.83,37.786l-9.602,28.49h-3.359l2.648-7.902h-0.316l-6.955-20.588h3.715l5.057,16.912l5.336-16.912
		H243.83z"/>
</g>
</svg>
