<?xml version="1.0" encoding="utf-8"?>
<!-- Generator: Adobe Illustrator 15.1.0, SVG Export Plug-In . SVG Version: 6.00 Build 0)  -->
<!DOCTYPE svg PUBLIC "-//W3C//DTD SVG 1.1//EN" "http://www.w3.org/Graphics/SVG/1.1/DTD/svg11.dtd">
<svg version="1.1" id="Botoes" xmlns="http://www.w3.org/2000/svg" xmlns:xlink="http://www.w3.org/1999/xlink" x="0px" y="0px"
	 width="290px" height="95px" viewBox="0 0 290 95" enable-background="new 0 0 290 95" xml:space="preserve">
<g>
	<path fill="#FFFFFF" d="M27.616,59.876c-1.936-2.463-2.904-6.395-2.904-11.795c0-5.348,0.969-9.24,2.904-11.678
		c1.938-2.436,4.934-3.654,8.99-3.654c4.029,0,7.014,1.219,8.949,3.654c1.936,2.438,2.904,6.33,2.904,11.678
		c0,5.4-0.969,9.332-2.904,11.795s-4.92,3.693-8.949,3.693C32.549,63.569,29.553,62.339,27.616,59.876z M41.348,59.343
		c1.211-0.844,2.105-2.18,2.686-4.012c0.58-1.83,0.869-4.248,0.869-7.25c0-3.004-0.289-5.428-0.869-7.271s-1.475-3.188-2.686-4.029
		c-1.213-0.844-2.793-1.266-4.742-1.266s-3.537,0.43-4.762,1.285s-2.127,2.199-2.707,4.029c-0.58,1.832-0.869,4.248-0.869,7.252
		c0,3.002,0.289,5.42,0.869,7.25c0.58,1.832,1.482,3.168,2.707,4.012c1.225,0.842,2.812,1.264,4.762,1.264
		S40.135,60.185,41.348,59.343z"/>
	<path fill="#FFFFFF" d="M65.885,62.858c-1.213,0.264-2.318,0.395-3.32,0.395c-2.635,0-4.479-0.691-5.531-2.074
		c-1.055-1.383-1.58-3.549-1.58-6.5V44.88h-2.49v-2.49h2.49v-5.295h3.279v5.295H64.5v2.49h-5.768v9.838
		c0,1.529,0.15,2.721,0.453,3.576c0.303,0.857,0.791,1.463,1.463,1.818s1.586,0.533,2.746,0.533c0.395,0,1.066-0.053,2.016-0.158
		L65.885,62.858z"/>
	<path fill="#FFFFFF" d="M85.344,43.892c0.936,1.133,1.404,3.07,1.404,5.809v13.277H83.35V50.333c0-1.344-0.119-2.365-0.355-3.062
		c-0.238-0.697-0.619-1.18-1.146-1.441c-0.527-0.264-1.252-0.396-2.174-0.396c-0.895,0-1.805,0.119-2.727,0.355
		c-0.922,0.238-1.975,0.646-3.16,1.225v15.965h-3.398V31.366h3.398v13.355c1.158-0.869,2.277-1.508,3.357-1.916
		s2.305-0.613,3.676-0.613C82.901,42.192,84.409,42.759,85.344,43.892z"/>
	<path fill="#FFFFFF" d="M104.786,60.409c0.803-0.184,1.771-0.461,2.904-0.83l0.514,2.607c-1.291,0.5-2.41,0.869-3.359,1.107
		c-0.947,0.236-1.949,0.355-3.002,0.355c-2.768,0-4.973-0.869-6.619-2.609c-1.646-1.738-2.471-4.477-2.471-8.219
		c0-3.688,0.797-6.381,2.391-8.08s3.721-2.549,6.383-2.549c2.475,0,4.248,0.672,5.314,2.016s1.6,3.201,1.6,5.572
		c0,1.475-0.092,2.686-0.277,3.635l-12.012-0.039c0.133,2.766,0.725,4.676,1.779,5.729c1.053,1.055,2.475,1.58,4.268,1.58
		C103.12,60.685,103.981,60.593,104.786,60.409z M97.772,46.124c-0.896,0.936-1.424,2.523-1.58,4.762l9.127-0.119
		c0.053-0.684,0.078-1.25,0.078-1.699c0-1.395-0.309-2.469-0.928-3.219c-0.619-0.752-1.654-1.127-3.102-1.127
		C99.866,44.722,98.667,45.19,97.772,46.124z"/>
	<path fill="#FFFFFF" d="M125.194,45.513c-1.344,0-2.662,0.203-3.951,0.611c-1.291,0.41-2.41,0.955-3.359,1.641v15.213h-3.398V42.39
		h3.398v2.727c0.975-0.816,2.135-1.5,3.477-2.055c1.344-0.553,2.701-0.842,4.07-0.869L125.194,45.513z"/>
	<path fill="#FFFFFF" d="M160.676,61.356c-1.818,0.844-3.34,1.416-4.564,1.719s-2.562,0.455-4.01,0.455
		c-4.559,0-7.863-1.225-9.917-3.674c-2.055-2.451-3.082-6.322-3.082-11.617c0-5.375,1.014-9.299,3.043-11.775
		c2.027-2.477,5.187-3.715,9.482-3.715c1.502,0,2.918,0.164,4.248,0.494s2.693,0.877,4.09,1.641l-0.869,2.725
		c-1.318-0.684-2.496-1.184-3.537-1.5s-2.26-0.475-3.654-0.475c-2.188,0-3.951,0.428-5.295,1.283
		c-1.343,0.857-2.332,2.207-2.964,4.051c-0.631,1.844-0.947,4.281-0.947,7.311c0,2.924,0.303,5.256,0.908,6.994
		s1.58,3.016,2.923,3.832c1.344,0.816,3.162,1.225,5.453,1.225c1.922,0,3.754-0.303,5.492-0.908v-8.812h-6.717v-2.924h9.918V61.356z
		"/>
	<path fill="#FFFFFF" d="M177.963,60.409c0.803-0.184,1.771-0.461,2.904-0.83l0.514,2.607c-1.291,0.5-2.41,0.869-3.359,1.107
		c-0.947,0.236-1.949,0.355-3.002,0.355c-2.768,0-4.973-0.869-6.619-2.609c-1.646-1.738-2.471-4.477-2.471-8.219
		c0-3.688,0.797-6.381,2.391-8.08s3.721-2.549,6.383-2.549c2.475,0,4.248,0.672,5.314,2.016s1.6,3.201,1.6,5.572
		c0,1.475-0.092,2.686-0.277,3.635l-12.012-0.039c0.133,2.766,0.725,4.676,1.779,5.729c1.053,1.055,2.475,1.58,4.268,1.58
		C176.297,60.685,177.158,60.593,177.963,60.409z M170.949,46.124c-0.896,0.936-1.424,2.523-1.58,4.762l9.127-0.119
		c0.053-0.684,0.078-1.25,0.078-1.699c0-1.395-0.309-2.469-0.928-3.219c-0.619-0.752-1.654-1.127-3.102-1.127
		C173.043,44.722,171.844,45.19,170.949,46.124z"/>
	<path fill="#FFFFFF" d="M202.697,43.892c0.936,1.133,1.402,3.07,1.402,5.809v13.277h-3.398V50.333c0-1.344-0.117-2.365-0.355-3.062
		c-0.236-0.697-0.619-1.18-1.145-1.441c-0.527-0.264-1.252-0.396-2.174-0.396c-0.896,0-1.812,0.119-2.746,0.355
		c-0.936,0.238-2.01,0.66-3.221,1.266v15.924h-3.398V42.39h3.398v2.371c1.211-0.895,2.357-1.547,3.438-1.955
		s2.305-0.613,3.676-0.613C200.254,42.192,201.762,42.759,202.697,43.892z"/>
	<path fill="#FFFFFF" d="M226.74,62.384c-1.316,0.369-2.713,0.658-4.188,0.869c-1.477,0.211-2.779,0.316-3.912,0.316
		c-5.689,0-8.535-3.463-8.535-10.393c0-3.793,0.811-6.604,2.43-8.436c1.621-1.83,3.854-2.746,6.697-2.746
		c1.186,0,2.516,0.211,3.992,0.633V31.366h3.477L226.74,62.384z M214.867,59.104c1.014,1.133,2.455,1.699,4.326,1.699
		c1.027,0,2.371-0.172,4.031-0.514V45.157c-1.16-0.291-2.254-0.436-3.281-0.436c-2.08,0-3.701,0.646-4.859,1.936
		c-1.16,1.291-1.738,3.465-1.738,6.52C213.346,55.997,213.852,57.972,214.867,59.104z"/>
	<path fill="#FFFFFF" d="M244.738,60.409c0.805-0.184,1.771-0.461,2.904-0.83l0.514,2.607c-1.291,0.5-2.41,0.869-3.357,1.107
		c-0.949,0.236-1.951,0.355-3.004,0.355c-2.766,0-4.973-0.869-6.619-2.609c-1.646-1.738-2.469-4.477-2.469-8.219
		c0-3.688,0.797-6.381,2.391-8.08s3.721-2.549,6.381-2.549c2.477,0,4.248,0.672,5.314,2.016s1.602,3.201,1.602,5.572
		c0,1.475-0.094,2.686-0.277,3.635l-12.012-0.039c0.131,2.766,0.725,4.676,1.777,5.729c1.053,1.055,2.477,1.58,4.268,1.58
		C243.072,60.685,243.936,60.593,244.738,60.409z M237.725,46.124c-0.895,0.936-1.422,2.523-1.58,4.762l9.127-0.119
		c0.053-0.684,0.08-1.25,0.08-1.699c0-1.395-0.311-2.469-0.93-3.219c-0.619-0.752-1.652-1.127-3.102-1.127
		C239.818,44.722,238.621,45.19,237.725,46.124z"/>
	<path fill="#FFFFFF" d="M265.146,45.513c-1.344,0-2.66,0.203-3.951,0.611c-1.291,0.41-2.41,0.955-3.357,1.641v15.213h-3.398V42.39
		h3.398v2.727c0.973-0.816,2.133-1.5,3.477-2.055c1.344-0.553,2.699-0.842,4.07-0.869L265.146,45.513z"/>
</g>
</svg>
