<?xml version="1.0" encoding="utf-8"?>
<!-- Generator: Adobe Illustrator 15.1.0, SVG Export Plug-In . SVG Version: 6.00 Build 0)  -->
<!DOCTYPE svg PUBLIC "-//W3C//DTD SVG 1.1//EN" "http://www.w3.org/Graphics/SVG/1.1/DTD/svg11.dtd">
<svg version="1.1" id="Botoes" xmlns="http://www.w3.org/2000/svg" xmlns:xlink="http://www.w3.org/1999/xlink" x="0px" y="0px"
	 width="320px" height="95px" viewBox="0 0 320 95" enable-background="new 0 0 320 95" xml:space="preserve">
<g>
	<path fill="#FFFFFF" d="M72.953,67.267l0.632,2.488c-1.396,0.657-2.792,0.987-4.188,0.987c-1.95,0-3.563-0.642-4.84-1.916
		c-1.278-1.276-2.048-3.062-2.312-5.354c-3.398-0.369-5.907-1.791-7.527-4.269c-1.62-2.478-2.43-6.188-2.43-11.144
		c0-5.347,0.968-9.239,2.904-11.677s4.933-3.654,8.989-3.654c4.031,0,7.014,1.219,8.95,3.654c1.936,2.438,2.904,6.33,2.904,11.677
		c0,5.109-0.863,8.904-2.588,11.379c-1.726,2.478-4.38,3.834-7.962,4.07c0.184,1.449,0.645,2.562,1.383,3.338
		c0.737,0.777,1.672,1.166,2.806,1.166C70.701,68.017,71.792,67.767,72.953,67.267z M56.712,55.313
		c0.579,1.832,1.481,3.168,2.707,4.012c1.225,0.842,2.812,1.264,4.761,1.264c1.949,0,3.53-0.422,4.742-1.264
		c1.211-0.844,2.107-2.18,2.687-4.012c0.579-1.83,0.869-4.248,0.869-7.25c0-3.004-0.29-5.428-0.869-7.271
		c-0.58-1.844-1.476-3.188-2.687-4.029c-1.212-0.844-2.792-1.266-4.742-1.266c-1.95,0-3.536,0.43-4.761,1.285
		s-2.127,2.199-2.707,4.029c-0.58,1.832-0.87,4.248-0.87,7.252C55.843,51.065,56.133,53.483,56.712,55.313z"/>
	<path fill="#FFFFFF" d="M98.478,42.372V62.96H95.08v-2.094c-1.081,0.789-2.121,1.369-3.122,1.738
		c-1.001,0.367-2.081,0.553-3.24,0.553c-2.107,0-3.629-0.566-4.563-1.699c-0.936-1.133-1.403-3.068-1.403-5.809V42.372h3.517v12.764
		c0,1.344,0.119,2.371,0.355,3.082c0.237,0.711,0.606,1.199,1.106,1.463c0.5,0.265,1.211,0.396,2.134,0.396
		c1.344,0,3.082-0.516,5.216-1.541V42.374h3.398V42.372z"/>
	<path fill="#FFFFFF" d="M116.516,60.392c0.803-0.185,1.771-0.461,2.904-0.83l0.514,2.607c-1.291,0.5-2.41,0.868-3.359,1.104
		c-0.948,0.236-1.95,0.355-3.003,0.355c-2.766,0-4.973-0.869-6.619-2.609c-1.646-1.735-2.469-4.477-2.469-8.219
		c0-3.688,0.796-6.38,2.391-8.08c1.593-1.699,3.72-2.549,6.381-2.549c2.476,0,4.248,0.672,5.314,2.016
		c1.066,1.346,1.6,3.201,1.6,5.572c0,1.475-0.092,2.687-0.276,3.635l-12.012-0.039c0.131,2.769,0.724,4.679,1.778,5.73
		c1.053,1.055,2.476,1.58,4.267,1.58C114.849,60.667,115.711,60.575,116.516,60.392z M109.501,46.106
		c-0.896,0.937-1.422,2.524-1.581,4.762l9.127-0.119c0.053-0.684,0.079-1.25,0.079-1.699c0-1.395-0.31-2.469-0.928-3.219
		c-0.62-0.752-1.654-1.127-3.102-1.127C111.596,44.704,110.396,45.173,109.501,46.106z"/>
	<path fill="#FFFFFF" d="M125.742,57.388c0.737,0.869,1.751,1.588,3.042,2.154c1.29,0.564,2.542,0.85,3.754,0.85
		c1.238,0,2.258-0.321,3.062-0.969c0.803-0.646,1.205-1.441,1.205-2.391c0-0.713-0.231-1.291-0.691-1.738
		c-0.461-0.447-1.027-0.797-1.699-1.047c-0.671-0.25-1.587-0.533-2.746-0.852c-1.422-0.395-2.555-0.77-3.398-1.127
		c-0.843-0.354-1.568-0.875-2.173-1.562c-0.606-0.685-0.909-1.579-0.909-2.688c0-1.21,0.342-2.257,1.027-3.14
		c0.685-0.883,1.6-1.555,2.746-2.018c1.146-0.461,2.377-0.689,3.694-0.689c1.265,0,2.45,0.197,3.557,0.594
		c1.106,0.395,2.081,0.922,2.924,1.58l-1.027,2.332c-0.791-0.5-1.64-0.896-2.549-1.186c-0.909-0.291-1.798-0.438-2.667-0.438
		c-1.239,0-2.299,0.264-3.181,0.791c-0.883,0.527-1.324,1.225-1.324,2.094c0,0.766,0.355,1.331,1.067,1.7
		c0.711,0.369,1.843,0.738,3.398,1.104c1.501,0.369,2.727,0.737,3.675,1.106c0.948,0.369,1.765,0.961,2.45,1.777
		c0.685,0.814,1.027,1.91,1.027,3.279c0,1.949-0.678,3.504-2.035,4.662c-1.357,1.158-3.102,1.738-5.236,1.738
		c-1.607,0-3.194-0.33-4.761-0.988c-1.568-0.656-2.786-1.578-3.655-2.766L125.742,57.388z"/>
	<path fill="#FFFFFF" d="M156.285,62.841c-1.212,0.264-2.318,0.396-3.319,0.396c-2.635,0-4.479-0.688-5.532-2.072
		c-1.054-1.385-1.581-3.551-1.581-6.5v-9.801h-2.489v-2.488h2.489V37.08h3.28v5.295h5.769v2.488h-5.769v9.84
		c0,1.526,0.151,2.722,0.455,3.574c0.302,0.856,0.79,1.463,1.462,1.817c0.671,0.355,1.586,0.533,2.746,0.533
		c0.395,0,1.067-0.053,2.015-0.158L156.285,62.841z"/>
	<path fill="#FFFFFF" d="M160.869,37.257c-0.449-0.436-0.673-0.969-0.673-1.602c0-0.605,0.217-1.119,0.652-1.541
		c0.436-0.42,0.981-0.633,1.641-0.633c0.633,0,1.166,0.213,1.602,0.633c0.436,0.422,0.65,0.949,0.65,1.58
		c0,0.633-0.217,1.16-0.65,1.582c-0.434,0.422-0.969,0.631-1.602,0.631S161.314,37.69,160.869,37.257z M160.75,42.372h3.398V62.96
		h-3.398V42.372z"/>
	<path fill="#FFFFFF" d="M172.229,61.022c-1.438-1.686-2.154-4.41-2.154-8.178c0-3.715,0.727-6.422,2.175-8.122
		c1.446-1.699,3.698-2.549,6.756-2.549s5.304,0.844,6.738,2.529s2.151,4.388,2.151,8.101c0,3.715-0.729,6.436-2.192,8.16
		c-1.462,1.727-3.731,2.588-6.813,2.588C175.883,63.552,173.664,62.71,172.229,61.022z M183.135,58.87
		c0.881-1.252,1.322-3.379,1.322-6.381c0-1.949-0.178-3.479-0.533-4.584c-0.355-1.107-0.916-1.902-1.68-2.391
		c-0.764-0.49-1.805-0.73-3.121-0.73c-1.371,0-2.463,0.262-3.279,0.789s-1.41,1.377-1.777,2.549
		c-0.369,1.172-0.555,2.76-0.555,4.762c0,1.976,0.186,3.537,0.555,4.682c0.367,1.146,0.929,1.964,1.679,2.451
		c0.752,0.486,1.76,0.73,3.022,0.73C180.795,60.747,182.25,60.122,183.135,58.87z"/>
	<path fill="#FFFFFF" d="M208.936,43.874c0.937,1.133,1.4,3.07,1.4,5.809V62.96h-3.396V50.315c0-1.344-0.117-2.365-0.354-3.062
		c-0.235-0.697-0.618-1.18-1.146-1.441c-0.526-0.264-1.252-0.395-2.174-0.395c-0.896,0-1.812,0.119-2.746,0.354
		c-0.938,0.238-2.01,0.66-3.221,1.268v15.925H193.9v-20.59h3.397v2.371c1.212-0.896,2.354-1.549,3.438-1.955
		c1.08-0.408,2.305-0.613,3.676-0.613C206.492,42.175,208,42.741,208.936,43.874z"/>
	<path fill="#FFFFFF" d="M217.885,37.257c-0.447-0.436-0.672-0.969-0.672-1.602c0-0.605,0.219-1.119,0.652-1.541
		c0.436-0.42,0.98-0.633,1.641-0.633c0.631,0,1.164,0.213,1.6,0.633c0.437,0.422,0.652,0.949,0.652,1.58
		c0,0.633-0.219,1.16-0.652,1.582c-0.433,0.422-0.969,0.631-1.6,0.631C218.873,37.907,218.332,37.69,217.885,37.257z
		 M217.768,42.372h3.396V62.96h-3.396V42.372z"/>
	<path fill="#FFFFFF" d="M243.627,43.874c0.936,1.133,1.402,3.07,1.402,5.809V62.96h-3.396V50.315c0-1.344-0.119-2.365-0.355-3.062
		c-0.237-0.697-0.619-1.18-1.146-1.441c-0.526-0.264-1.252-0.395-2.174-0.395c-0.896,0-1.812,0.119-2.746,0.354
		c-0.937,0.238-2.01,0.66-3.222,1.268v15.925h-3.395v-20.59h3.395v2.371c1.212-0.896,2.357-1.549,3.439-1.955
		c1.08-0.408,2.305-0.613,3.676-0.613C241.184,42.175,242.691,42.741,243.627,43.874z"/>
	<path fill="#FFFFFF" d="M267.672,43.598v18.768c0,3.162-0.68,5.414-2.035,6.758c-1.357,1.344-3.365,2.016-6.025,2.016
		c-2.768,0-5.336-0.963-7.705-2.885l1.027-2.016c0.869,0.711,1.861,1.258,2.982,1.641c1.119,0.381,2.141,0.572,3.062,0.572
		c1.738,0,3.074-0.383,4.01-1.146c0.936-0.762,1.402-2.227,1.402-4.385v-1.385c-1.713,1.318-3.582,1.977-5.609,1.977
		c-2.293,0-4.156-0.822-5.592-2.469c-1.437-1.646-2.154-4.262-2.154-7.844c0-3.793,0.836-6.586,2.51-8.377s3.984-2.688,6.936-2.688
		c1.131,0,2.344,0.113,3.635,0.336c1.291,0.225,2.49,0.533,3.599,0.928L267.672,43.598z M262.08,60.411
		c0.908-0.25,1.68-0.586,2.312-1.008V45.376c-1.107-0.236-2.254-0.355-3.439-0.355c-2.186,0-3.846,0.562-4.979,1.682
		c-1.131,1.117-1.699,3.151-1.699,6.104c0,2.924,0.502,4.986,1.502,6.186c1.002,1.197,2.252,1.797,3.754,1.797
		C260.322,60.786,261.172,60.661,262.08,60.411z"/>
</g>
</svg>
