<?xml version="1.0" encoding="utf-8"?>
<!-- Generator: Adobe Illustrator 15.1.0, SVG Export Plug-In . SVG Version: 6.00 Build 0)  -->
<!DOCTYPE svg PUBLIC "-//W3C//DTD SVG 1.1//EN" "http://www.w3.org/Graphics/SVG/1.1/DTD/svg11.dtd">
<svg version="1.1" id="Botoes" xmlns="http://www.w3.org/2000/svg" xmlns:xlink="http://www.w3.org/1999/xlink" x="0px" y="0px"
	 width="320px" height="95px" viewBox="0 0 320 95" enable-background="new 0 0 320 95" xml:space="preserve">
<g>
	<path fill="#FFFFFF" d="M67.085,36.291h-8.456v26.711h-3.477V36.291h-8.496v-2.924h20.429V36.291z"/>
	<path fill="#FFFFFF" d="M83.403,45.537c-1.343,0-2.661,0.203-3.951,0.611c-1.291,0.41-2.411,0.955-3.359,1.641v15.213h-3.398
		V42.414h3.398v2.727c0.974-0.815,2.134-1.5,3.478-2.055c1.343-0.553,2.7-0.842,4.07-0.869L83.403,45.537z"/>
	<path fill="#FFFFFF" d="M99.011,42.928c0.974,0.475,1.699,1.271,2.173,2.391c0.474,1.121,0.711,2.667,0.711,4.645v13.039h-3.003
		v-2.647c-1.792,1.979-3.938,2.965-6.44,2.965c-2.082,0-3.629-0.556-4.643-1.66c-1.014-1.105-1.521-2.502-1.521-4.188
		c0-1.949,0.606-3.482,1.818-4.604c1.211-1.119,2.95-1.68,5.216-1.68h5.255c0-1.713-0.138-2.996-0.415-3.854
		c-0.276-0.855-0.711-1.441-1.304-1.758c-0.593-0.316-1.43-0.475-2.509-0.475c-1.476,0-3.543,0.316-6.204,0.949l-0.593-2.332
		c2.555-1,5.071-1.502,7.547-1.502C96.733,42.217,98.037,42.455,99.011,42.928z M98.578,58.338v-4.662h-5.216
		c-1.449,0-2.47,0.352-3.062,1.047c-0.593,0.699-0.889,1.512-0.889,2.434c0,1.025,0.322,1.836,0.968,2.431
		c0.645,0.592,1.521,0.89,2.627,0.89C94.691,60.473,96.548,59.762,98.578,58.338z"/>
	<path fill="#FFFFFF" d="M124.438,43.916c0.935,1.133,1.403,3.07,1.403,5.809v13.277h-3.398V50.357c0-1.344-0.119-2.365-0.356-3.062
		c-0.237-0.697-0.619-1.18-1.146-1.441c-0.527-0.264-1.251-0.395-2.173-0.395c-0.896,0-1.812,0.118-2.746,0.354
		c-0.936,0.238-2.009,0.66-3.221,1.268v15.924h-3.398v-20.59h3.398v2.37c1.211-0.896,2.357-1.547,3.438-1.954
		c1.08-0.408,2.305-0.613,3.675-0.613C121.995,42.217,123.503,42.783,124.438,43.916z"/>
	<path fill="#FFFFFF" d="M132.875,57.43c0.737,0.869,1.751,1.588,3.042,2.154c1.29,0.564,2.542,0.85,3.754,0.85
		c1.238,0,2.258-0.322,3.062-0.969c0.803-0.646,1.205-1.441,1.205-2.393c0-0.711-0.231-1.291-0.691-1.736
		c-0.461-0.447-1.027-0.799-1.699-1.049c-0.671-0.25-1.587-0.531-2.746-0.85c-1.422-0.396-2.555-0.771-3.398-1.127
		c-0.843-0.355-1.568-0.875-2.173-1.562c-0.606-0.684-0.909-1.579-0.909-2.688c0-1.211,0.342-2.258,1.027-3.141
		c0.685-0.883,1.6-1.556,2.746-2.017c1.146-0.461,2.377-0.69,3.694-0.69c1.265,0,2.45,0.196,3.557,0.594
		c1.106,0.395,2.081,0.922,2.924,1.58l-1.027,2.332c-0.791-0.5-1.64-0.896-2.549-1.187c-0.909-0.291-1.798-0.437-2.667-0.437
		c-1.239,0-2.299,0.265-3.181,0.791c-0.883,0.527-1.324,1.226-1.324,2.095c0,0.764,0.355,1.33,1.067,1.698
		c0.711,0.369,1.843,0.737,3.398,1.104c1.501,0.369,2.727,0.738,3.675,1.107c0.948,0.369,1.765,0.961,2.45,1.777
		c0.685,0.814,1.027,1.908,1.027,3.277c0,1.951-0.678,3.504-2.035,4.664c-1.357,1.158-3.102,1.737-5.236,1.737
		c-1.606,0-3.194-0.329-4.761-0.987c-1.568-0.658-2.786-1.58-3.655-2.767L132.875,57.43z"/>
	<path fill="#FFFFFF" d="M167.883,43.641v18.768c0,3.162-0.68,5.414-2.035,6.758c-1.357,1.345-3.365,2.017-6.026,2.017
		c-2.766,0-5.334-0.963-7.705-2.885l1.027-2.017c0.869,0.711,1.863,1.258,2.983,1.642c1.119,0.381,2.14,0.571,3.062,0.571
		c1.739,0,3.075-0.383,4.01-1.146c0.938-0.762,1.402-2.228,1.402-4.385v-1.386c-1.713,1.318-3.582,1.978-5.61,1.978
		c-2.292,0-4.156-0.821-5.591-2.469c-1.436-1.646-2.153-4.263-2.153-7.845c0-3.793,0.836-6.585,2.509-8.376
		c1.673-1.791,3.984-2.688,6.935-2.688c1.133,0,2.345,0.113,3.635,0.336c1.291,0.225,2.49,0.533,3.597,0.928L167.883,43.641z
		 M162.291,60.453c0.91-0.25,1.68-0.586,2.312-1.008V45.417c-1.107-0.236-2.254-0.354-3.438-0.354c-2.188,0-3.848,0.562-4.979,1.681
		c-1.133,1.12-1.699,3.155-1.699,6.104c0,2.924,0.5,4.986,1.502,6.186c1,1.197,2.252,1.797,3.753,1.797
		C160.533,60.828,161.383,60.703,162.291,60.453z"/>
	<path fill="#FFFFFF" d="M185.92,60.434c0.805-0.184,1.771-0.461,2.904-0.83l0.514,2.607c-1.291,0.5-2.41,0.867-3.357,1.105
		c-0.947,0.235-1.949,0.354-3.002,0.354c-2.768,0-4.975-0.869-6.619-2.608c-1.646-1.738-2.471-4.479-2.471-8.22
		c0-3.688,0.799-6.381,2.393-8.08c1.595-1.698,3.722-2.549,6.382-2.549c2.478,0,4.248,0.672,5.312,2.017
		c1.068,1.344,1.603,3.2,1.603,5.571c0,1.476-0.093,2.687-0.274,3.636l-12.013-0.039c0.131,2.768,0.724,4.676,1.776,5.729
		c1.054,1.055,2.478,1.579,4.269,1.579C184.254,60.709,185.117,60.617,185.92,60.434z M178.906,46.149
		c-0.896,0.936-1.422,2.523-1.58,4.761l9.127-0.119c0.053-0.684,0.08-1.25,0.08-1.698c0-1.395-0.311-2.469-0.93-3.219
		c-0.619-0.752-1.652-1.127-3.103-1.127C181.002,44.746,179.801,45.215,178.906,46.149z"/>
	<path fill="#FFFFFF" d="M210.654,43.916c0.936,1.133,1.404,3.07,1.404,5.809v13.277h-3.398V50.357c0-1.344-0.119-2.365-0.355-3.062
		c-0.236-0.697-0.617-1.18-1.145-1.441c-0.527-0.264-1.252-0.395-2.174-0.395c-0.896,0-1.812,0.118-2.746,0.354
		c-0.936,0.238-2.01,0.66-3.221,1.268v15.924h-3.396v-20.59h3.396v2.37c1.211-0.896,2.356-1.547,3.438-1.954
		c1.08-0.408,2.305-0.613,3.674-0.613C208.213,42.217,209.721,42.783,210.654,43.916z"/>
	<path fill="#FFFFFF" d="M234.699,62.408c-1.318,0.369-2.715,0.658-4.188,0.869c-1.479,0.211-2.781,0.315-3.912,0.315
		c-5.689,0-8.535-3.463-8.535-10.394c0-3.793,0.811-6.604,2.432-8.438c1.617-1.83,3.852-2.746,6.695-2.746
		c1.188,0,2.518,0.211,3.99,0.634V31.389h3.479L234.699,62.408z M222.826,59.129c1.014,1.133,2.455,1.699,4.326,1.699
		c1.027,0,2.371-0.172,4.029-0.514V45.182c-1.158-0.291-2.252-0.437-3.279-0.437c-2.082,0-3.701,0.646-4.859,1.937
		c-1.16,1.291-1.738,3.465-1.738,6.52C221.303,56.021,221.811,57.996,222.826,59.129z"/>
	<path fill="#FFFFFF" d="M252.697,60.434c0.803-0.184,1.771-0.461,2.904-0.83l0.514,2.607c-1.291,0.5-2.41,0.867-3.359,1.105
		c-0.947,0.235-1.949,0.354-3.002,0.354c-2.768,0-4.973-0.869-6.619-2.608c-1.646-1.738-2.469-4.479-2.469-8.22
		c0-3.688,0.797-6.381,2.391-8.08c1.594-1.698,3.721-2.549,6.383-2.549c2.476,0,4.248,0.672,5.312,2.017
		c1.066,1.344,1.602,3.2,1.602,5.571c0,1.476-0.094,2.687-0.274,3.636l-12.015-0.039c0.133,2.768,0.726,4.676,1.777,5.729
		c1.055,1.055,2.477,1.579,4.27,1.579C251.031,60.709,251.893,60.617,252.697,60.434z M245.684,46.149
		c-0.896,0.936-1.422,2.523-1.58,4.761l9.127-0.119c0.053-0.684,0.078-1.25,0.078-1.698c0-1.395-0.309-2.469-0.928-3.219
		c-0.619-0.752-1.652-1.127-3.104-1.127C247.777,44.746,246.578,45.215,245.684,46.149z"/>
	<path fill="#FFFFFF" d="M273.105,45.537c-1.344,0-2.662,0.203-3.951,0.611c-1.291,0.41-2.41,0.955-3.359,1.641v15.213h-3.396
		V42.414h3.396v2.727c0.977-0.815,2.135-1.5,3.479-2.055c1.344-0.553,2.699-0.842,4.07-0.869L273.105,45.537z"/>
</g>
</svg>
