<?xml version="1.0" encoding="utf-8"?>
<!-- Generator: Adobe Illustrator 15.1.0, SVG Export Plug-In . SVG Version: 6.00 Build 0)  -->
<!DOCTYPE svg PUBLIC "-//W3C//DTD SVG 1.1//EN" "http://www.w3.org/Graphics/SVG/1.1/DTD/svg11.dtd">
<svg version="1.1" id="Gif" xmlns="http://www.w3.org/2000/svg" xmlns:xlink="http://www.w3.org/1999/xlink" x="0px" y="0px"
	 width="800px" height="715px" viewBox="0 0 800 715" enable-background="new 0 0 800 715" xml:space="preserve">
<g>
	<path fill="#ED1C24" d="M780.705,132.563v172.131h-37.15V195.995L640.928,298.659c16.484,24.072,25.336,52.505,25.336,82.315
		c0,39.086-15.227,75.88-42.883,103.474c-27.66,27.662-64.395,42.887-103.484,42.887c-39.082,0-75.869-15.225-103.529-42.887
		c-11.068-11.082-20.159-23.627-27.063-37.217c-12.553,3.459-25.652,5.238-39.018,5.238c-34.311,0-66.857-11.74-92.994-33.297
		c-21.373,17.622-46.973,28.684-74.35,32.131v73.479h84.74v37.151h-84.74v84.744h-37.18v-84.744H61.068v-37.151h84.695v-73.479
		c-32.059-4.033-61.727-18.5-84.939-41.718c-27.609-27.607-42.838-64.391-42.838-103.474c0-39.101,15.229-75.822,42.838-103.444
		c27.652-27.653,64.428-42.884,103.525-42.884c34.309,0,66.809,11.742,92.943,33.312c26.137-21.57,58.684-33.312,92.994-33.312
		c29.25,0,57.178,8.537,80.969,24.414L533.043,82.377l-110.738-0.054V45.192l174.162,0.056V217.34H559.32V108.655l-99.922,99.964
		c8.572,9.553,15.76,20.054,21.469,31.27c12.557-3.462,25.67-5.237,39.029-5.237c35.803,0,69.621,12.772,96.309,36.166
		l101.062-101.109H608.564V132.56L780.705,132.563z M164.349,415.321c25.393,0,48.803-8.715,67.352-23.32
		c-18.037-24.809-27.783-54.603-27.783-85.885c0-31.29,9.746-61.057,27.797-85.864c-18.557-14.601-41.963-23.313-67.365-23.313
		c-60.223,0-109.176,48.971-109.176,109.178C55.173,366.279,104.126,415.321,164.349,415.321z M273.529,306.126
		c0-20.962-5.934-40.563-16.215-57.199c-10.271,16.636-16.213,36.237-16.213,57.199c0,20.948,5.941,40.54,16.213,57.194
		C267.595,346.666,273.529,327.074,273.529,306.126z M350.287,415.334c9.146,0,18.039-1.13,26.547-3.267
		c-2.182-10.091-3.295-20.505-3.295-31.079c0-39.088,15.225-75.822,42.829-103.439c9.107-9.104,19.197-16.862,30.035-23.17
		c-18.467-34.167-54.625-57.433-96.116-57.433c-25.426,0-48.828,8.722-67.395,23.323c18.066,24.804,27.822,54.573,27.822,85.847
		c0,31.274-9.756,61.067-27.812,85.872c18.572,14.618,41.963,23.333,67.385,23.333V415.334z M458.396,290.819
		c-28.773,19.68-47.676,52.763-47.676,90.169c0,5.197,0.371,10.31,1.074,15.316c28.754-19.709,47.664-52.801,47.664-90.179
		C459.459,300.929,459.1,295.818,458.396,290.819z M629.08,380.988c0-60.199-48.975-109.179-109.184-109.179
		c-9.145,0-18.035,1.127-26.535,3.264c2.166,10.086,3.277,20.486,3.277,31.053c0,39.079-15.23,75.876-42.875,103.479
		c-9.1,9.087-19.168,16.834-29.984,23.134c18.473,34.165,54.625,57.465,96.117,57.465C580.105,490.205,629.08,441.16,629.08,380.988
		z"/>
</g>
</svg>
