<?xml version="1.0" encoding="utf-8"?>
<!-- Generator: Adobe Illustrator 15.1.0, SVG Export Plug-In . SVG Version: 6.00 Build 0)  -->
<!DOCTYPE svg PUBLIC "-//W3C//DTD SVG 1.1//EN" "http://www.w3.org/Graphics/SVG/1.1/DTD/svg11.dtd">
<svg version="1.1" id="Layer_30" xmlns="http://www.w3.org/2000/svg" xmlns:xlink="http://www.w3.org/1999/xlink" x="0px" y="0px"
	 width="800px" height="715px" viewBox="0 0 800 715" enable-background="new 0 0 800 715" xml:space="preserve">
<g>
	<path fill="#ED1C24" d="M782.74,44.557v168.689h-36.404V106.76L640.572,212.517c19.453,25.004,29.992,55.568,29.992,87.77
		c0,38.307-14.918,74.357-42.021,101.401c-27.1,27.106-63.1,42.031-101.404,42.031c-33.637,0-65.516-11.5-91.143-32.654
		c-19.867,16.407-43.488,27.007-68.776,30.935v72.586h82.991v36.408H367.22v83.016h-36.44v-83.016h-71.771v-36.408h71.771v-71.553
		c-28.377-2.758-55.005-13.794-77.007-31.95c-21.996,18.155-48.582,29.192-76.957,31.95v71.553h71.766v36.408h-71.766v83.016
		h-36.438v-83.016H57.385v-36.408h82.993V442C110.536,437.373,83,423.457,61.23,401.688
		c-27.046-27.044-41.972-63.095-41.972-101.401c0-38.316,14.926-74.306,41.972-101.377c27.107-27.097,63.156-42.026,101.463-42.026
		c33.623,0,65.47,11.5,91.08,32.644c25.617-21.145,57.508-32.644,91.132-32.644c33.625,0,65.476,11.5,91.091,32.651
		c25.627-21.151,57.506-32.651,91.143-32.651c32.141,0,62.656,10.511,87.664,29.908L720.527,80.997H612.041v-36.44H782.74z
		 M162.693,407.314c24.888,0,47.824-8.551,66.006-22.866c-17.671-24.31-27.23-53.509-27.23-84.161
		c0-30.662,9.559-59.836,27.242-84.147c-18.188-14.314-41.124-22.851-66.018-22.851c-59.018,0-106.991,47.996-106.991,106.998
		C55.702,359.25,103.675,407.314,162.693,407.314z M253.798,356.333c10.074-16.312,15.889-35.519,15.889-56.047
		c0-20.537-5.815-39.747-15.889-56.062c-10.071,16.315-15.89,35.525-15.89,56.062C237.908,320.815,243.727,340.021,253.798,356.333z
		 M344.905,193.289c-24.912,0-47.847,8.55-66.041,22.859c17.707,24.307,27.262,53.483,27.262,84.135
		c0,30.639-9.555,59.842-27.252,84.145c18.197,14.322,41.129,22.879,66.031,22.879c24.895,0,47.821-8.557,66.026-22.879
		c-17.673-24.303-27.232-53.506-27.232-84.145c0-30.652,9.559-59.829,27.242-84.135
		C392.744,201.839,369.805,193.289,344.905,193.289z M451.9,300.287c0-20.533-5.811-39.743-15.883-56.044
		c-10.061,16.301-15.877,35.511-15.877,56.044c0,20.522,5.816,39.723,15.877,56.034C446.09,340.009,451.9,320.809,451.9,300.287z
		 M634.131,300.287c0-59.002-47.994-106.998-106.992-106.998c-24.908,0-47.854,8.554-66.061,22.868
		c17.697,24.302,27.258,53.478,27.258,84.13c0,30.635-9.553,59.838-27.242,84.141c18.197,14.322,41.143,22.887,66.045,22.887
		C586.137,407.314,634.131,359.25,634.131,300.287z"/>
</g>
</svg>
