<?xml version="1.0" encoding="utf-8"?>
<!-- Generator: Adobe Illustrator 15.1.0, SVG Export Plug-In . SVG Version: 6.00 Build 0)  -->
<!DOCTYPE svg PUBLIC "-//W3C//DTD SVG 1.1//EN" "http://www.w3.org/Graphics/SVG/1.1/DTD/svg11.dtd">
<svg version="1.1" id="Botoes" xmlns="http://www.w3.org/2000/svg" xmlns:xlink="http://www.w3.org/1999/xlink" x="0px" y="0px"
	 width="800px" height="525px" viewBox="0 0 800 525" enable-background="new 0 0 800 525" xml:space="preserve">
<g>
	<path fill="#FFFFFF" d="M34.776,53.958c0.791,1.252,1.186,2.839,1.186,4.762c0,2.792-0.777,4.86-2.332,6.203
		c-1.554,1.344-3.925,2.016-7.112,2.016H15.335V37.303h9.443c3.424,0,5.888,0.592,7.389,1.777s2.252,3.136,2.252,5.849
		c0,1.606-0.277,2.911-0.83,3.911c-0.553,1.002-1.462,1.778-2.727,2.332C32.682,51.779,33.986,52.707,34.776,53.958z M18.733,40.148
		v9.878h6.362c2.239,0,3.813-0.368,4.722-1.106c0.909-0.737,1.363-1.988,1.363-3.754c0-1.791-0.474-3.075-1.422-3.853
		c-0.948-0.776-2.622-1.165-5.018-1.165H18.733z M32.642,58.561c0-1.817-0.56-3.207-1.679-4.169
		c-1.12-0.961-2.958-1.442-5.512-1.442h-6.717v10.985l7.784-0.04C30.601,63.895,32.642,62.118,32.642,58.561z"/>
	<path fill="#FFFFFF" d="M42.757,41.235c-0.448-0.436-0.672-0.969-0.672-1.601c0-0.605,0.217-1.119,0.652-1.541
		c0.435-0.421,0.981-0.633,1.64-0.633c0.632,0,1.166,0.212,1.6,0.633c0.435,0.422,0.652,0.948,0.652,1.58
		c0,0.633-0.217,1.16-0.652,1.581c-0.435,0.422-0.968,0.632-1.6,0.632C43.745,41.886,43.205,41.669,42.757,41.235z M42.639,46.351
		h3.398v20.587h-3.398V46.351z"/>
	<path fill="#FFFFFF" d="M52.991,61.367c0.737,0.869,1.751,1.587,3.042,2.153c1.29,0.566,2.542,0.85,3.754,0.85
		c1.238,0,2.258-0.322,3.062-0.968c0.803-0.646,1.205-1.442,1.205-2.391c0-0.712-0.231-1.291-0.691-1.739
		c-0.461-0.447-1.027-0.796-1.699-1.047c-0.671-0.25-1.587-0.533-2.746-0.85c-1.422-0.395-2.555-0.771-3.398-1.126
		c-0.843-0.355-1.568-0.875-2.173-1.561c-0.606-0.685-0.909-1.581-0.909-2.688c0-1.211,0.342-2.258,1.027-3.141
		c0.685-0.883,1.6-1.555,2.746-2.016s2.377-0.691,3.694-0.691c1.265,0,2.45,0.197,3.557,0.593c1.106,0.396,2.081,0.922,2.924,1.58
		l-1.027,2.332c-0.791-0.5-1.64-0.896-2.549-1.186c-0.909-0.29-1.798-0.435-2.667-0.435c-1.239,0-2.299,0.264-3.181,0.79
		c-0.883,0.527-1.324,1.225-1.324,2.094c0,0.765,0.355,1.331,1.067,1.699c0.711,0.369,1.843,0.738,3.398,1.106
		c1.501,0.369,2.727,0.738,3.675,1.106c0.948,0.369,1.765,0.962,2.45,1.778c0.685,0.816,1.027,1.91,1.027,3.279
		c0,1.95-0.678,3.504-2.035,4.663c-1.357,1.159-3.102,1.738-5.236,1.738c-1.607,0-3.194-0.329-4.761-0.987
		c-1.568-0.658-2.786-1.581-3.655-2.767L52.991,61.367z"/>
	<path fill="#FFFFFF" d="M83.396,64.37c0.803-0.184,1.771-0.461,2.904-0.83l0.514,2.608c-1.291,0.5-2.41,0.869-3.359,1.106
		c-0.948,0.236-1.95,0.355-3.003,0.355c-2.766,0-4.973-0.869-6.619-2.608c-1.646-1.738-2.469-4.478-2.469-8.219
		c0-3.688,0.796-6.381,2.391-8.08c1.593-1.699,3.72-2.549,6.381-2.549c2.476,0,4.248,0.672,5.314,2.016
		c1.067,1.343,1.6,3.2,1.6,5.571c0,1.476-0.092,2.687-0.276,3.635l-12.012-0.039c0.131,2.766,0.724,4.676,1.778,5.729
		c1.053,1.054,2.476,1.58,4.267,1.58C81.729,64.646,82.592,64.554,83.396,64.37z M76.382,50.085
		c-0.896,0.936-1.422,2.522-1.581,4.762l9.127-0.119c0.053-0.685,0.079-1.251,0.079-1.699c0-1.396-0.31-2.469-0.928-3.22
		c-0.62-0.751-1.654-1.126-3.102-1.126C78.477,48.683,77.277,49.151,76.382,50.085z"/>
	<path fill="#FFFFFF" d="M103.607,66.938l-4.742-7.666l-4.742,7.666h-3.675l6.678-10.313l-6.559-10.273h3.675l4.663,7.469
		l4.583-7.469h3.714l-6.56,10.234l6.638,10.353H103.607z"/>
	<path fill="#FFFFFF" d="M127.829,46.351v20.587h-3.398v-2.094c-1.081,0.79-2.121,1.369-3.122,1.738
		c-1.001,0.368-2.081,0.553-3.24,0.553c-2.107,0-3.629-0.565-4.563-1.699c-0.936-1.132-1.403-3.068-1.403-5.808V46.351h3.517v12.764
		c0,1.343,0.119,2.37,0.355,3.082c0.237,0.711,0.606,1.198,1.106,1.462c0.5,0.264,1.211,0.395,2.134,0.395
		c1.344,0,3.082-0.514,5.216-1.541V46.351H127.829z"/>
	<path fill="#FFFFFF" d="M146.163,46.865c0.974,0.475,1.699,1.271,2.173,2.391c0.474,1.12,0.711,2.667,0.711,4.644v13.039h-3.003
		v-2.647c-1.792,1.976-3.938,2.964-6.44,2.964c-2.082,0-3.629-0.554-4.643-1.66c-1.014-1.106-1.521-2.502-1.521-4.188
		c0-1.949,0.606-3.483,1.818-4.603c1.211-1.12,2.95-1.68,5.216-1.68h5.255c0-1.712-0.138-2.996-0.415-3.853
		c-0.276-0.855-0.711-1.442-1.304-1.759c-0.593-0.315-1.43-0.474-2.509-0.474c-1.476,0-3.543,0.315-6.204,0.948l-0.593-2.331
		c2.555-1.001,5.071-1.502,7.547-1.502C143.884,46.154,145.188,46.391,146.163,46.865z M145.728,62.275v-4.662h-5.216
		c-1.449,0-2.47,0.35-3.062,1.047c-0.593,0.698-0.889,1.509-0.889,2.431c0,1.027,0.322,1.837,0.968,2.43
		c0.645,0.593,1.521,0.889,2.627,0.889C141.842,64.409,143.699,63.698,145.728,62.275z"/>
	<path fill="#FFFFFF" d="M156.515,35.327h3.398v31.611h-3.398V35.327z"/>
	<path fill="#FFFFFF" d="M180.775,40.385v10.945h13.948v3.003h-13.948v12.604h-3.477V37.303h18.611v3.082H180.775z"/>
	<path fill="#FFFFFF" d="M212.089,64.37c0.803-0.184,1.771-0.461,2.904-0.83l0.514,2.608c-1.291,0.5-2.41,0.869-3.359,1.106
		c-0.948,0.236-1.95,0.355-3.003,0.355c-2.766,0-4.973-0.869-6.619-2.608c-1.646-1.738-2.469-4.478-2.469-8.219
		c0-3.688,0.796-6.381,2.391-8.08c1.593-1.699,3.72-2.549,6.381-2.549c2.476,0,4.248,0.672,5.314,2.016
		c1.067,1.343,1.6,3.2,1.6,5.571c0,1.476-0.092,2.687-0.276,3.635l-12.012-0.039c0.131,2.766,0.724,4.676,1.778,5.729
		c1.053,1.054,2.476,1.58,4.267,1.58C210.423,64.646,211.286,64.554,212.089,64.37z M205.076,50.085
		c-0.896,0.936-1.422,2.522-1.581,4.762l9.127-0.119c0.053-0.685,0.079-1.251,0.079-1.699c0-1.396-0.31-2.469-0.928-3.22
		c-0.62-0.751-1.654-1.126-3.102-1.126C207.17,48.683,205.971,49.151,205.076,50.085z"/>
	<path fill="#FFFFFF" d="M249.824,47.853c0.935,1.133,1.403,3.069,1.403,5.809v13.276h-3.398V54.293
		c0-1.344-0.119-2.364-0.356-3.062c-0.237-0.697-0.619-1.179-1.146-1.441c-0.527-0.264-1.251-0.396-2.173-0.396
		c-0.922,0-1.857,0.125-2.806,0.375c-0.948,0.251-2.042,0.691-3.28,1.324c0.105,0.658,0.158,1.515,0.158,2.568v13.276h-3.398V54.293
		c0-1.344-0.119-2.364-0.356-3.062c-0.237-0.697-0.619-1.179-1.146-1.441c-0.527-0.264-1.251-0.396-2.173-0.396
		c-0.896,0-1.812,0.118-2.746,0.355c-0.936,0.237-2.009,0.659-3.221,1.265v15.924h-3.398V46.351h3.398v2.371
		c1.211-0.896,2.357-1.547,3.438-1.956c1.08-0.408,2.305-0.612,3.675-0.612c1.369,0,2.489,0.237,3.358,0.711
		c0.869,0.475,1.515,1.252,1.936,2.332c1.37-1.08,2.628-1.857,3.774-2.332c1.146-0.474,2.456-0.711,3.931-0.711
		C247.381,46.154,248.889,46.72,249.824,47.853z"/>
	<path fill="#FFFFFF" d="M269.521,46.865c0.974,0.475,1.699,1.271,2.173,2.391c0.474,1.12,0.711,2.667,0.711,4.644v13.039h-3.003
		v-2.647c-1.792,1.976-3.938,2.964-6.44,2.964c-2.082,0-3.629-0.554-4.643-1.66c-1.014-1.106-1.521-2.502-1.521-4.188
		c0-1.949,0.606-3.483,1.818-4.603c1.211-1.12,2.95-1.68,5.216-1.68h5.255c0-1.712-0.138-2.996-0.415-3.853
		c-0.276-0.855-0.711-1.442-1.304-1.759c-0.593-0.315-1.43-0.474-2.509-0.474c-1.476,0-3.543,0.315-6.204,0.948l-0.593-2.331
		c2.555-1.001,5.071-1.502,7.547-1.502C267.243,46.154,268.546,46.391,269.521,46.865z M269.087,62.275v-4.662h-5.216
		c-1.449,0-2.47,0.35-3.062,1.047c-0.593,0.698-0.889,1.509-0.889,2.431c0,1.027,0.322,1.837,0.968,2.43
		c0.645,0.593,1.521,0.889,2.627,0.889C265.201,64.409,267.058,63.698,269.087,62.275z"/>
	<path fill="#FFFFFF" d="M279.874,35.327h3.398v31.611h-3.398V35.327z"/>
	<path fill="#FFFFFF" d="M301.27,64.37c0.803-0.184,1.771-0.461,2.904-0.83l0.514,2.608c-1.291,0.5-2.41,0.869-3.359,1.106
		c-0.948,0.236-1.95,0.355-3.003,0.355c-2.766,0-4.973-0.869-6.619-2.608c-1.646-1.738-2.469-4.478-2.469-8.219
		c0-3.688,0.796-6.381,2.391-8.08c1.593-1.699,3.72-2.549,6.381-2.549c2.476,0,4.248,0.672,5.314,2.016
		c1.067,1.343,1.6,3.2,1.6,5.571c0,1.476-0.092,2.687-0.276,3.635l-12.012-0.039c0.131,2.766,0.724,4.676,1.778,5.729
		c1.053,1.054,2.476,1.58,4.267,1.58C299.603,64.646,300.466,64.554,301.27,64.37z M294.256,50.085
		c-0.896,0.936-1.422,2.522-1.581,4.762l9.127-0.119c0.053-0.685,0.079-1.251,0.079-1.699c0-1.396-0.31-2.469-0.928-3.22
		c-0.62-0.751-1.654-1.126-3.102-1.126C296.35,48.683,295.151,49.151,294.256,50.085z"/>
	<path fill="#FFFFFF" d="M66.998,134.227h-8.456v26.711h-3.477v-26.711h-8.496v-2.924h20.429V134.227z"/>
	<path fill="#FFFFFF" d="M83.317,143.473c-1.343,0-2.661,0.204-3.951,0.612c-1.291,0.409-2.411,0.955-3.359,1.64v15.213h-3.398
		v-20.587h3.398v2.727c0.974-0.816,2.134-1.501,3.478-2.055c1.343-0.553,2.7-0.843,4.07-0.869L83.317,143.473z"/>
	<path fill="#FFFFFF" d="M98.925,140.865c0.974,0.475,1.699,1.271,2.173,2.391c0.474,1.12,0.711,2.667,0.711,4.644v13.039h-3.003
		v-2.647c-1.792,1.976-3.938,2.964-6.44,2.964c-2.082,0-3.629-0.554-4.643-1.66c-1.014-1.106-1.521-2.502-1.521-4.188
		c0-1.949,0.606-3.483,1.818-4.603c1.211-1.12,2.95-1.68,5.216-1.68h5.255c0-1.712-0.138-2.996-0.415-3.853
		c-0.276-0.855-0.711-1.442-1.304-1.759c-0.593-0.315-1.43-0.474-2.509-0.474c-1.476,0-3.543,0.315-6.204,0.948l-0.593-2.331
		c2.555-1.001,5.071-1.502,7.547-1.502C96.646,140.154,97.95,140.391,98.925,140.865z M98.49,156.275v-4.662h-5.216
		c-1.449,0-2.47,0.35-3.062,1.047c-0.593,0.698-0.889,1.509-0.889,2.431c0,1.027,0.322,1.837,0.968,2.43
		c0.645,0.593,1.521,0.889,2.627,0.889C94.604,158.409,96.461,157.698,98.49,156.275z"/>
	<path fill="#FFFFFF" d="M124.351,141.853c0.935,1.133,1.403,3.069,1.403,5.809v13.276h-3.398v-12.645
		c0-1.344-0.119-2.364-0.356-3.062c-0.237-0.697-0.619-1.179-1.146-1.441c-0.527-0.264-1.251-0.396-2.173-0.396
		c-0.896,0-1.812,0.118-2.746,0.355c-0.936,0.237-2.009,0.659-3.221,1.265v15.924h-3.398v-20.587h3.398v2.371
		c1.211-0.896,2.357-1.547,3.438-1.956c1.08-0.408,2.305-0.612,3.675-0.612C121.908,140.154,123.416,140.72,124.351,141.853z"/>
	<path fill="#FFFFFF" d="M132.787,155.367c0.737,0.869,1.751,1.587,3.042,2.153c1.29,0.566,2.542,0.85,3.754,0.85
		c1.238,0,2.258-0.322,3.062-0.968c0.803-0.646,1.205-1.442,1.205-2.391c0-0.712-0.231-1.291-0.691-1.739
		c-0.461-0.447-1.027-0.796-1.699-1.047c-0.671-0.25-1.587-0.533-2.746-0.85c-1.422-0.395-2.555-0.771-3.398-1.126
		c-0.843-0.355-1.568-0.875-2.173-1.561c-0.606-0.685-0.909-1.581-0.909-2.688c0-1.211,0.342-2.258,1.027-3.141
		c0.685-0.883,1.6-1.555,2.746-2.016s2.377-0.691,3.694-0.691c1.265,0,2.45,0.197,3.557,0.593c1.106,0.396,2.081,0.922,2.924,1.58
		l-1.027,2.332c-0.791-0.5-1.64-0.896-2.549-1.186c-0.909-0.29-1.798-0.435-2.667-0.435c-1.239,0-2.299,0.264-3.181,0.79
		c-0.883,0.527-1.324,1.225-1.324,2.094c0,0.765,0.355,1.331,1.067,1.699c0.711,0.369,1.843,0.738,3.398,1.106
		c1.501,0.369,2.727,0.738,3.675,1.106c0.948,0.369,1.765,0.962,2.45,1.778c0.685,0.816,1.027,1.91,1.027,3.279
		c0,1.95-0.678,3.504-2.035,4.663c-1.357,1.159-3.102,1.738-5.236,1.738c-1.607,0-3.194-0.329-4.761-0.987
		c-1.568-0.658-2.786-1.581-3.655-2.767L132.787,155.367z"/>
	<path fill="#FFFFFF" d="M167.796,141.577v18.769c0,3.161-0.679,5.413-2.035,6.757c-1.357,1.344-3.365,2.016-6.026,2.016
		c-2.766,0-5.334-0.962-7.705-2.885l1.027-2.016c0.869,0.712,1.863,1.258,2.983,1.641c1.119,0.381,2.14,0.572,3.062,0.572
		c1.739,0,3.076-0.382,4.011-1.146c0.935-0.765,1.403-2.227,1.403-4.386v-1.384c-1.713,1.318-3.583,1.976-5.611,1.976
		c-2.292,0-4.156-0.822-5.591-2.469c-1.436-1.646-2.153-4.261-2.153-7.844c0-3.793,0.836-6.585,2.509-8.377
		c1.673-1.791,3.984-2.687,6.935-2.687c1.132,0,2.345,0.112,3.635,0.335c1.291,0.225,2.49,0.534,3.596,0.929L167.796,141.577z
		 M162.205,158.389c0.909-0.25,1.679-0.586,2.312-1.008v-14.027c-1.106-0.236-2.252-0.355-3.438-0.355
		c-2.187,0-3.847,0.561-4.979,1.68c-1.133,1.12-1.699,3.155-1.699,6.104c0,2.924,0.5,4.985,1.502,6.185
		c1,1.198,2.252,1.798,3.753,1.798C160.446,158.765,161.296,158.64,162.205,158.389z"/>
	<path fill="#FFFFFF" d="M185.833,158.37c0.803-0.184,1.771-0.461,2.904-0.83l0.514,2.608c-1.291,0.5-2.41,0.869-3.359,1.106
		c-0.948,0.236-1.95,0.355-3.003,0.355c-2.766,0-4.973-0.869-6.619-2.608c-1.646-1.738-2.469-4.478-2.469-8.219
		c0-3.688,0.796-6.381,2.391-8.08c1.593-1.699,3.72-2.549,6.381-2.549c2.476,0,4.248,0.672,5.314,2.016
		c1.067,1.343,1.6,3.2,1.6,5.571c0,1.476-0.092,2.687-0.276,3.635l-12.012-0.039c0.131,2.766,0.724,4.676,1.778,5.729
		c1.053,1.054,2.476,1.58,4.267,1.58C184.167,158.646,185.03,158.554,185.833,158.37z M178.82,144.085
		c-0.896,0.936-1.422,2.522-1.581,4.762l9.127-0.119c0.053-0.685,0.079-1.251,0.079-1.699c0-1.396-0.31-2.469-0.928-3.22
		c-0.62-0.751-1.654-1.126-3.102-1.126C180.914,142.683,179.715,143.151,178.82,144.085z"/>
	<path fill="#FFFFFF" d="M210.568,141.853c0.935,1.133,1.403,3.069,1.403,5.809v13.276h-3.398v-12.645
		c0-1.344-0.119-2.364-0.356-3.062c-0.237-0.697-0.619-1.179-1.146-1.441c-0.527-0.264-1.251-0.396-2.173-0.396
		c-0.896,0-1.812,0.118-2.746,0.355c-0.936,0.237-2.009,0.659-3.221,1.265v15.924h-3.398v-20.587h3.398v2.371
		c1.211-0.896,2.357-1.547,3.438-1.956c1.08-0.408,2.305-0.612,3.675-0.612C208.125,140.154,209.633,140.72,210.568,141.853z"/>
	<path fill="#FFFFFF" d="M234.612,160.345c-1.318,0.369-2.714,0.658-4.188,0.869c-1.476,0.211-2.78,0.316-3.912,0.316
		c-5.69,0-8.535-3.464-8.535-10.393c0-3.793,0.81-6.604,2.43-8.436c1.62-1.831,3.853-2.746,6.698-2.746
		c1.186,0,2.515,0.211,3.991,0.632v-11.262h3.478L234.612,160.345z M222.738,157.066c1.014,1.133,2.456,1.699,4.327,1.699
		c1.027,0,2.371-0.172,4.03-0.514v-15.134c-1.159-0.29-2.252-0.435-3.279-0.435c-2.082,0-3.702,0.646-4.86,1.936
		c-1.16,1.291-1.739,3.465-1.739,6.52C221.217,153.958,221.724,155.933,222.738,157.066z"/>
	<path fill="#FFFFFF" d="M252.61,158.37c0.803-0.184,1.771-0.461,2.904-0.83l0.514,2.608c-1.291,0.5-2.41,0.869-3.359,1.106
		c-0.948,0.236-1.95,0.355-3.003,0.355c-2.766,0-4.973-0.869-6.619-2.608c-1.646-1.738-2.469-4.478-2.469-8.219
		c0-3.688,0.796-6.381,2.391-8.08c1.593-1.699,3.72-2.549,6.381-2.549c2.476,0,4.248,0.672,5.314,2.016
		c1.067,1.343,1.6,3.2,1.6,5.571c0,1.476-0.092,2.687-0.276,3.635l-12.012-0.039c0.131,2.766,0.724,4.676,1.778,5.729
		c1.053,1.054,2.476,1.58,4.267,1.58C250.944,158.646,251.807,158.554,252.61,158.37z M245.597,144.085
		c-0.896,0.936-1.422,2.522-1.581,4.762l9.127-0.119c0.053-0.685,0.079-1.251,0.079-1.699c0-1.396-0.31-2.469-0.928-3.22
		c-0.62-0.751-1.654-1.126-3.102-1.126C247.691,142.683,246.492,143.151,245.597,144.085z"/>
	<path fill="#FFFFFF" d="M273.019,143.473c-1.343,0-2.661,0.204-3.951,0.612c-1.291,0.409-2.411,0.955-3.359,1.64v15.213h-3.398
		v-20.587h3.398v2.727c0.974-0.816,2.134-1.501,3.478-2.055c1.343-0.553,2.7-0.843,4.07-0.869L273.019,143.473z"/>
	<path fill="#FFFFFF" d="M57.594,241.958c0.791,1.252,1.186,2.839,1.186,4.762c0,2.792-0.777,4.86-2.332,6.203
		c-1.554,1.344-3.925,2.016-7.112,2.016H38.154v-29.635h9.443c3.424,0,5.888,0.592,7.389,1.777s2.252,3.136,2.252,5.849
		c0,1.606-0.277,2.911-0.83,3.911c-0.553,1.002-1.462,1.778-2.727,2.332C55.5,239.779,56.804,240.707,57.594,241.958z
		 M41.552,228.148v9.878h6.362c2.239,0,3.813-0.368,4.722-1.106c0.909-0.737,1.363-1.988,1.363-3.754
		c0-1.791-0.474-3.075-1.422-3.853c-0.948-0.776-2.622-1.165-5.018-1.165H41.552z M55.46,246.561c0-1.817-0.56-3.207-1.679-4.169
		c-1.12-0.961-2.958-1.442-5.512-1.442h-6.717v10.985l7.784-0.04C53.419,251.895,55.46,250.118,55.46,246.561z"/>
	<path fill="#FFFFFF" d="M65.576,229.235c-0.448-0.436-0.672-0.969-0.672-1.601c0-0.605,0.217-1.119,0.652-1.541
		c0.435-0.421,0.981-0.633,1.64-0.633c0.632,0,1.166,0.212,1.6,0.633c0.435,0.422,0.652,0.948,0.652,1.58
		c0,0.633-0.217,1.16-0.652,1.581c-0.435,0.422-0.968,0.632-1.6,0.632C66.563,229.886,66.023,229.669,65.576,229.235z
		 M65.457,234.351h3.398v20.587h-3.398V234.351z"/>
	<path fill="#FFFFFF" d="M75.809,249.367c0.737,0.869,1.751,1.587,3.042,2.153c1.29,0.566,2.542,0.85,3.754,0.85
		c1.238,0,2.258-0.322,3.062-0.968c0.803-0.646,1.205-1.442,1.205-2.391c0-0.712-0.231-1.291-0.691-1.739
		c-0.461-0.447-1.027-0.796-1.699-1.047c-0.671-0.25-1.587-0.533-2.746-0.85c-1.422-0.395-2.555-0.771-3.398-1.126
		c-0.843-0.355-1.568-0.875-2.173-1.561c-0.606-0.685-0.909-1.581-0.909-2.688c0-1.211,0.342-2.258,1.027-3.141
		c0.685-0.883,1.6-1.555,2.746-2.016s2.377-0.691,3.694-0.691c1.265,0,2.45,0.197,3.557,0.593c1.106,0.396,2.081,0.922,2.924,1.58
		l-1.027,2.332c-0.791-0.5-1.64-0.896-2.549-1.186c-0.909-0.29-1.798-0.435-2.667-0.435c-1.239,0-2.299,0.264-3.181,0.79
		c-0.883,0.527-1.324,1.225-1.324,2.094c0,0.765,0.355,1.331,1.067,1.699c0.711,0.369,1.843,0.738,3.398,1.106
		c1.501,0.369,2.727,0.738,3.675,1.106c0.948,0.369,1.765,0.962,2.45,1.778c0.685,0.816,1.027,1.91,1.027,3.279
		c0,1.95-0.678,3.504-2.035,4.663c-1.357,1.159-3.102,1.738-5.236,1.738c-1.607,0-3.194-0.329-4.761-0.987
		c-1.568-0.658-2.786-1.581-3.655-2.767L75.809,249.367z"/>
	<path fill="#FFFFFF" d="M106.214,252.37c0.803-0.184,1.771-0.461,2.904-0.83l0.514,2.608c-1.291,0.5-2.41,0.869-3.359,1.106
		c-0.948,0.236-1.95,0.355-3.003,0.355c-2.766,0-4.973-0.869-6.619-2.608c-1.646-1.738-2.469-4.478-2.469-8.219
		c0-3.688,0.796-6.381,2.391-8.08c1.593-1.699,3.72-2.549,6.381-2.549c2.476,0,4.248,0.672,5.314,2.016
		c1.067,1.343,1.6,3.2,1.6,5.571c0,1.476-0.092,2.687-0.276,3.635l-12.012-0.039c0.131,2.766,0.724,4.676,1.778,5.729
		c1.053,1.054,2.476,1.58,4.267,1.58C104.548,252.646,105.411,252.554,106.214,252.37z M99.201,238.085
		c-0.896,0.936-1.422,2.522-1.581,4.762l9.127-0.119c0.053-0.685,0.079-1.251,0.079-1.699c0-1.396-0.31-2.469-0.928-3.22
		c-0.62-0.751-1.654-1.126-3.102-1.126C101.295,236.683,100.096,237.151,99.201,238.085z"/>
	<path fill="#FFFFFF" d="M126.425,254.938l-4.742-7.666l-4.742,7.666h-3.675l6.678-10.313l-6.559-10.273h3.675l4.663,7.469
		l4.583-7.469h3.714l-6.56,10.234l6.638,10.353H126.425z"/>
	<path fill="#FFFFFF" d="M150.647,234.351v20.587h-3.398v-2.094c-1.081,0.79-2.121,1.369-3.122,1.738
		c-1.001,0.368-2.081,0.553-3.24,0.553c-2.107,0-3.629-0.565-4.563-1.699c-0.936-1.132-1.403-3.068-1.403-5.808v-13.277h3.517
		v12.764c0,1.343,0.119,2.37,0.355,3.082c0.237,0.711,0.606,1.198,1.106,1.462c0.5,0.264,1.211,0.395,2.134,0.395
		c1.344,0,3.082-0.514,5.216-1.541v-16.161H150.647z"/>
	<path fill="#FFFFFF" d="M168.981,234.865c0.974,0.475,1.699,1.271,2.173,2.391c0.474,1.12,0.711,2.667,0.711,4.644v13.039h-3.003
		v-2.647c-1.792,1.976-3.938,2.964-6.44,2.964c-2.082,0-3.629-0.554-4.643-1.66c-1.014-1.106-1.521-2.502-1.521-4.188
		c0-1.949,0.606-3.483,1.818-4.603c1.211-1.12,2.95-1.68,5.216-1.68h5.255c0-1.712-0.138-2.996-0.415-3.853
		c-0.276-0.855-0.711-1.442-1.304-1.759c-0.593-0.315-1.43-0.474-2.509-0.474c-1.476,0-3.543,0.315-6.204,0.948l-0.593-2.331
		c2.555-1.001,5.071-1.502,7.547-1.502C166.702,234.154,168.006,234.391,168.981,234.865z M168.546,250.275v-4.662h-5.216
		c-1.449,0-2.47,0.35-3.062,1.047c-0.593,0.698-0.889,1.509-0.889,2.431c0,1.027,0.322,1.837,0.968,2.43
		c0.645,0.593,1.521,0.889,2.627,0.889C164.66,252.409,166.518,251.698,168.546,250.275z"/>
	<path fill="#FFFFFF" d="M179.333,223.327h3.398v31.611h-3.398V223.327z"/>
	<path fill="#FFFFFF" d="M225.287,254.938l-2.331-24.262l-6.955,20.469h-3.556l-6.994-20.469l-2.252,24.262h-3.478l3.083-29.793
		h3.674l7.706,22.483l7.705-22.483h3.714l3.161,29.793H225.287z"/>
	<path fill="#FFFFFF" d="M246.703,234.865c0.974,0.475,1.699,1.271,2.173,2.391c0.474,1.12,0.711,2.667,0.711,4.644v13.039h-3.003
		v-2.647c-1.792,1.976-3.938,2.964-6.44,2.964c-2.082,0-3.629-0.554-4.643-1.66c-1.014-1.106-1.521-2.502-1.521-4.188
		c0-1.949,0.606-3.483,1.818-4.603c1.211-1.12,2.95-1.68,5.216-1.68h5.255c0-1.712-0.138-2.996-0.415-3.853
		c-0.276-0.855-0.711-1.442-1.304-1.759c-0.593-0.315-1.43-0.474-2.509-0.474c-1.476,0-3.543,0.315-6.204,0.948l-0.593-2.331
		c2.555-1.001,5.071-1.502,7.547-1.502C244.424,234.154,245.728,234.391,246.703,234.865z M246.268,250.275v-4.662h-5.216
		c-1.449,0-2.47,0.35-3.062,1.047c-0.593,0.698-0.889,1.509-0.889,2.431c0,1.027,0.322,1.837,0.968,2.43
		c0.645,0.593,1.521,0.889,2.627,0.889C242.382,252.409,244.239,251.698,246.268,250.275z"/>
	<path fill="#FFFFFF" d="M257.055,223.327h3.398v31.611h-3.398V223.327z"/>
	<path fill="#FFFFFF" d="M278.451,252.37c0.803-0.184,1.771-0.461,2.904-0.83l0.514,2.608c-1.291,0.5-2.41,0.869-3.359,1.106
		c-0.948,0.236-1.95,0.355-3.003,0.355c-2.766,0-4.973-0.869-6.619-2.608c-1.646-1.738-2.469-4.478-2.469-8.219
		c0-3.688,0.796-6.381,2.391-8.08c1.593-1.699,3.72-2.549,6.381-2.549c2.476,0,4.248,0.672,5.314,2.016
		c1.067,1.343,1.6,3.2,1.6,5.571c0,1.476-0.092,2.687-0.276,3.635l-12.012-0.039c0.131,2.766,0.724,4.676,1.778,5.729
		c1.053,1.054,2.476,1.58,4.267,1.58C276.784,252.646,277.647,252.554,278.451,252.37z M271.437,238.085
		c-0.896,0.936-1.422,2.522-1.581,4.762l9.127-0.119c0.053-0.685,0.079-1.251,0.079-1.699c0-1.396-0.31-2.469-0.928-3.22
		c-0.62-0.751-1.654-1.126-3.102-1.126C273.531,236.683,272.332,237.151,271.437,238.085z"/>
	<path fill="#FFFFFF" d="M71.977,353.245l0.632,2.489c-1.396,0.658-2.792,0.988-4.188,0.988c-1.95,0-3.563-0.639-4.84-1.916
		c-1.278-1.278-2.048-3.062-2.312-5.354c-3.398-0.369-5.907-1.791-7.527-4.268c-1.62-2.476-2.43-6.189-2.43-11.143
		c0-5.348,0.968-9.239,2.904-11.677c1.936-2.436,4.933-3.654,8.989-3.654c4.031,0,7.014,1.219,8.95,3.654
		c1.936,2.438,2.904,6.329,2.904,11.677c0,5.11-0.863,8.904-2.588,11.38c-1.726,2.477-4.38,3.833-7.962,4.069
		c0.184,1.449,0.645,2.562,1.383,3.339c0.737,0.777,1.672,1.166,2.806,1.166C69.725,353.996,70.818,353.745,71.977,353.245z
		 M55.737,341.292c0.579,1.831,1.481,3.168,2.707,4.011s2.812,1.264,4.761,1.264c1.949,0,3.53-0.421,4.742-1.264
		c1.211-0.843,2.107-2.18,2.687-4.011c0.579-1.831,0.869-4.248,0.869-7.251s-0.29-5.427-0.869-7.271
		c-0.58-1.844-1.476-3.188-2.687-4.03c-1.212-0.843-2.792-1.265-4.742-1.265c-1.95,0-3.536,0.429-4.761,1.284
		c-1.225,0.856-2.127,2.2-2.707,4.03c-0.58,1.831-0.87,4.248-0.87,7.251S55.157,339.461,55.737,341.292z"/>
	<path fill="#FFFFFF" d="M97.503,328.351v20.587h-3.398v-2.094c-1.081,0.79-2.121,1.369-3.122,1.738
		c-1.001,0.368-2.081,0.553-3.24,0.553c-2.107,0-3.629-0.565-4.563-1.699c-0.936-1.132-1.403-3.068-1.403-5.808v-13.277h3.517
		v12.764c0,1.343,0.119,2.37,0.355,3.082c0.237,0.711,0.606,1.198,1.106,1.462c0.5,0.264,1.211,0.395,2.134,0.395
		c1.344,0,3.082-0.514,5.216-1.541v-16.161H97.503z"/>
	<path fill="#FFFFFF" d="M115.54,346.37c0.803-0.184,1.771-0.461,2.904-0.83l0.514,2.608c-1.291,0.5-2.41,0.869-3.359,1.106
		c-0.948,0.236-1.95,0.355-3.003,0.355c-2.766,0-4.973-0.869-6.619-2.608c-1.646-1.738-2.469-4.478-2.469-8.219
		c0-3.688,0.796-6.381,2.391-8.08c1.593-1.699,3.72-2.549,6.381-2.549c2.476,0,4.248,0.672,5.314,2.016
		c1.067,1.343,1.6,3.2,1.6,5.571c0,1.476-0.092,2.687-0.276,3.635l-12.012-0.039c0.131,2.766,0.724,4.676,1.778,5.729
		c1.053,1.054,2.476,1.58,4.267,1.58C113.874,346.646,114.736,346.554,115.54,346.37z M108.526,332.085
		c-0.896,0.936-1.422,2.522-1.581,4.762l9.127-0.119c0.053-0.685,0.079-1.251,0.079-1.699c0-1.396-0.31-2.469-0.928-3.22
		c-0.62-0.751-1.654-1.126-3.102-1.126C110.621,330.683,109.421,331.151,108.526,332.085z"/>
	<path fill="#FFFFFF" d="M124.766,343.367c0.737,0.869,1.751,1.587,3.042,2.153c1.29,0.566,2.542,0.85,3.754,0.85
		c1.238,0,2.258-0.322,3.062-0.968c0.803-0.646,1.205-1.442,1.205-2.391c0-0.712-0.231-1.291-0.691-1.739
		c-0.461-0.447-1.027-0.796-1.699-1.047c-0.671-0.25-1.587-0.533-2.746-0.85c-1.422-0.395-2.555-0.771-3.398-1.126
		c-0.843-0.355-1.568-0.875-2.173-1.561c-0.606-0.685-0.909-1.581-0.909-2.688c0-1.211,0.342-2.258,1.027-3.141
		c0.685-0.883,1.6-1.555,2.746-2.016s2.377-0.691,3.694-0.691c1.265,0,2.45,0.197,3.557,0.593c1.106,0.396,2.081,0.922,2.924,1.58
		l-1.027,2.332c-0.791-0.5-1.64-0.896-2.549-1.186c-0.909-0.29-1.798-0.435-2.667-0.435c-1.239,0-2.299,0.264-3.181,0.79
		c-0.883,0.527-1.324,1.225-1.324,2.094c0,0.765,0.355,1.331,1.067,1.699c0.711,0.369,1.843,0.738,3.398,1.106
		c1.501,0.369,2.727,0.738,3.675,1.106c0.948,0.369,1.765,0.962,2.45,1.778c0.685,0.816,1.027,1.91,1.027,3.279
		c0,1.95-0.678,3.504-2.035,4.663c-1.357,1.159-3.102,1.738-5.236,1.738c-1.607,0-3.194-0.329-4.761-0.987
		c-1.568-0.658-2.786-1.581-3.655-2.767L124.766,343.367z"/>
	<path fill="#FFFFFF" d="M155.31,348.82c-1.212,0.263-2.318,0.395-3.319,0.395c-2.635,0-4.479-0.691-5.532-2.074
		c-1.054-1.383-1.581-3.55-1.581-6.5v-9.8h-2.489v-2.489h2.489v-5.295h3.28v5.295h5.769v2.489h-5.769v9.839
		c0,1.528,0.151,2.721,0.455,3.576c0.302,0.856,0.79,1.462,1.462,1.818c0.671,0.355,1.586,0.533,2.746,0.533
		c0.395,0,1.067-0.053,2.015-0.158L155.31,348.82z"/>
	<path fill="#FFFFFF" d="M159.893,323.235c-0.448-0.436-0.672-0.969-0.672-1.601c0-0.605,0.217-1.119,0.652-1.541
		c0.435-0.421,0.981-0.633,1.64-0.633c0.632,0,1.166,0.212,1.6,0.633c0.435,0.422,0.652,0.948,0.652,1.58
		c0,0.633-0.217,1.16-0.652,1.581c-0.435,0.422-0.968,0.632-1.6,0.632C160.881,323.886,160.34,323.669,159.893,323.235z
		 M159.774,328.351h3.398v20.587h-3.398V328.351z"/>
	<path fill="#FFFFFF" d="M171.252,347.001c-1.436-1.686-2.153-4.411-2.153-8.179c0-3.715,0.724-6.421,2.173-8.12
		s3.701-2.549,6.757-2.549c3.056,0,5.301,0.844,6.737,2.529c1.436,1.686,2.153,4.386,2.153,8.1c0,3.715-0.731,6.435-2.193,8.16
		s-3.734,2.588-6.816,2.588C174.907,349.531,172.688,348.688,171.252,347.001z M182.158,344.848
		c0.882-1.251,1.324-3.378,1.324-6.381c0-1.949-0.178-3.478-0.534-4.584c-0.355-1.106-0.916-1.902-1.679-2.391
		c-0.764-0.487-1.805-0.73-3.122-0.73c-1.37,0-2.463,0.263-3.279,0.79c-0.817,0.527-1.41,1.377-1.778,2.549
		c-0.369,1.172-0.553,2.76-0.553,4.761c0,1.976,0.184,3.537,0.553,4.683c0.369,1.146,0.929,1.963,1.679,2.45
		c0.751,0.487,1.758,0.73,3.023,0.73C179.82,346.725,181.275,346.1,182.158,344.848z"/>
	<path fill="#FFFFFF" d="M207.96,329.853c0.935,1.133,1.403,3.069,1.403,5.809v13.276h-3.398v-12.645
		c0-1.344-0.119-2.364-0.356-3.062c-0.237-0.697-0.619-1.179-1.146-1.441c-0.527-0.264-1.251-0.396-2.173-0.396
		c-0.896,0-1.812,0.118-2.746,0.355c-0.936,0.237-2.009,0.659-3.221,1.265v15.924h-3.398v-20.587h3.398v2.371
		c1.211-0.896,2.357-1.547,3.438-1.956c1.08-0.408,2.305-0.612,3.675-0.612C205.517,328.154,207.025,328.72,207.96,329.853z"/>
	<path fill="#FFFFFF" d="M216.91,323.235c-0.448-0.436-0.672-0.969-0.672-1.601c0-0.605,0.217-1.119,0.652-1.541
		c0.435-0.421,0.981-0.633,1.64-0.633c0.632,0,1.166,0.212,1.6,0.633c0.435,0.422,0.652,0.948,0.652,1.58
		c0,0.633-0.217,1.16-0.652,1.581c-0.435,0.422-0.968,0.632-1.6,0.632C217.897,323.886,217.357,323.669,216.91,323.235z
		 M216.791,328.351h3.398v20.587h-3.398V328.351z"/>
	<path fill="#FFFFFF" d="M242.652,329.853c0.935,1.133,1.403,3.069,1.403,5.809v13.276h-3.398v-12.645
		c0-1.344-0.119-2.364-0.356-3.062c-0.237-0.697-0.619-1.179-1.146-1.441c-0.527-0.264-1.251-0.396-2.173-0.396
		c-0.896,0-1.812,0.118-2.746,0.355c-0.936,0.237-2.009,0.659-3.221,1.265v15.924h-3.398v-20.587h3.398v2.371
		c1.211-0.896,2.357-1.547,3.438-1.956c1.08-0.408,2.305-0.612,3.675-0.612C240.208,328.154,241.717,328.72,242.652,329.853z"/>
	<path fill="#FFFFFF" d="M266.696,329.577v18.769c0,3.161-0.679,5.413-2.035,6.757c-1.357,1.344-3.365,2.016-6.026,2.016
		c-2.766,0-5.334-0.962-7.705-2.885l1.027-2.016c0.869,0.712,1.863,1.258,2.983,1.641c1.119,0.381,2.14,0.572,3.062,0.572
		c1.739,0,3.076-0.382,4.011-1.146c0.935-0.765,1.403-2.227,1.403-4.386v-1.384c-1.713,1.318-3.583,1.976-5.611,1.976
		c-2.292,0-4.156-0.822-5.591-2.469c-1.436-1.646-2.153-4.261-2.153-7.844c0-3.793,0.836-6.585,2.509-8.377
		c1.673-1.791,3.984-2.687,6.935-2.687c1.132,0,2.345,0.112,3.635,0.335c1.291,0.225,2.49,0.534,3.596,0.929L266.696,329.577z
		 M261.104,346.389c0.909-0.25,1.679-0.586,2.312-1.008v-14.027c-1.106-0.236-2.252-0.355-3.438-0.355
		c-2.187,0-3.847,0.561-4.979,1.68c-1.133,1.12-1.699,3.155-1.699,6.104c0,2.924,0.5,4.985,1.502,6.185
		c1,1.198,2.252,1.798,3.753,1.798C259.346,346.765,260.196,346.64,261.104,346.389z"/>
	<path fill="#FFFFFF" d="M57.712,435.351H46.096l-2.371,7.587H40.05l9.839-29.793h4.11l9.799,29.793h-3.714L57.712,435.351z
		 M56.804,432.467l-4.939-15.767l-4.9,15.767H56.804z"/>
	<path fill="#FFFFFF" d="M84.403,423.853c0.935,1.133,1.403,3.069,1.403,5.809v13.276h-3.398v-12.645
		c0-1.344-0.119-2.364-0.356-3.062c-0.237-0.697-0.619-1.179-1.146-1.441c-0.527-0.264-1.251-0.396-2.173-0.396
		c-0.896,0-1.812,0.118-2.746,0.355c-0.936,0.237-2.009,0.659-3.221,1.265v15.924h-3.398v-20.587h3.398v2.371
		c1.211-0.896,2.357-1.547,3.438-1.956c1.08-0.408,2.305-0.612,3.675-0.612C81.96,422.154,83.468,422.72,84.403,423.853z"/>
	<path fill="#FFFFFF" d="M108.447,442.345c-1.318,0.369-2.714,0.658-4.188,0.869c-1.476,0.211-2.78,0.316-3.912,0.316
		c-5.69,0-8.535-3.464-8.535-10.393c0-3.793,0.81-6.604,2.43-8.436c1.62-1.831,3.853-2.746,6.698-2.746
		c1.186,0,2.515,0.211,3.991,0.632v-11.262h3.478L108.447,442.345z M96.573,439.066c1.014,1.133,2.456,1.699,4.327,1.699
		c1.027,0,2.371-0.172,4.03-0.514v-15.134c-1.159-0.29-2.252-0.435-3.279-0.435c-2.082,0-3.702,0.646-4.86,1.936
		c-1.16,1.291-1.739,3.465-1.739,6.52C95.052,435.958,95.559,437.933,96.573,439.066z"/>
	<path fill="#FFFFFF" d="M126.623,425.473c-1.343,0-2.661,0.204-3.951,0.612c-1.291,0.409-2.411,0.955-3.359,1.64v15.213h-3.398
		v-20.587h3.398v2.727c0.974-0.816,2.134-1.501,3.478-2.055c1.343-0.553,2.7-0.843,4.07-0.869L126.623,425.473z"/>
	<path fill="#FFFFFF" d="M132.056,441.001c-1.436-1.686-2.153-4.411-2.153-8.179c0-3.715,0.724-6.421,2.173-8.12
		s3.701-2.549,6.757-2.549c3.056,0,5.301,0.844,6.737,2.529c1.436,1.686,2.153,4.386,2.153,8.1c0,3.715-0.731,6.435-2.193,8.16
		s-3.734,2.588-6.816,2.588C135.711,443.531,133.492,442.688,132.056,441.001z M142.962,438.848
		c0.882-1.251,1.324-3.378,1.324-6.381c0-1.949-0.178-3.478-0.534-4.584c-0.355-1.106-0.916-1.902-1.679-2.391
		c-0.764-0.487-1.805-0.73-3.122-0.73c-1.37,0-2.463,0.263-3.279,0.79c-0.817,0.527-1.41,1.377-1.778,2.549
		c-0.369,1.172-0.553,2.76-0.553,4.761c0,1.976,0.184,3.537,0.553,4.683c0.369,1.146,0.929,1.963,1.679,2.45
		c0.751,0.487,1.758,0.73,3.023,0.73C140.624,440.725,142.079,440.1,142.962,438.848z"/>
	<path fill="#FFFFFF" d="M168.863,423.577v18.769c0,3.161-0.679,5.413-2.035,6.757c-1.357,1.344-3.365,2.016-6.026,2.016
		c-2.766,0-5.334-0.962-7.705-2.885l1.027-2.016c0.869,0.712,1.863,1.258,2.983,1.641c1.119,0.381,2.14,0.572,3.062,0.572
		c1.739,0,3.076-0.382,4.011-1.146c0.935-0.765,1.403-2.227,1.403-4.386v-1.384c-1.713,1.318-3.583,1.976-5.611,1.976
		c-2.292,0-4.156-0.822-5.591-2.469c-1.436-1.646-2.153-4.261-2.153-7.844c0-3.793,0.836-6.585,2.509-8.377
		c1.673-1.791,3.984-2.687,6.935-2.687c1.132,0,2.345,0.112,3.635,0.335c1.291,0.225,2.49,0.534,3.596,0.929L168.863,423.577z
		 M163.271,440.389c0.909-0.25,1.679-0.586,2.312-1.008v-14.027c-1.106-0.236-2.252-0.355-3.438-0.355
		c-2.187,0-3.847,0.561-4.979,1.68c-1.133,1.12-1.699,3.155-1.699,6.104c0,2.924,0.5,4.985,1.502,6.185
		c1,1.198,2.252,1.798,3.753,1.798C161.513,440.765,162.363,440.64,163.271,440.389z"/>
	<path fill="#FFFFFF" d="M190.951,422.351l-9.602,28.489h-3.358l2.647-7.902h-0.316l-6.954-20.587h3.714l5.058,16.912l5.334-16.912
		H190.951z"/>
	<path fill="#FFFFFF" d="M210.489,423.853c0.935,1.133,1.403,3.069,1.403,5.809v13.276h-3.398v-12.645
		c0-1.344-0.119-2.364-0.356-3.062c-0.237-0.697-0.619-1.179-1.146-1.441c-0.527-0.264-1.251-0.396-2.173-0.396
		c-0.896,0-1.812,0.118-2.746,0.355c-0.936,0.237-2.009,0.659-3.221,1.265v15.924h-3.398v-20.587h3.398v2.371
		c1.211-0.896,2.357-1.547,3.438-1.956c1.08-0.408,2.305-0.612,3.675-0.612C208.046,422.154,209.554,422.72,210.489,423.853z"/>
	<path fill="#FFFFFF" d="M220.051,441.001c-1.436-1.686-2.153-4.411-2.153-8.179c0-3.715,0.724-6.421,2.173-8.12
		s3.701-2.549,6.757-2.549c3.056,0,5.301,0.844,6.737,2.529c1.436,1.686,2.153,4.386,2.153,8.1c0,3.715-0.731,6.435-2.193,8.16
		s-3.734,2.588-6.816,2.588C223.706,443.531,221.487,442.688,220.051,441.001z M230.957,438.848
		c0.882-1.251,1.324-3.378,1.324-6.381c0-1.949-0.178-3.478-0.534-4.584c-0.355-1.106-0.916-1.902-1.679-2.391
		c-0.764-0.487-1.805-0.73-3.122-0.73c-1.37,0-2.463,0.263-3.279,0.79c-0.817,0.527-1.41,1.377-1.778,2.549
		c-0.369,1.172-0.553,2.76-0.553,4.761c0,1.976,0.184,3.537,0.553,4.683c0.369,1.146,0.929,1.963,1.679,2.45
		c0.751,0.487,1.758,0.73,3.023,0.73C228.619,440.725,230.074,440.1,230.957,438.848z"/>
	<path fill="#FFFFFF" d="M257.411,422.351v20.587h-3.398v-2.094c-1.081,0.79-2.121,1.369-3.122,1.738
		c-1.001,0.368-2.081,0.553-3.24,0.553c-2.107,0-3.629-0.565-4.563-1.699c-0.936-1.132-1.403-3.068-1.403-5.808v-13.277h3.517
		v12.764c0,1.343,0.119,2.37,0.355,3.082c0.237,0.711,0.606,1.198,1.106,1.462c0.5,0.264,1.211,0.395,2.134,0.395
		c1.344,0,3.082-0.514,5.216-1.541v-16.161H257.411z"/>
	<path fill="#FFFFFF" d="M264.444,437.367c0.737,0.869,1.751,1.587,3.042,2.153c1.29,0.566,2.542,0.85,3.754,0.85
		c1.238,0,2.258-0.322,3.062-0.968c0.803-0.646,1.205-1.442,1.205-2.391c0-0.712-0.231-1.291-0.691-1.739
		c-0.461-0.447-1.027-0.796-1.699-1.047c-0.671-0.25-1.587-0.533-2.746-0.85c-1.422-0.395-2.555-0.771-3.398-1.126
		c-0.843-0.355-1.568-0.875-2.173-1.561c-0.606-0.685-0.909-1.581-0.909-2.688c0-1.211,0.342-2.258,1.027-3.141
		c0.685-0.883,1.6-1.555,2.746-2.016s2.377-0.691,3.694-0.691c1.265,0,2.45,0.197,3.557,0.593c1.106,0.396,2.081,0.922,2.924,1.58
		l-1.027,2.332c-0.791-0.5-1.64-0.896-2.549-1.186c-0.909-0.29-1.798-0.435-2.667-0.435c-1.239,0-2.299,0.264-3.181,0.79
		c-0.883,0.527-1.324,1.225-1.324,2.094c0,0.765,0.355,1.331,1.067,1.699c0.711,0.369,1.843,0.738,3.398,1.106
		c1.501,0.369,2.727,0.738,3.675,1.106c0.948,0.369,1.765,0.962,2.45,1.778c0.685,0.816,1.027,1.91,1.027,3.279
		c0,1.95-0.678,3.504-2.035,4.663c-1.357,1.159-3.102,1.738-5.236,1.738c-1.607,0-3.194-0.329-4.761-0.987
		c-1.568-0.658-2.786-1.581-3.655-2.767L264.444,437.367z"/>
</g>
<g>
	<path fill="#FFFFFF" d="M404.033,65.318c-1.816,0.844-3.338,1.416-4.563,1.719s-2.562,0.454-4.011,0.454
		c-4.558,0-7.863-1.225-9.918-3.674c-2.055-2.45-3.082-6.322-3.082-11.617c0-5.374,1.014-9.299,3.042-11.775
		c2.028-2.476,5.189-3.714,9.483-3.714c1.501,0,2.917,0.164,4.248,0.493c1.33,0.33,2.693,0.877,4.09,1.641l-0.869,2.726
		c-1.317-0.685-2.497-1.185-3.537-1.501c-1.041-0.316-2.259-0.475-3.655-0.475c-2.187,0-3.952,0.429-5.295,1.284
		c-1.344,0.856-2.332,2.207-2.964,4.051c-0.632,1.844-0.948,4.281-0.948,7.31c0,2.924,0.303,5.256,0.909,6.994
		c0.605,1.738,1.58,3.017,2.924,3.833c1.343,0.816,3.161,1.225,5.453,1.225c1.923,0,3.754-0.303,5.493-0.909V54.57h-6.718v-2.924
		h9.917V65.318z"/>
	<path fill="#FFFFFF" d="M421.617,46.865c0.975,0.475,1.699,1.271,2.174,2.391c0.473,1.12,0.711,2.667,0.711,4.644v13.039h-3.004
		v-2.647c-1.791,1.976-3.938,2.964-6.439,2.964c-2.082,0-3.629-0.554-4.645-1.66c-1.014-1.106-1.52-2.502-1.52-4.188
		c0-1.949,0.605-3.483,1.816-4.603c1.211-1.12,2.951-1.68,5.217-1.68h5.254c0-1.712-0.137-2.996-0.414-3.853
		c-0.277-0.855-0.711-1.442-1.305-1.759c-0.592-0.315-1.428-0.474-2.508-0.474c-1.477,0-3.543,0.315-6.205,0.948l-0.592-2.331
		c2.555-1.001,5.07-1.502,7.547-1.502C419.338,46.154,420.643,46.391,421.617,46.865z M421.182,62.275v-4.662h-5.215
		c-1.449,0-2.469,0.35-3.062,1.047c-0.592,0.698-0.889,1.509-0.889,2.431c0,1.027,0.322,1.837,0.969,2.43
		c0.645,0.593,1.52,0.889,2.627,0.889C417.297,64.409,419.154,63.698,421.182,62.275z"/>
	<path fill="#FFFFFF" d="M446.59,46.351l-9.602,28.489h-3.359l2.648-7.902h-0.316l-6.955-20.587h3.715l5.057,16.912l5.336-16.912
		H446.59z"/>
	<path fill="#FFFFFF" d="M360.332,131.303v29.635h-3.279l-13.83-23.787l-0.079,23.787h-3.279v-29.635h3.398l13.791,23.747v-23.747
		H360.332z"/>
	<path fill="#FFFFFF" d="M378.409,158.37c0.803-0.184,1.771-0.461,2.904-0.83l0.514,2.608c-1.291,0.5-2.41,0.869-3.359,1.106
		c-0.948,0.236-1.95,0.355-3.003,0.355c-2.766,0-4.973-0.869-6.619-2.608c-1.646-1.738-2.469-4.478-2.469-8.219
		c0-3.688,0.796-6.381,2.391-8.08c1.593-1.699,3.72-2.549,6.381-2.549c2.476,0,4.248,0.672,5.314,2.016
		c1.067,1.343,1.6,3.2,1.6,5.571c0,1.476-0.092,2.687-0.276,3.635l-12.012-0.039c0.131,2.766,0.724,4.676,1.778,5.729
		c1.053,1.054,2.476,1.58,4.267,1.58C376.743,158.646,377.605,158.554,378.409,158.37z M371.396,144.085
		c-0.896,0.936-1.422,2.522-1.581,4.762l9.127-0.119c0.053-0.685,0.079-1.251,0.079-1.699c0-1.396-0.31-2.469-0.928-3.22
		c-0.62-0.751-1.654-1.126-3.102-1.126C373.49,142.683,372.291,143.151,371.396,144.085z"/>
	<path fill="#FFFFFF" d="M403.797,140.351v20.587h-3.399v-2.094c-1.081,0.79-2.121,1.369-3.122,1.738
		c-1.001,0.368-2.081,0.553-3.24,0.553c-2.107,0-3.629-0.565-4.563-1.699c-0.936-1.132-1.403-3.068-1.403-5.808v-13.277h3.517
		v12.764c0,1.343,0.119,2.37,0.355,3.082c0.237,0.711,0.606,1.198,1.106,1.462c0.5,0.264,1.211,0.395,2.134,0.395
		c1.344,0,3.082-0.514,5.216-1.541v-16.161H403.797z"/>
	<path fill="#FFFFFF" d="M421.973,160.82c-1.213,0.263-2.318,0.395-3.32,0.395c-2.635,0-4.479-0.691-5.531-2.074
		c-1.055-1.383-1.58-3.55-1.58-6.5v-9.8h-2.49v-2.489h2.49v-5.295h3.279v5.295h5.768v2.489h-5.768v9.839
		c0,1.528,0.15,2.721,0.453,3.576c0.303,0.856,0.791,1.462,1.463,1.818c0.672,0.355,1.586,0.533,2.746,0.533
		c0.395,0,1.066-0.053,2.016-0.158L421.973,160.82z"/>
	<path fill="#FFFFFF" d="M437.225,143.473c-1.344,0-2.662,0.204-3.951,0.612c-1.291,0.409-2.41,0.955-3.359,1.64v15.213h-3.398
		v-20.587h3.398v2.727c0.975-0.816,2.135-1.501,3.477-2.055c1.344-0.553,2.701-0.843,4.07-0.869L437.225,143.473z"/>
	<path fill="#FFFFFF" d="M442.658,159.001c-1.438-1.686-2.154-4.411-2.154-8.179c0-3.715,0.725-6.421,2.174-8.12
		c1.447-1.699,3.699-2.549,6.756-2.549s5.301,0.844,6.736,2.529s2.154,4.386,2.154,8.1c0,3.715-0.73,6.435-2.193,8.16
		c-1.461,1.726-3.734,2.588-6.816,2.588C446.312,161.531,444.092,160.688,442.658,159.001z M453.562,156.848
		c0.883-1.251,1.324-3.378,1.324-6.381c0-1.949-0.178-3.478-0.533-4.584s-0.916-1.902-1.68-2.391
		c-0.764-0.487-1.805-0.73-3.121-0.73c-1.371,0-2.463,0.263-3.279,0.79c-0.818,0.527-1.41,1.377-1.779,2.549
		s-0.553,2.76-0.553,4.761c0,1.976,0.184,3.537,0.553,4.683s0.93,1.963,1.68,2.45s1.758,0.73,3.023,0.73
		C451.225,158.725,452.68,158.1,453.562,156.848z"/>
	<path fill="#FFFFFF" d="M464.369,135.235c-0.449-0.436-0.672-0.969-0.672-1.601c0-0.605,0.217-1.119,0.652-1.541
		c0.434-0.421,0.98-0.633,1.639-0.633c0.633,0,1.166,0.212,1.602,0.633c0.434,0.422,0.652,0.948,0.652,1.58
		c0,0.633-0.219,1.16-0.652,1.581c-0.436,0.422-0.969,0.632-1.602,0.632C465.357,135.886,464.816,135.669,464.369,135.235z
		 M464.25,140.351h3.398v20.587h-3.398V140.351z"/>
	<path fill="#FFFFFF" d="M474.602,155.367c0.738,0.869,1.752,1.587,3.043,2.153s2.543,0.85,3.754,0.85
		c1.238,0,2.258-0.322,3.062-0.968c0.803-0.646,1.205-1.442,1.205-2.391c0-0.712-0.23-1.291-0.691-1.739
		c-0.461-0.447-1.027-0.796-1.699-1.047c-0.672-0.25-1.588-0.533-2.746-0.85c-1.422-0.395-2.555-0.771-3.398-1.126
		s-1.566-0.875-2.174-1.561c-0.605-0.685-0.908-1.581-0.908-2.688c0-1.211,0.342-2.258,1.027-3.141s1.602-1.555,2.746-2.016
		c1.146-0.461,2.377-0.691,3.695-0.691c1.264,0,2.449,0.197,3.557,0.593c1.105,0.396,2.08,0.922,2.924,1.58l-1.027,2.332
		c-0.791-0.5-1.641-0.896-2.549-1.186s-1.799-0.435-2.668-0.435c-1.238,0-2.299,0.264-3.18,0.79
		c-0.883,0.527-1.324,1.225-1.324,2.094c0,0.765,0.355,1.331,1.066,1.699c0.711,0.369,1.844,0.738,3.398,1.106
		c1.502,0.369,2.727,0.738,3.674,1.106c0.949,0.369,1.766,0.962,2.451,1.778c0.684,0.816,1.027,1.91,1.027,3.279
		c0,1.95-0.68,3.504-2.035,4.663c-1.357,1.159-3.102,1.738-5.236,1.738c-1.607,0-3.193-0.329-4.762-0.987
		c-1.566-0.658-2.785-1.581-3.654-2.767L474.602,155.367z"/>
	<path fill="#FFFFFF" d="M398.324,254.938l-2.331-24.262l-6.955,20.469h-3.556l-6.994-20.469l-2.252,24.262h-3.478l3.083-29.793
		h3.674l7.706,22.483l7.705-22.483h3.714l3.161,29.793H398.324z"/>
	<path fill="#FFFFFF" d="M419.74,234.865c0.975,0.475,1.699,1.271,2.174,2.391c0.473,1.12,0.711,2.667,0.711,4.644v13.039h-3.004
		v-2.647c-1.791,1.976-3.938,2.964-6.439,2.964c-2.082,0-3.629-0.554-4.645-1.66c-1.014-1.106-1.52-2.502-1.52-4.188
		c0-1.949,0.605-3.483,1.816-4.603c1.211-1.12,2.951-1.68,5.217-1.68h5.254c0-1.712-0.137-2.996-0.414-3.853
		c-0.277-0.855-0.711-1.442-1.305-1.759c-0.592-0.315-1.428-0.474-2.508-0.474c-1.477,0-3.543,0.315-6.205,0.948l-0.592-2.331
		c2.555-1.001,5.07-1.502,7.547-1.502C417.461,234.154,418.766,234.391,419.74,234.865z M419.305,250.275v-4.662h-5.215
		c-1.449,0-2.469,0.35-3.062,1.047c-0.592,0.698-0.889,1.509-0.889,2.431c0,1.027,0.322,1.837,0.969,2.43
		c0.645,0.593,1.52,0.889,2.627,0.889C415.42,252.409,417.277,251.698,419.305,250.275z"/>
	<path fill="#FFFFFF" d="M430.092,223.327h3.398v31.611h-3.398V223.327z"/>
	<path fill="#FFFFFF" d="M451.488,252.37c0.805-0.184,1.771-0.461,2.904-0.83l0.514,2.608c-1.291,0.5-2.41,0.869-3.357,1.106
		c-0.949,0.236-1.951,0.355-3.004,0.355c-2.766,0-4.973-0.869-6.619-2.608c-1.646-1.738-2.469-4.478-2.469-8.219
		c0-3.688,0.797-6.381,2.391-8.08s3.721-2.549,6.381-2.549c2.477,0,4.248,0.672,5.314,2.016c1.066,1.343,1.602,3.2,1.602,5.571
		c0,1.476-0.094,2.687-0.277,3.635l-12.012-0.039c0.131,2.766,0.725,4.676,1.777,5.729s2.477,1.58,4.268,1.58
		C449.822,252.646,450.686,252.554,451.488,252.37z M444.475,238.085c-0.895,0.936-1.422,2.522-1.58,4.762l9.127-0.119
		c0.053-0.685,0.08-1.251,0.08-1.699c0-1.396-0.311-2.469-0.93-3.22s-1.652-1.126-3.102-1.126
		C446.568,236.683,445.371,237.151,444.475,238.085z"/>
	<path fill="#FFFFFF" d="M356.637,341.351h-11.617l-2.371,7.587h-3.675l9.839-29.793h4.11l9.799,29.793h-3.714L356.637,341.351z
		 M355.729,338.467l-4.939-15.767l-4.9,15.767H355.729z"/>
	<path fill="#FFFFFF" d="M383.427,329.577v18.769c0,3.161-0.679,5.413-2.035,6.757c-1.357,1.344-3.365,2.016-6.026,2.016
		c-2.766,0-5.334-0.962-7.705-2.885l1.027-2.016c0.869,0.712,1.863,1.258,2.983,1.641c1.119,0.381,2.14,0.572,3.062,0.572
		c1.739,0,3.076-0.382,4.011-1.146c0.935-0.765,1.403-2.227,1.403-4.386v-1.384c-1.713,1.318-3.583,1.976-5.611,1.976
		c-2.292,0-4.156-0.822-5.591-2.469c-1.436-1.646-2.153-4.261-2.153-7.844c0-3.793,0.836-6.585,2.509-8.377
		c1.673-1.791,3.984-2.687,6.935-2.687c1.132,0,2.345,0.112,3.635,0.335c1.291,0.225,2.49,0.534,3.596,0.929L383.427,329.577z
		 M377.836,346.389c0.909-0.25,1.679-0.586,2.312-1.008v-14.027c-1.106-0.236-2.252-0.355-3.438-0.355
		c-2.187,0-3.847,0.561-4.979,1.68c-1.133,1.12-1.699,3.155-1.699,6.104c0,2.924,0.5,4.985,1.502,6.185
		c1,1.198,2.252,1.798,3.753,1.798C376.078,346.765,376.927,346.64,377.836,346.389z"/>
	<path fill="#FFFFFF" d="M401.465,346.37c0.805-0.184,1.771-0.461,2.904-0.83l0.514,2.608c-1.291,0.5-2.41,0.869-3.357,1.106
		c-0.95,0.236-1.951,0.355-3.004,0.355c-2.766,0-4.973-0.869-6.619-2.608c-1.646-1.738-2.469-4.478-2.469-8.219
		c0-3.688,0.796-6.381,2.391-8.08c1.593-1.699,3.72-2.549,6.381-2.549c2.476,0,4.248,0.672,5.314,2.016
		c1.066,1.343,1.602,3.2,1.602,5.571c0,1.476-0.094,2.687-0.277,3.635l-12.013-0.039c0.131,2.766,0.724,4.676,1.778,5.729
		c1.053,1.054,2.476,1.58,4.267,1.58C399.798,346.646,400.662,346.554,401.465,346.37z M394.451,332.085
		c-0.896,0.936-1.422,2.522-1.581,4.762l9.127-0.119c0.053-0.685,0.08-1.251,0.08-1.699c0-1.396-0.311-2.469-0.93-3.22
		c-0.619-0.751-1.653-1.126-3.101-1.126C396.545,330.683,395.346,331.151,394.451,332.085z"/>
	<path fill="#FFFFFF" d="M426.201,329.853c0.934,1.133,1.402,3.069,1.402,5.809v13.276h-3.398v-12.645
		c0-1.344-0.119-2.364-0.355-3.062c-0.238-0.697-0.619-1.179-1.146-1.441c-0.527-0.264-1.252-0.396-2.174-0.396
		c-0.895,0-1.811,0.118-2.746,0.355s-2.008,0.659-3.219,1.265v15.924h-3.398v-20.587h3.398v2.371
		c1.211-0.896,2.355-1.547,3.438-1.956c1.08-0.408,2.305-0.612,3.674-0.612C423.756,328.154,425.266,328.72,426.201,329.853z"/>
	<path fill="#FFFFFF" d="M450.244,348.345c-1.318,0.369-2.715,0.658-4.189,0.869s-2.779,0.316-3.912,0.316
		c-5.689,0-8.535-3.464-8.535-10.393c0-3.793,0.811-6.604,2.432-8.436c1.619-1.831,3.852-2.746,6.697-2.746
		c1.186,0,2.516,0.211,3.99,0.632v-11.262h3.477L450.244,348.345z M438.369,345.066c1.014,1.133,2.457,1.699,4.328,1.699
		c1.027,0,2.369-0.172,4.029-0.514v-15.134c-1.16-0.29-2.252-0.435-3.279-0.435c-2.082,0-3.701,0.646-4.859,1.936
		c-1.16,1.291-1.74,3.465-1.74,6.52C436.848,341.958,437.355,343.933,438.369,345.066z"/>
	<path fill="#FFFFFF" d="M468.242,346.37c0.803-0.184,1.771-0.461,2.904-0.83l0.514,2.608c-1.291,0.5-2.41,0.869-3.359,1.106
		c-0.947,0.236-1.949,0.355-3.002,0.355c-2.768,0-4.973-0.869-6.619-2.608c-1.646-1.738-2.471-4.478-2.471-8.219
		c0-3.688,0.797-6.381,2.391-8.08s3.721-2.549,6.383-2.549c2.475,0,4.248,0.672,5.314,2.016c1.066,1.343,1.6,3.2,1.6,5.571
		c0,1.476-0.092,2.687-0.277,3.635l-12.012-0.039c0.133,2.766,0.725,4.676,1.779,5.729c1.053,1.054,2.475,1.58,4.268,1.58
		C466.576,346.646,467.438,346.554,468.242,346.37z M461.229,332.085c-0.896,0.936-1.424,2.522-1.58,4.762l9.127-0.119
		c0.053-0.685,0.078-1.251,0.078-1.699c0-1.396-0.309-2.469-0.928-3.22s-1.654-1.126-3.102-1.126
		C463.322,330.683,462.123,331.151,461.229,332.085z"/>
	<path fill="#FFFFFF" d="M488.65,331.473c-1.344,0-2.662,0.204-3.951,0.612c-1.291,0.409-2.41,0.955-3.359,1.64v15.213h-3.398
		v-20.587h3.398v2.727c0.975-0.816,2.135-1.501,3.477-2.055c1.344-0.553,2.701-0.843,4.07-0.869L488.65,331.473z"/>
	<path fill="#FFFFFF" d="M364.362,439.935v3.003h-17.504v-29.635h3.438v26.632H364.362z"/>
	<path fill="#FFFFFF" d="M379.831,440.37c0.803-0.184,1.771-0.461,2.904-0.83l0.514,2.608c-1.291,0.5-2.41,0.869-3.359,1.106
		c-0.948,0.236-1.95,0.355-3.003,0.355c-2.766,0-4.973-0.869-6.619-2.608c-1.646-1.738-2.469-4.478-2.469-8.219
		c0-3.688,0.796-6.381,2.391-8.08c1.593-1.699,3.72-2.549,6.381-2.549c2.476,0,4.248,0.672,5.314,2.016
		c1.067,1.343,1.6,3.2,1.6,5.571c0,1.476-0.092,2.687-0.276,3.635l-12.012-0.039c0.131,2.766,0.724,4.676,1.778,5.729
		c1.053,1.054,2.476,1.58,4.267,1.58C378.165,440.646,379.027,440.554,379.831,440.37z M372.817,426.085
		c-0.896,0.936-1.422,2.522-1.581,4.762l9.127-0.119c0.053-0.685,0.079-1.251,0.079-1.699c0-1.396-0.31-2.469-0.928-3.22
		c-0.62-0.751-1.654-1.126-3.102-1.126C374.912,424.683,373.712,425.151,372.817,426.085z"/>
	<path fill="#FFFFFF" d="M389.057,437.367c0.737,0.869,1.751,1.587,3.042,2.153c1.29,0.566,2.542,0.85,3.754,0.85
		c1.238,0,2.258-0.322,3.062-0.968c0.803-0.646,1.205-1.442,1.205-2.391c0-0.712-0.231-1.291-0.691-1.739
		c-0.461-0.447-1.027-0.796-1.699-1.047c-0.671-0.25-1.587-0.533-2.746-0.85c-1.422-0.395-2.555-0.771-3.398-1.126
		c-0.843-0.355-1.568-0.875-2.173-1.561c-0.606-0.685-0.909-1.581-0.909-2.688c0-1.211,0.342-2.258,1.027-3.141
		c0.685-0.883,1.6-1.555,2.746-2.016s2.377-0.691,3.694-0.691c1.265,0,2.45,0.197,3.557,0.593c1.106,0.396,2.081,0.922,2.925,1.58
		l-1.027,2.332c-0.792-0.5-1.641-0.896-2.55-1.186c-0.909-0.29-1.798-0.435-2.667-0.435c-1.239,0-2.299,0.264-3.181,0.79
		c-0.883,0.527-1.324,1.225-1.324,2.094c0,0.765,0.355,1.331,1.067,1.699c0.711,0.369,1.843,0.738,3.398,1.106
		c1.501,0.369,2.727,0.738,3.675,1.106c0.948,0.369,1.765,0.962,2.451,1.778c0.684,0.816,1.027,1.91,1.027,3.279
		c0,1.95-0.68,3.504-2.036,4.663c-1.357,1.159-3.102,1.738-5.236,1.738c-1.607,0-3.194-0.329-4.761-0.987
		c-1.568-0.658-2.786-1.581-3.655-2.767L389.057,437.367z"/>
	<path fill="#FFFFFF" d="M423.414,424.624c1.436,1.646,2.152,4.261,2.152,7.844c0,3.793-0.836,6.585-2.508,8.377
		c-1.674,1.791-3.984,2.687-6.936,2.687c-1.133,0-2.344-0.112-3.635-0.336s-2.49-0.533-3.596-0.929v-0.039l0.039-30.9h3.398v12.724
		c1.66-1.265,3.49-1.896,5.492-1.896C420.115,422.154,421.979,422.977,423.414,424.624z M420.629,438.967
		c1.131-1.12,1.697-3.154,1.697-6.105c0-2.924-0.5-4.984-1.5-6.184c-1.002-1.198-2.252-1.798-3.754-1.798
		c-0.738,0-1.555,0.125-2.451,0.375c-0.895,0.251-1.658,0.561-2.291,0.929v14.146c1.133,0.211,2.238,0.315,3.318,0.315
		C417.836,440.646,419.494,440.086,420.629,438.967z"/>
	<path fill="#FFFFFF" d="M431.613,417.235c-0.449-0.436-0.672-0.969-0.672-1.601c0-0.605,0.217-1.119,0.652-1.541
		c0.434-0.421,0.98-0.633,1.639-0.633c0.633,0,1.166,0.212,1.602,0.633c0.434,0.422,0.652,0.948,0.652,1.58
		c0,0.633-0.219,1.16-0.652,1.581c-0.436,0.422-0.969,0.632-1.602,0.632C432.602,417.886,432.061,417.669,431.613,417.235z
		 M431.494,422.351h3.398v20.587h-3.398V422.351z"/>
	<path fill="#FFFFFF" d="M453.146,422.865c0.975,0.475,1.699,1.271,2.174,2.391c0.475,1.12,0.711,2.667,0.711,4.644v13.039h-3.002
		v-2.647c-1.793,1.976-3.939,2.964-6.441,2.964c-2.08,0-3.629-0.554-4.643-1.66s-1.521-2.502-1.521-4.188
		c0-1.949,0.605-3.483,1.818-4.603c1.211-1.12,2.949-1.68,5.215-1.68h5.256c0-1.712-0.139-2.996-0.414-3.853
		c-0.277-0.855-0.713-1.442-1.305-1.759c-0.594-0.315-1.43-0.474-2.51-0.474c-1.475,0-3.543,0.315-6.203,0.948l-0.594-2.331
		c2.557-1.001,5.072-1.502,7.549-1.502C450.869,422.154,452.172,422.391,453.146,422.865z M452.713,438.275v-4.662h-5.217
		c-1.447,0-2.469,0.35-3.061,1.047c-0.594,0.698-0.891,1.509-0.891,2.431c0,1.027,0.322,1.837,0.969,2.43
		c0.645,0.593,1.521,0.889,2.627,0.889C448.826,440.409,450.684,439.698,452.713,438.275z"/>
	<path fill="#FFFFFF" d="M478.574,423.853c0.936,1.133,1.402,3.069,1.402,5.809v13.276h-3.398v-12.645
		c0-1.344-0.117-2.364-0.355-3.062c-0.236-0.697-0.619-1.179-1.145-1.441c-0.527-0.264-1.252-0.396-2.174-0.396
		c-0.896,0-1.812,0.118-2.746,0.355c-0.936,0.237-2.01,0.659-3.221,1.265v15.924h-3.398v-20.587h3.398v2.371
		c1.211-0.896,2.357-1.547,3.438-1.956c1.08-0.408,2.305-0.612,3.676-0.612C476.131,422.154,477.639,422.72,478.574,423.853z"/>
</g>
<g>
	<path fill="#FFFFFF" d="M536.775,63.836c-1.937-2.463-2.904-6.395-2.904-11.795c0-5.348,0.968-9.239,2.904-11.677
		c1.937-2.436,4.933-3.654,8.989-3.654c4.03,0,7.014,1.219,8.95,3.654c1.936,2.438,2.904,6.329,2.904,11.677
		c0,5.4-0.969,9.332-2.904,11.795c-1.937,2.463-4.92,3.694-8.95,3.694C541.708,67.531,538.712,66.299,536.775,63.836z
		 M550.507,63.303c1.211-0.843,2.106-2.18,2.687-4.011c0.579-1.831,0.869-4.248,0.869-7.251s-0.29-5.427-0.869-7.271
		c-0.58-1.844-1.476-3.188-2.687-4.03c-1.212-0.843-2.793-1.265-4.742-1.265s-3.536,0.429-4.762,1.284
		c-1.225,0.856-2.127,2.2-2.706,4.03c-0.58,1.831-0.869,4.248-0.869,7.251s0.289,5.42,0.869,7.251
		c0.579,1.831,1.481,3.168,2.706,4.011c1.226,0.843,2.812,1.264,4.762,1.264S549.295,64.146,550.507,63.303z"/>
	<path fill="#FFFFFF" d="M575.044,66.82c-1.212,0.263-2.318,0.395-3.319,0.395c-2.635,0-4.479-0.691-5.532-2.074
		s-1.58-3.55-1.58-6.5v-9.8h-2.489v-2.489h2.489v-5.295h3.279v5.295h5.769v2.489h-5.769v9.839c0,1.528,0.151,2.721,0.454,3.576
		c0.303,0.856,0.791,1.462,1.462,1.818c0.672,0.355,1.587,0.533,2.747,0.533c0.395,0,1.066-0.053,2.015-0.158L575.044,66.82z"/>
	<path fill="#FFFFFF" d="M594.504,47.853c0.935,1.133,1.403,3.069,1.403,5.809v13.276h-3.398V54.293
		c0-1.344-0.118-2.364-0.355-3.062c-0.237-0.697-0.619-1.179-1.146-1.441c-0.527-0.264-1.251-0.396-2.173-0.396
		c-0.896,0-1.805,0.118-2.727,0.355s-1.976,0.646-3.161,1.225v15.964h-3.398V35.327h3.398v13.356
		c1.159-0.87,2.278-1.508,3.358-1.917c1.08-0.408,2.305-0.612,3.675-0.612C592.061,46.154,593.568,46.72,594.504,47.853z"/>
	<path fill="#FFFFFF" d="M613.944,64.37c0.804-0.184,1.771-0.461,2.904-0.83l0.514,2.608c-1.291,0.5-2.41,0.869-3.358,1.106
		c-0.948,0.236-1.95,0.355-3.003,0.355c-2.767,0-4.973-0.869-6.619-2.608c-1.646-1.738-2.47-4.478-2.47-8.219
		c0-3.688,0.797-6.381,2.391-8.08s3.721-2.549,6.382-2.549c2.476,0,4.248,0.672,5.314,2.016c1.066,1.343,1.601,3.2,1.601,5.571
		c0,1.476-0.093,2.687-0.277,3.635l-12.012-0.039c0.132,2.766,0.725,4.676,1.778,5.729c1.053,1.054,2.476,1.58,4.268,1.58
		C612.278,64.646,613.141,64.554,613.944,64.37z M606.931,50.085c-0.896,0.936-1.423,2.522-1.58,4.762l9.127-0.119
		c0.053-0.685,0.079-1.251,0.079-1.699c0-1.396-0.31-2.469-0.929-3.22s-1.653-1.126-3.102-1.126
		C609.024,48.683,607.826,49.151,606.931,50.085z"/>
	<path fill="#FFFFFF" d="M634.353,49.473c-1.344,0-2.661,0.204-3.951,0.612c-1.291,0.409-2.41,0.955-3.358,1.64v15.213h-3.398
		V46.351h3.398v2.727c0.974-0.816,2.134-1.501,3.477-2.055c1.344-0.553,2.7-0.843,4.07-0.869L634.353,49.473z"/>
	<path fill="#FFFFFF" d="M669.835,65.318c-1.817,0.844-3.339,1.416-4.563,1.719s-2.562,0.454-4.011,0.454
		c-4.558,0-7.863-1.225-9.918-3.674c-2.055-2.45-3.082-6.322-3.082-11.617c0-5.374,1.014-9.299,3.043-11.775
		c2.028-2.476,5.188-3.714,9.483-3.714c1.501,0,2.917,0.164,4.247,0.493c1.33,0.33,2.693,0.877,4.09,1.641l-0.869,2.726
		c-1.317-0.685-2.496-1.185-3.537-1.501c-1.04-0.316-2.259-0.475-3.654-0.475c-2.188,0-3.951,0.429-5.295,1.284
		c-1.344,0.856-2.331,2.207-2.964,4.051c-0.632,1.844-0.948,4.281-0.948,7.31c0,2.924,0.303,5.256,0.909,6.994
		c0.605,1.738,1.58,3.017,2.924,3.833s3.161,1.225,5.453,1.225c1.922,0,3.754-0.303,5.492-0.909V54.57h-6.718v-2.924h9.918V65.318z"
		/>
	<path fill="#FFFFFF" d="M687.122,64.37c0.804-0.184,1.771-0.461,2.904-0.83l0.514,2.608c-1.291,0.5-2.41,0.869-3.358,1.106
		c-0.948,0.236-1.95,0.355-3.003,0.355c-2.767,0-4.973-0.869-6.619-2.608c-1.646-1.738-2.47-4.478-2.47-8.219
		c0-3.688,0.797-6.381,2.391-8.08s3.721-2.549,6.382-2.549c2.476,0,4.248,0.672,5.314,2.016c1.066,1.343,1.601,3.2,1.601,5.571
		c0,1.476-0.093,2.687-0.277,3.635l-12.012-0.039c0.132,2.766,0.725,4.676,1.778,5.729c1.053,1.054,2.476,1.58,4.268,1.58
		C685.456,64.646,686.318,64.554,687.122,64.37z M680.108,50.085c-0.896,0.936-1.423,2.522-1.58,4.762l9.127-0.119
		c0.053-0.685,0.079-1.251,0.079-1.699c0-1.396-0.31-2.469-0.929-3.22s-1.653-1.126-3.102-1.126
		C682.202,48.683,681.004,49.151,680.108,50.085z"/>
	<path fill="#FFFFFF" d="M711.857,47.853c0.935,1.133,1.402,3.069,1.402,5.809v13.276h-3.398V54.293
		c0-1.344-0.118-2.364-0.355-3.062c-0.237-0.697-0.619-1.179-1.146-1.441c-0.527-0.264-1.252-0.396-2.174-0.396
		c-0.896,0-1.812,0.118-2.746,0.355c-0.936,0.237-2.009,0.659-3.22,1.265v15.924h-3.398V46.351h3.398v2.371
		c1.211-0.896,2.356-1.547,3.438-1.956c1.08-0.408,2.305-0.612,3.675-0.612C709.413,46.154,710.922,46.72,711.857,47.853z"/>
	<path fill="#FFFFFF" d="M735.9,66.345c-1.317,0.369-2.714,0.658-4.188,0.869c-1.476,0.211-2.779,0.316-3.912,0.316
		c-5.689,0-8.535-3.464-8.535-10.393c0-3.793,0.811-6.604,2.431-8.436s3.853-2.746,6.697-2.746c1.186,0,2.516,0.211,3.991,0.632
		V35.327h3.477L735.9,66.345z M724.026,63.066c1.014,1.133,2.456,1.699,4.327,1.699c1.027,0,2.37-0.172,4.03-0.514V49.118
		c-1.16-0.29-2.253-0.435-3.28-0.435c-2.081,0-3.701,0.646-4.859,1.936c-1.16,1.291-1.739,3.465-1.739,6.52
		C722.505,59.958,723.012,61.933,724.026,63.066z"/>
	<path fill="#FFFFFF" d="M753.898,64.37c0.804-0.184,1.771-0.461,2.904-0.83l0.514,2.608c-1.291,0.5-2.41,0.869-3.358,1.106
		c-0.948,0.236-1.95,0.355-3.003,0.355c-2.767,0-4.973-0.869-6.619-2.608c-1.646-1.738-2.47-4.478-2.47-8.219
		c0-3.688,0.797-6.381,2.391-8.08s3.721-2.549,6.382-2.549c2.476,0,4.248,0.672,5.314,2.016c1.066,1.343,1.601,3.2,1.601,5.571
		c0,1.476-0.093,2.687-0.277,3.635l-12.012-0.039c0.132,2.766,0.725,4.676,1.778,5.729c1.053,1.054,2.476,1.58,4.268,1.58
		C752.232,64.646,753.095,64.554,753.898,64.37z M746.885,50.085c-0.896,0.936-1.423,2.522-1.58,4.762l9.127-0.119
		c0.053-0.685,0.079-1.251,0.079-1.699c0-1.396-0.31-2.469-0.929-3.22s-1.653-1.126-3.102-1.126
		C748.979,48.683,747.78,49.151,746.885,50.085z"/>
	<path fill="#FFFFFF" d="M774.307,49.473c-1.344,0-2.661,0.204-3.951,0.612c-1.291,0.409-2.41,0.955-3.358,1.64v15.213h-3.398
		V46.351h3.398v2.727c0.974-0.816,2.134-1.501,3.477-2.055c1.344-0.553,2.7-0.843,4.07-0.869L774.307,49.473z"/>
	<path fill="#FFFFFF" d="M593.518,134.385v10.945h13.948v3.003h-13.948v12.604h-3.478v-29.635h18.611v3.082H593.518z"/>
	<path fill="#FFFFFF" d="M624.832,158.37c0.804-0.184,1.771-0.461,2.904-0.83l0.514,2.608c-1.291,0.5-2.41,0.869-3.358,1.106
		c-0.948,0.236-1.95,0.355-3.003,0.355c-2.767,0-4.973-0.869-6.619-2.608c-1.646-1.738-2.47-4.478-2.47-8.219
		c0-3.688,0.797-6.381,2.391-8.08s3.721-2.549,6.382-2.549c2.476,0,4.248,0.672,5.314,2.016c1.066,1.343,1.601,3.2,1.601,5.571
		c0,1.476-0.093,2.687-0.277,3.635l-12.012-0.039c0.132,2.766,0.725,4.676,1.778,5.729c1.053,1.054,2.476,1.58,4.268,1.58
		C623.166,158.646,624.028,158.554,624.832,158.37z M617.818,144.085c-0.896,0.936-1.423,2.522-1.58,4.762l9.127-0.119
		c0.053-0.685,0.079-1.251,0.079-1.699c0-1.396-0.31-2.469-0.929-3.22s-1.653-1.126-3.102-1.126
		C619.912,142.683,618.714,143.151,617.818,144.085z"/>
	<path fill="#FFFFFF" d="M662.567,141.853c0.935,1.133,1.402,3.069,1.402,5.809v13.276h-3.398v-12.645
		c0-1.344-0.118-2.364-0.355-3.062c-0.237-0.697-0.619-1.179-1.146-1.441c-0.527-0.264-1.252-0.396-2.174-0.396
		s-1.856,0.125-2.805,0.375c-0.949,0.251-2.042,0.691-3.28,1.324c0.105,0.658,0.158,1.515,0.158,2.568v13.276h-3.398v-12.645
		c0-1.344-0.118-2.364-0.355-3.062c-0.237-0.697-0.619-1.179-1.146-1.441c-0.527-0.264-1.252-0.396-2.174-0.396
		c-0.896,0-1.812,0.118-2.746,0.355c-0.936,0.237-2.009,0.659-3.22,1.265v15.924h-3.398v-20.587h3.398v2.371
		c1.211-0.896,2.356-1.547,3.438-1.956c1.08-0.408,2.305-0.612,3.675-0.612c1.369,0,2.489,0.237,3.358,0.711
		c0.869,0.475,1.515,1.252,1.937,2.332c1.369-1.08,2.627-1.857,3.773-2.332c1.146-0.474,2.456-0.711,3.932-0.711
		C660.123,140.154,661.632,140.72,662.567,141.853z"/>
	<path fill="#FFFFFF" d="M682.264,140.865c0.975,0.475,1.699,1.271,2.174,2.391c0.474,1.12,0.711,2.667,0.711,4.644v13.039h-3.003
		v-2.647c-1.792,1.976-3.938,2.964-6.44,2.964c-2.081,0-3.629-0.554-4.644-1.66c-1.014-1.106-1.521-2.502-1.521-4.188
		c0-1.949,0.605-3.483,1.817-4.603c1.211-1.12,2.95-1.68,5.216-1.68h5.255c0-1.712-0.138-2.996-0.414-3.853
		c-0.277-0.855-0.712-1.442-1.305-1.759c-0.593-0.315-1.429-0.474-2.509-0.474c-1.476,0-3.543,0.315-6.204,0.948l-0.593-2.331
		c2.556-1.001,5.071-1.502,7.548-1.502C679.985,140.154,681.289,140.391,682.264,140.865z M681.829,156.275v-4.662h-5.216
		c-1.448,0-2.469,0.35-3.062,1.047c-0.593,0.698-0.89,1.509-0.89,2.431c0,1.027,0.322,1.837,0.969,2.43
		c0.645,0.593,1.521,0.889,2.627,0.889C677.943,158.409,679.801,157.698,681.829,156.275z"/>
	<path fill="#FFFFFF" d="M692.616,129.327h3.398v31.611h-3.398V129.327z"/>
	<path fill="#FFFFFF" d="M714.013,158.37c0.804-0.184,1.771-0.461,2.904-0.83l0.514,2.608c-1.291,0.5-2.41,0.869-3.358,1.106
		c-0.948,0.236-1.95,0.355-3.003,0.355c-2.767,0-4.973-0.869-6.619-2.608c-1.646-1.738-2.47-4.478-2.47-8.219
		c0-3.688,0.797-6.381,2.391-8.08s3.721-2.549,6.382-2.549c2.476,0,4.248,0.672,5.314,2.016c1.066,1.343,1.601,3.2,1.601,5.571
		c0,1.476-0.093,2.687-0.277,3.635l-12.012-0.039c0.132,2.766,0.725,4.676,1.778,5.729c1.053,1.054,2.476,1.58,4.268,1.58
		C712.347,158.646,713.209,158.554,714.013,158.37z M706.999,144.085c-0.896,0.936-1.423,2.522-1.58,4.762l9.127-0.119
		c0.053-0.685,0.079-1.251,0.079-1.699c0-1.396-0.31-2.469-0.929-3.22s-1.653-1.126-3.102-1.126
		C709.093,142.683,707.895,143.151,706.999,144.085z"/>
	<path fill="#FFFFFF" d="M559.911,225.303v29.635h-3.478v-13.632h-14.066v13.632h-3.478v-29.635h3.478v12.921h14.066v-12.921
		H559.911z"/>
	<path fill="#FFFFFF" d="M577.988,252.37c0.804-0.184,1.771-0.461,2.904-0.83l0.514,2.608c-1.291,0.5-2.41,0.869-3.358,1.106
		c-0.948,0.236-1.95,0.355-3.003,0.355c-2.767,0-4.973-0.869-6.619-2.608c-1.646-1.738-2.47-4.478-2.47-8.219
		c0-3.688,0.797-6.381,2.391-8.08s3.721-2.549,6.382-2.549c2.476,0,4.248,0.672,5.314,2.016c1.066,1.343,1.601,3.2,1.601,5.571
		c0,1.476-0.093,2.687-0.277,3.635l-12.012-0.039c0.132,2.766,0.725,4.676,1.778,5.729c1.053,1.054,2.476,1.58,4.268,1.58
		C576.322,252.646,577.185,252.554,577.988,252.37z M570.975,238.085c-0.896,0.936-1.423,2.522-1.58,4.762l9.127-0.119
		c0.053-0.685,0.079-1.251,0.079-1.699c0-1.396-0.31-2.469-0.929-3.22s-1.653-1.126-3.102-1.126
		C573.068,236.683,571.87,237.151,570.975,238.085z"/>
	<path fill="#FFFFFF" d="M598.357,254.82c-1.212,0.263-2.318,0.395-3.319,0.395c-2.635,0-4.479-0.691-5.532-2.074
		s-1.58-3.55-1.58-6.5v-9.8h-2.489v-2.489h2.489v-5.295h3.279v5.295h5.769v2.489h-5.769v9.839c0,1.528,0.151,2.721,0.454,3.576
		c0.303,0.856,0.791,1.462,1.462,1.818c0.672,0.355,1.587,0.533,2.747,0.533c0.395,0,1.066-0.053,2.015-0.158L598.357,254.82z"/>
	<path fill="#FFFFFF" d="M613.432,252.37c0.804-0.184,1.771-0.461,2.904-0.83l0.514,2.608c-1.291,0.5-2.41,0.869-3.358,1.106
		c-0.948,0.236-1.95,0.355-3.003,0.355c-2.767,0-4.973-0.869-6.619-2.608c-1.646-1.738-2.47-4.478-2.47-8.219
		c0-3.688,0.797-6.381,2.391-8.08s3.721-2.549,6.382-2.549c2.476,0,4.248,0.672,5.314,2.016c1.066,1.343,1.601,3.2,1.601,5.571
		c0,1.476-0.093,2.687-0.277,3.635l-12.012-0.039c0.132,2.766,0.725,4.676,1.778,5.729c1.053,1.054,2.476,1.58,4.268,1.58
		C611.766,252.646,612.628,252.554,613.432,252.37z M606.418,238.085c-0.896,0.936-1.423,2.522-1.58,4.762l9.127-0.119
		c0.053-0.685,0.079-1.251,0.079-1.699c0-1.396-0.31-2.469-0.929-3.22s-1.653-1.126-3.102-1.126
		C608.512,236.683,607.313,237.151,606.418,238.085z"/>
	<path fill="#FFFFFF" d="M633.84,237.473c-1.344,0-2.661,0.204-3.951,0.612c-1.291,0.409-2.41,0.955-3.358,1.64v15.213h-3.398
		v-20.587h3.398v2.727c0.974-0.816,2.134-1.501,3.477-2.055c1.344-0.553,2.7-0.843,4.07-0.869L633.84,237.473z"/>
	<path fill="#FFFFFF" d="M639.273,253.001c-1.437-1.686-2.154-4.411-2.154-8.179c0-3.715,0.725-6.421,2.174-8.12
		c1.448-1.699,3.7-2.549,6.757-2.549c3.056,0,5.301,0.844,6.736,2.529s2.154,4.386,2.154,8.1c0,3.715-0.731,6.435-2.193,8.16
		s-3.734,2.588-6.816,2.588C642.928,255.531,640.708,254.688,639.273,253.001z M650.179,250.848
		c0.882-1.251,1.323-3.378,1.323-6.381c0-1.949-0.178-3.478-0.533-4.584s-0.915-1.902-1.679-2.391
		c-0.765-0.487-1.805-0.73-3.122-0.73c-1.37,0-2.463,0.263-3.279,0.79c-0.817,0.527-1.41,1.377-1.778,2.549
		c-0.369,1.172-0.553,2.76-0.553,4.761c0,1.976,0.184,3.537,0.553,4.683c0.368,1.146,0.929,1.963,1.68,2.45
		c0.75,0.487,1.758,0.73,3.022,0.73C647.841,252.725,649.296,252.1,650.179,250.848z"/>
	<path fill="#FFFFFF" d="M660.471,249.367c0.737,0.869,1.752,1.587,3.043,2.153c1.29,0.566,2.542,0.85,3.754,0.85
		c1.237,0,2.258-0.322,3.062-0.968c0.803-0.646,1.205-1.442,1.205-2.391c0-0.712-0.231-1.291-0.691-1.739
		c-0.462-0.447-1.027-0.796-1.699-1.047c-0.672-0.25-1.588-0.533-2.746-0.85c-1.423-0.395-2.556-0.771-3.398-1.126
		c-0.844-0.355-1.567-0.875-2.174-1.561c-0.605-0.685-0.908-1.581-0.908-2.688c0-1.211,0.342-2.258,1.027-3.141
		c0.685-0.883,1.601-1.555,2.746-2.016s2.377-0.691,3.694-0.691c1.265,0,2.45,0.197,3.557,0.593s2.08,0.922,2.924,1.58l-1.027,2.332
		c-0.79-0.5-1.64-0.896-2.549-1.186c-0.908-0.29-1.798-0.435-2.667-0.435c-1.238,0-2.299,0.264-3.181,0.79
		c-0.883,0.527-1.324,1.225-1.324,2.094c0,0.765,0.355,1.331,1.067,1.699c0.711,0.369,1.844,0.738,3.397,1.106
		c1.502,0.369,2.727,0.738,3.675,1.106c0.949,0.369,1.765,0.962,2.45,1.778c0.685,0.816,1.027,1.91,1.027,3.279
		c0,1.95-0.679,3.504-2.035,4.663s-3.102,1.738-5.235,1.738c-1.607,0-3.194-0.329-4.762-0.987s-2.785-1.581-3.654-2.767
		L660.471,249.367z"/>
	<path fill="#FFFFFF" d="M690.877,252.37c0.804-0.184,1.771-0.461,2.904-0.83l0.514,2.608c-1.291,0.5-2.41,0.869-3.358,1.106
		c-0.948,0.236-1.95,0.355-3.003,0.355c-2.767,0-4.973-0.869-6.619-2.608c-1.646-1.738-2.47-4.478-2.47-8.219
		c0-3.688,0.797-6.381,2.391-8.08s3.721-2.549,6.382-2.549c2.476,0,4.248,0.672,5.314,2.016c1.066,1.343,1.601,3.2,1.601,5.571
		c0,1.476-0.093,2.687-0.277,3.635l-12.012-0.039c0.132,2.766,0.725,4.676,1.778,5.729c1.053,1.054,2.476,1.58,4.268,1.58
		C689.211,252.646,690.073,252.554,690.877,252.37z M683.863,238.085c-0.896,0.936-1.423,2.522-1.58,4.762l9.127-0.119
		c0.053-0.685,0.079-1.251,0.079-1.699c0-1.396-0.31-2.469-0.929-3.22s-1.653-1.126-3.102-1.126
		C685.957,236.683,684.759,237.151,683.863,238.085z"/>
	<path fill="#FFFFFF" d="M711.088,254.938l-4.742-7.666l-4.741,7.666h-3.675l6.678-10.313l-6.56-10.273h3.675l4.663,7.469
		l4.583-7.469h3.715l-6.56,10.234l6.639,10.353H711.088z"/>
	<path fill="#FFFFFF" d="M735.309,234.351v20.587h-3.397v-2.094c-1.081,0.79-2.121,1.369-3.122,1.738
		c-1.001,0.368-2.081,0.553-3.24,0.553c-2.107,0-3.629-0.565-4.563-1.699c-0.936-1.132-1.403-3.068-1.403-5.808v-13.277h3.518
		v12.764c0,1.343,0.118,2.37,0.355,3.082c0.236,0.711,0.605,1.198,1.106,1.462c0.5,0.264,1.211,0.395,2.134,0.395
		c1.343,0,3.082-0.514,5.216-1.541v-16.161H735.309z"/>
	<path fill="#FFFFFF" d="M753.643,234.865c0.975,0.475,1.699,1.271,2.174,2.391c0.474,1.12,0.711,2.667,0.711,4.644v13.039h-3.003
		v-2.647c-1.792,1.976-3.938,2.964-6.44,2.964c-2.081,0-3.629-0.554-4.644-1.66c-1.014-1.106-1.521-2.502-1.521-4.188
		c0-1.949,0.605-3.483,1.817-4.603c1.211-1.12,2.95-1.68,5.216-1.68h5.255c0-1.712-0.138-2.996-0.414-3.853
		c-0.277-0.855-0.712-1.442-1.305-1.759c-0.593-0.315-1.429-0.474-2.509-0.474c-1.476,0-3.543,0.315-6.204,0.948l-0.593-2.331
		c2.556-1.001,5.071-1.502,7.548-1.502C751.364,234.154,752.668,234.391,753.643,234.865z M753.208,250.275v-4.662h-5.216
		c-1.448,0-2.469,0.35-3.062,1.047c-0.593,0.698-0.89,1.509-0.89,2.431c0,1.027,0.322,1.837,0.969,2.43
		c0.645,0.593,1.521,0.889,2.627,0.889C749.322,252.409,751.18,251.698,753.208,250.275z"/>
	<path fill="#FFFFFF" d="M763.995,223.327h3.398v31.611h-3.398V223.327z"/>
	<path fill="#FFFFFF" d="M576.311,319.303v29.635h-3.28l-13.829-23.787l-0.079,23.787h-3.28v-29.635h3.398l13.79,23.747v-23.747
		H576.311z"/>
	<path fill="#FFFFFF" d="M584.51,347.001c-1.437-1.686-2.154-4.411-2.154-8.179c0-3.715,0.725-6.421,2.174-8.12
		c1.448-1.699,3.7-2.549,6.757-2.549c3.056,0,5.301,0.844,6.736,2.529s2.154,4.386,2.154,8.1c0,3.715-0.731,6.435-2.193,8.16
		s-3.734,2.588-6.816,2.588C588.164,349.531,585.944,348.688,584.51,347.001z M595.415,344.848c0.882-1.251,1.323-3.378,1.323-6.381
		c0-1.949-0.178-3.478-0.533-4.584s-0.915-1.902-1.679-2.391c-0.765-0.487-1.805-0.73-3.122-0.73c-1.37,0-2.463,0.263-3.279,0.79
		c-0.817,0.527-1.41,1.377-1.778,2.549c-0.369,1.172-0.553,2.76-0.553,4.761c0,1.976,0.184,3.537,0.553,4.683
		c0.368,1.146,0.929,1.963,1.68,2.45c0.75,0.487,1.758,0.73,3.022,0.73C593.077,346.725,594.532,346.1,595.415,344.848z"/>
	<path fill="#FFFFFF" d="M621.217,329.853c0.935,1.133,1.402,3.069,1.402,5.809v13.276h-3.398v-12.645
		c0-1.344-0.118-2.364-0.355-3.062c-0.237-0.697-0.619-1.179-1.146-1.441c-0.527-0.264-1.252-0.396-2.174-0.396
		c-0.896,0-1.812,0.118-2.746,0.355c-0.936,0.237-2.009,0.659-3.22,1.265v15.924h-3.398v-20.587h3.398v2.371
		c1.211-0.896,2.356-1.547,3.438-1.956c1.08-0.408,2.305-0.612,3.675-0.612C618.772,328.154,620.281,328.72,621.217,329.853z"/>
	<path fill="#FFFFFF" d="M659.484,335.958c0.79,1.252,1.185,2.839,1.185,4.762c0,2.792-0.776,4.86-2.331,6.203
		c-1.555,1.344-3.925,2.016-7.112,2.016h-11.183v-29.635h9.444c3.424,0,5.888,0.592,7.389,1.777
		c1.502,1.186,2.252,3.136,2.252,5.849c0,1.606-0.276,2.911-0.829,3.911c-0.554,1.002-1.462,1.778-2.727,2.332
		C657.39,333.779,658.693,334.707,659.484,335.958z M643.441,322.148v9.878h6.361c2.239,0,3.813-0.368,4.723-1.106
		c0.908-0.737,1.363-1.988,1.363-3.754c0-1.791-0.475-3.075-1.423-3.853c-0.948-0.776-2.621-1.165-5.019-1.165H643.441z
		 M657.351,340.561c0-1.817-0.561-3.207-1.68-4.169c-1.12-0.961-2.957-1.442-5.512-1.442h-6.718v10.985l7.784-0.04
		C655.309,345.895,657.351,344.118,657.351,340.561z"/>
	<path fill="#FFFFFF" d="M667.465,323.235c-0.448-0.436-0.672-0.969-0.672-1.601c0-0.605,0.218-1.119,0.652-1.541
		c0.435-0.421,0.981-0.633,1.64-0.633c0.633,0,1.166,0.212,1.601,0.633c0.435,0.422,0.652,0.948,0.652,1.58
		c0,0.633-0.218,1.16-0.652,1.581c-0.435,0.422-0.968,0.632-1.601,0.632C668.453,323.886,667.913,323.669,667.465,323.235z
		 M667.347,328.351h3.398v20.587h-3.398V328.351z"/>
	<path fill="#FFFFFF" d="M693.208,329.853c0.935,1.133,1.402,3.069,1.402,5.809v13.276h-3.398v-12.645
		c0-1.344-0.118-2.364-0.355-3.062c-0.237-0.697-0.619-1.179-1.146-1.441c-0.527-0.264-1.252-0.396-2.174-0.396
		c-0.896,0-1.812,0.118-2.746,0.355c-0.936,0.237-2.009,0.659-3.22,1.265v15.924h-3.398v-20.587h3.398v2.371
		c1.211-0.896,2.356-1.547,3.438-1.956c1.08-0.408,2.305-0.612,3.675-0.612C690.764,328.154,692.272,328.72,693.208,329.853z"/>
	<path fill="#FFFFFF" d="M712.943,328.865c0.975,0.475,1.699,1.271,2.174,2.391c0.474,1.12,0.711,2.667,0.711,4.644v13.039h-3.003
		v-2.647c-1.792,1.976-3.938,2.964-6.44,2.964c-2.081,0-3.629-0.554-4.644-1.66c-1.014-1.106-1.521-2.502-1.521-4.188
		c0-1.949,0.605-3.483,1.817-4.603c1.211-1.12,2.95-1.68,5.216-1.68h5.255c0-1.712-0.138-2.996-0.414-3.853
		c-0.277-0.855-0.712-1.442-1.305-1.759c-0.593-0.315-1.429-0.474-2.509-0.474c-1.476,0-3.543,0.315-6.204,0.948l-0.593-2.331
		c2.556-1.001,5.071-1.502,7.548-1.502C710.665,328.154,711.969,328.391,712.943,328.865z M712.509,344.275v-4.662h-5.216
		c-1.448,0-2.469,0.35-3.062,1.047c-0.593,0.698-0.89,1.509-0.89,2.431c0,1.027,0.322,1.837,0.969,2.43
		c0.645,0.593,1.521,0.889,2.627,0.889C708.623,346.409,710.48,345.698,712.509,344.275z"/>
	<path fill="#FFFFFF" d="M734.044,331.473c-1.344,0-2.661,0.204-3.951,0.612c-1.291,0.409-2.41,0.955-3.358,1.64v15.213h-3.398
		v-20.587h3.398v2.727c0.974-0.816,2.134-1.501,3.477-2.055c1.344-0.553,2.7-0.843,4.07-0.869L734.044,331.473z"/>
	<path fill="#FFFFFF" d="M753.405,328.351l-9.602,28.489h-3.358l2.647-7.902h-0.316l-6.954-20.587h3.714l5.058,16.912l5.335-16.912
		H753.405z"/>
	<path fill="#FFFFFF" d="M584.606,413.303h3.478v29.635h-3.478V413.303z"/>
	<path fill="#FFFFFF" d="M610.627,423.853c0.935,1.133,1.402,3.069,1.402,5.809v13.276h-3.398v-12.645
		c0-1.344-0.118-2.364-0.355-3.062c-0.237-0.697-0.619-1.179-1.146-1.441c-0.527-0.264-1.252-0.396-2.174-0.396
		c-0.896,0-1.812,0.118-2.746,0.355c-0.936,0.237-2.009,0.659-3.22,1.265v15.924h-3.398v-20.587h3.398v2.371
		c1.211-0.896,2.356-1.547,3.438-1.956c1.08-0.408,2.305-0.612,3.675-0.612C608.183,422.154,609.691,422.72,610.627,423.853z"/>
	<path fill="#FFFFFF" d="M630.205,442.82c-1.212,0.263-2.318,0.395-3.319,0.395c-2.635,0-4.479-0.691-5.532-2.074
		s-1.58-3.55-1.58-6.5v-9.8h-2.489v-2.489h2.489v-5.295h3.279v5.295h5.769v2.489h-5.769v9.839c0,1.528,0.151,2.721,0.454,3.576
		c0.303,0.856,0.791,1.462,1.462,1.818c0.672,0.355,1.587,0.533,2.747,0.533c0.395,0,1.066-0.053,2.015-0.158L630.205,442.82z"/>
	<path fill="#FFFFFF" d="M645.279,440.37c0.804-0.184,1.771-0.461,2.904-0.83l0.514,2.608c-1.291,0.5-2.41,0.869-3.358,1.106
		c-0.948,0.236-1.95,0.355-3.003,0.355c-2.767,0-4.973-0.869-6.619-2.608c-1.646-1.738-2.47-4.478-2.47-8.219
		c0-3.688,0.797-6.381,2.391-8.08s3.721-2.549,6.382-2.549c2.476,0,4.248,0.672,5.314,2.016c1.066,1.343,1.601,3.2,1.601,5.571
		c0,1.476-0.093,2.687-0.277,3.635l-12.012-0.039c0.132,2.766,0.725,4.676,1.778,5.729c1.053,1.054,2.476,1.58,4.268,1.58
		C643.613,440.646,644.476,440.554,645.279,440.37z M638.266,426.085c-0.896,0.936-1.423,2.522-1.58,4.762l9.127-0.119
		c0.053-0.685,0.079-1.251,0.079-1.699c0-1.396-0.31-2.469-0.929-3.22s-1.653-1.126-3.102-1.126
		C640.359,424.683,639.161,425.151,638.266,426.085z"/>
	<path fill="#FFFFFF" d="M665.688,425.473c-1.344,0-2.661,0.204-3.951,0.612c-1.291,0.409-2.41,0.955-3.358,1.64v15.213h-3.398
		v-20.587h3.398v2.727c0.974-0.816,2.134-1.501,3.477-2.055c1.344-0.553,2.7-0.843,4.07-0.869L665.688,425.473z"/>
	<path fill="#FFFFFF" d="M669.994,437.367c0.737,0.869,1.752,1.587,3.043,2.153c1.29,0.566,2.542,0.85,3.754,0.85
		c1.237,0,2.258-0.322,3.062-0.968c0.803-0.646,1.205-1.442,1.205-2.391c0-0.712-0.231-1.291-0.691-1.739
		c-0.462-0.447-1.027-0.796-1.699-1.047c-0.672-0.25-1.588-0.533-2.746-0.85c-1.423-0.395-2.556-0.771-3.398-1.126
		c-0.844-0.355-1.567-0.875-2.174-1.561c-0.605-0.685-0.908-1.581-0.908-2.688c0-1.211,0.342-2.258,1.027-3.141
		c0.685-0.883,1.601-1.555,2.746-2.016s2.377-0.691,3.694-0.691c1.265,0,2.45,0.197,3.557,0.593s2.08,0.922,2.924,1.58l-1.027,2.332
		c-0.79-0.5-1.64-0.896-2.549-1.186c-0.908-0.29-1.798-0.435-2.667-0.435c-1.238,0-2.299,0.264-3.181,0.79
		c-0.883,0.527-1.324,1.225-1.324,2.094c0,0.765,0.355,1.331,1.067,1.699c0.711,0.369,1.844,0.738,3.397,1.106
		c1.502,0.369,2.727,0.738,3.675,1.106c0.949,0.369,1.765,0.962,2.45,1.778c0.685,0.816,1.027,1.91,1.027,3.279
		c0,1.95-0.679,3.504-2.035,4.663s-3.102,1.738-5.235,1.738c-1.607,0-3.194-0.329-4.762-0.987s-2.785-1.581-3.654-2.767
		L669.994,437.367z"/>
	<path fill="#FFFFFF" d="M700.4,440.37c0.804-0.184,1.771-0.461,2.904-0.83l0.514,2.608c-1.291,0.5-2.41,0.869-3.358,1.106
		c-0.948,0.236-1.95,0.355-3.003,0.355c-2.767,0-4.973-0.869-6.619-2.608c-1.646-1.738-2.47-4.478-2.47-8.219
		c0-3.688,0.797-6.381,2.391-8.08s3.721-2.549,6.382-2.549c2.476,0,4.248,0.672,5.314,2.016c1.066,1.343,1.601,3.2,1.601,5.571
		c0,1.476-0.093,2.687-0.277,3.635l-12.012-0.039c0.132,2.766,0.725,4.676,1.778,5.729c1.053,1.054,2.476,1.58,4.268,1.58
		C698.734,440.646,699.597,440.554,700.4,440.37z M693.387,426.085c-0.896,0.936-1.423,2.522-1.58,4.762l9.127-0.119
		c0.053-0.685,0.079-1.251,0.079-1.699c0-1.396-0.31-2.469-0.929-3.22s-1.653-1.126-3.102-1.126
		C695.48,424.683,694.282,425.151,693.387,426.085z"/>
	<path fill="#FFFFFF" d="M720.611,442.938l-4.742-7.666l-4.741,7.666h-3.675l6.678-10.313l-6.56-10.273h3.675l4.663,7.469
		l4.583-7.469h3.715l-6.56,10.234l6.639,10.353H720.611z"/>
</g>
<line fill="#FFFFFF" stroke="#58595B" stroke-width="5.6693" x1="319.174" y1="3.041" x2="319.174" y2="473.075"/>
<line fill="#FFFFFF" stroke="#58595B" stroke-width="5.6693" x1="507.621" y1="3.041" x2="507.621" y2="473.075"/>
<g>
	<line fill="#FFFFFF" stroke="#58595B" stroke-width="5.6693" x1="0.001" y1="3.041" x2="800" y2="3.041"/>
	<line fill="#FFFFFF" stroke="#58595B" stroke-width="5.6693" x1="0" y1="97.244" x2="800" y2="97.244"/>
	<line fill="#FFFFFF" stroke="#58595B" stroke-width="5.6693" x1="0" y1="191.446" x2="800" y2="191.446"/>
	<line fill="#FFFFFF" stroke="#58595B" stroke-width="5.6693" x1="0" y1="285.649" x2="800" y2="285.649"/>
	<line fill="#FFFFFF" stroke="#58595B" stroke-width="5.6693" x1="0.001" y1="379.851" x2="800" y2="379.851"/>
	<line fill="#FFFFFF" stroke="#58595B" stroke-width="5.6693" x1="0.001" y1="474.054" x2="800" y2="474.054"/>
</g>
</svg>
