<?xml version="1.0" encoding="utf-8"?>
<!-- Generator: Adobe Illustrator 15.1.0, SVG Export Plug-In . SVG Version: 6.00 Build 0)  -->
<!DOCTYPE svg PUBLIC "-//W3C//DTD SVG 1.1//EN" "http://www.w3.org/Graphics/SVG/1.1/DTD/svg11.dtd">
<svg version="1.1" id="Resultado" xmlns="http://www.w3.org/2000/svg" xmlns:xlink="http://www.w3.org/1999/xlink" x="0px" y="0px"
	 width="800px" height="715px" viewBox="0 0 800 715" enable-background="new 0 0 800 715" xml:space="preserve">
<g>
	<path fill="#ED1C24" d="M197.578,150.068v1.65l-0.15,27.9c0,15.6-3.652,27.524-10.95,35.774c-7.301,8.25-17.501,12.375-30.6,12.375
		c-10.102,0-20.201-2.399-30.3-7.2l4.8-24.75c2.899,1.102,6.5,2.101,10.8,3c4.298,0.9,7.999,1.351,11.1,1.351
		c5,0,8.424-1.475,10.275-4.425c1.849-2.949,2.873-7.974,3.075-15.075c-5.5,2.1-10.702,3.149-15.6,3.149
		c-8.7,0-15.551-3.225-20.55-9.675c-5.001-6.45-7.5-15.173-7.5-26.175c0-23.498,12.3-35.25,36.9-35.25c13.699,0,23.499,3.3,29.4,9.9
		c5.899,6.6,9,15.101,9.3,25.5v1.05V150.068z M164.353,158.619c0.849-1.599,1.324-4.351,1.425-8.25v-0.75
		c0-4.399-0.45-7.523-1.35-9.375c-0.9-1.85-2.452-2.775-4.65-2.775c-2.201,0-3.775,0.926-4.725,2.775
		c-0.952,1.852-1.425,4.926-1.425,9.225c0,4.2,0.474,7.177,1.425,8.925c0.949,1.751,2.573,2.625,4.875,2.625
		C162.027,161.018,163.502,160.219,164.353,158.619z"/>
	<path fill="#ED1C24" d="M306.927,178.418c-4.601,0-9.202,0.651-13.8,1.95c-4.601,1.301-8.301,3.201-11.1,5.699v40.65h-34.95v-78.9
		h34.95v14.851c3-4.8,6.825-8.749,11.475-11.851c4.65-3.098,9.424-4.649,14.325-4.649L306.927,178.418z"/>
	<path fill="#ED1C24" d="M320.425,134.693c-3.6-3.049-5.4-7.023-5.4-11.925c0-4.699,1.725-8.498,5.175-11.399
		c3.45-2.899,7.924-4.351,13.425-4.351c5,0,9.324,1.5,12.975,4.5c3.649,3,5.475,6.952,5.475,11.851c0,4.701-1.702,8.526-5.1,11.475
		c-3.401,2.951-7.852,4.425-13.35,4.425C328.424,139.268,324.025,137.745,320.425,134.693z M316.075,147.818h34.95v78.9h-34.95
		V147.818z"/>
	<path fill="#ED1C24" d="M436.975,216.668c0,14.1-3.025,24.698-9.074,31.8c-6.053,7.1-16.027,10.65-29.926,10.65
		c-11.4,0-22.402-2.051-33-6.15l5.55-20.7c6.799,3,13.148,4.5,19.05,4.5c5.1,0,8.799-1.075,11.1-3.225
		c2.3-2.151,3.548-5.625,3.75-10.425c-3.6,4.099-8.451,6.149-14.549,6.149c-5.201,0-9.952-1.45-14.25-4.35
		c-4.301-2.899-7.725-7.275-10.275-13.125c-2.55-5.851-3.825-13.073-3.825-21.675c0-10.399,1.849-18.9,5.55-25.5
		c3.699-6.601,8.25-11.325,13.65-14.176c5.4-2.85,10.8-4.274,16.2-4.274c6.3,0,13.576,0.675,21.826,2.024
		c8.25,1.351,14.324,2.876,18.225,4.575V216.668z M404.424,207.068v-36.149c-4.101,0.101-7.199,1.425-9.299,3.975
		s-3.15,7.526-3.15,14.925c0,6.802,0.848,11.551,2.55,14.25c1.699,2.7,3.649,4.051,5.85,4.051
		C401.373,208.119,402.723,207.769,404.424,207.068z"/>
	<path fill="#ED1C24" d="M526.301,153.968c3.049,4.9,4.574,11.85,4.574,20.85v51.9h-34.949v-45.15c0-1.8-0.402-3.375-1.201-4.725
		c-0.801-1.35-2.15-2.025-4.049-2.025c-1.102,0-2.303,0.251-3.602,0.75v51.15h-35.1v-120h35.1v50.55
		c4.1-3.799,7.898-6.524,11.4-8.175c3.5-1.65,7.4-2.475,11.701-2.475C517.875,146.619,523.248,149.07,526.301,153.968z"/>
	<path fill="#ED1C24" d="M606.324,222.068c-4.602,2.201-8.576,3.701-11.926,4.5c-3.352,0.8-6.824,1.2-10.426,1.2
		c-11.9,0-20.5-3.424-25.799-10.274c-5.303-6.849-7.951-16.575-7.951-29.176v-19.5h-8.85v-21h8.85v-20.1h33.15v20.1h18.6v21h-18.6
		v19.2c0,6.101,0.826,10.327,2.475,12.675c1.65,2.352,3.977,3.525,6.977,3.525c2.299,0,5.449-0.6,9.449-1.8L606.324,222.068z"/>
	<path fill="#ED1C24" d="M618.773,195.369c6.299,3.3,11.273,5.699,14.924,7.199s7.025,2.25,10.125,2.25
		c1.4,0,2.574-0.273,3.525-0.824c0.949-0.549,1.426-1.374,1.426-2.476c0-1.599-0.877-2.899-2.625-3.899
		c-1.752-0.999-4.627-2.149-8.625-3.45c-4.602-1.5-8.453-3.023-11.551-4.575c-3.102-1.549-5.775-3.799-8.025-6.75
		c-2.25-2.948-3.375-6.725-3.375-11.325c0-8.299,3.35-14.599,10.051-18.899c6.697-4.299,14.947-6.45,24.75-6.45
		c5.898,0,11.572,0.675,17.025,2.024c5.449,1.351,9.824,2.977,13.125,4.875l-6.301,22.051c-2.902-1.5-6.127-2.724-9.676-3.676
		c-3.551-0.949-6.625-1.425-9.225-1.425c-4.4,0-6.6,0.9-6.6,2.7c0,0.9,0.699,1.701,2.1,2.4c1.4,0.7,3.6,1.5,6.6,2.399
		c5,1.5,9.25,3.101,12.75,4.8c3.5,1.702,6.602,4.301,9.301,7.801c2.699,3.501,4.051,8.051,4.051,13.649c0,8.602-2.877,15-8.625,19.2
		c-5.752,4.2-13.426,6.3-23.025,6.3c-7.9,0-15.277-1.177-22.125-3.524c-6.852-2.349-12.326-5.375-16.426-9.075L618.773,195.369z"/>
	<path fill="#939598" d="M139.978,367.843c4.999,6.45,7.5,15.176,7.5,26.175c0,23.501-12.3,35.25-36.9,35.25
		c-13.702,0-23.501-3.3-29.4-9.899c-5.901-6.601-9-15.099-9.3-25.5v-1.051v-0.899v-1.65l0.15-27.899
		c0-15.601,3.649-27.525,10.95-35.775c7.298-8.25,17.499-12.375,30.6-12.375c10.099,0,20.198,2.4,30.3,7.2l-4.8,24.75
		c-2.902-1.1-6.502-2.101-10.8-3c-4.301-0.9-8.001-1.351-11.1-1.351c-5.001,0-8.426,1.477-10.275,4.426
		c-1.852,2.95-2.875,7.976-3.075,15.074c5.498-2.1,10.699-3.149,15.6-3.149C128.128,358.168,134.977,361.393,139.978,367.843z
		 M114.403,401.668c0.949-1.898,1.425-4.95,1.425-9.15s-0.476-7.174-1.425-8.925c-0.952-1.748-2.576-2.625-4.875-2.625
		c-2.1,0-3.577,0.802-4.425,2.4c-0.851,1.601-1.327,4.35-1.425,8.25v0.75c0,4.301,0.45,7.401,1.35,9.3c0.9,1.9,2.449,2.85,4.65,2.85
		C111.876,404.518,113.451,403.569,114.403,401.668z"/>
	<path fill="#939598" d="M318.177,347.818l-19.8,78.9h-38.7l-5.55-28.05l-6.15,28.05h-37.2l-19.8-78.9h36.75l4.65,48.45l9.9-42.45
		h24.6l9.75,45.301l4.8-51.301H318.177z"/>
	<path fill="#939598" d="M387.026,378.418c-4.601,0-9.202,0.651-13.8,1.95c-4.601,1.301-8.301,3.201-11.1,5.699v40.65h-34.95v-78.9
		h34.95v14.851c3-4.8,6.825-8.749,11.475-11.851c4.65-3.098,9.424-4.649,14.325-4.649L387.026,378.418z"/>
	<path fill="#939598" d="M404.65,419.369c-5.651-6.601-8.476-17.101-8.476-31.5c0-9.601,1.224-17.449,3.675-23.551
		c2.449-6.098,6.5-10.649,12.15-13.649c5.648-3,13.223-4.5,22.725-4.5c13.4,0,22.924,3.352,28.576,10.05
		c5.648,6.701,8.475,17.25,8.475,31.65c0,9.6-1.227,17.426-3.676,23.475c-2.451,6.052-6.475,10.552-12.074,13.5
		c-5.602,2.948-13.201,4.425-22.801,4.425C419.824,429.268,410.299,425.968,404.65,419.369z M438.775,400.768
		c0.9-2.498,1.35-7.298,1.35-14.399c0-6.8-0.449-11.4-1.35-13.801c-0.9-2.399-2.502-3.6-4.801-3.6c-1.6,0-2.826,0.502-3.674,1.5
		c-0.852,1.001-1.451,2.726-1.801,5.175c-0.352,2.452-0.525,6.026-0.525,10.726c0,4.9,0.174,8.65,0.525,11.25
		c0.35,2.602,0.949,4.401,1.801,5.399c0.848,1.001,2.074,1.5,3.674,1.5C436.273,404.518,437.875,403.269,438.775,400.768z"/>
	<path fill="#939598" d="M559.148,353.968c3.049,4.9,4.576,11.85,4.576,20.85v51.9h-34.951v-45.15c0-1.8-0.4-3.375-1.199-4.725
		c-0.803-1.35-2.152-2.025-4.051-2.025c-0.9,0-2.25,0.301-4.049,0.9v51h-34.951v-78.9h34.951v9.75
		c4.199-3.799,8.1-6.574,11.699-8.324c3.6-1.749,7.549-2.625,11.85-2.625C550.723,346.619,556.098,349.07,559.148,353.968z"/>
	<path fill="#939598" d="M651.922,416.668c0,14.1-3.025,24.698-9.074,31.8c-6.053,7.1-16.027,10.65-29.926,10.65
		c-11.4,0-22.4-2.051-33-6.15l5.551-20.7c6.799,3,13.148,4.5,19.049,4.5c5.102,0,8.799-1.075,11.102-3.225
		c2.299-2.151,3.547-5.625,3.75-10.425c-3.602,4.099-8.453,6.149-14.551,6.149c-5.201,0-9.951-1.45-14.25-4.35
		c-4.301-2.899-7.725-7.275-10.275-13.125c-2.549-5.851-3.824-13.073-3.824-21.675c0-10.399,1.85-18.9,5.549-25.5
		c3.699-6.601,8.25-11.325,13.65-14.176c5.4-2.85,10.801-4.274,16.201-4.274c6.299,0,13.574,0.675,21.824,2.024
		c8.25,1.351,14.324,2.876,18.225,4.575V416.668z M619.373,407.068v-36.149c-4.102,0.101-7.201,1.425-9.301,3.975
		s-3.15,7.526-3.15,14.925c0,6.802,0.85,11.551,2.551,14.25c1.699,2.7,3.648,4.051,5.85,4.051
		C616.32,408.119,617.67,407.769,619.373,407.068z"/>
	<path fill="#939598" d="M668.871,395.369c6.301,3.3,11.273,5.699,14.926,7.199c3.648,1.5,7.023,2.25,10.125,2.25
		c1.398,0,2.572-0.273,3.525-0.824c0.949-0.549,1.424-1.374,1.424-2.476c0-1.599-0.877-2.899-2.625-3.899
		c-1.75-0.999-4.627-2.149-8.625-3.45c-4.6-1.5-8.451-3.023-11.549-4.575c-3.102-1.549-5.775-3.799-8.025-6.75
		c-2.25-2.948-3.375-6.725-3.375-11.325c0-8.299,3.35-14.599,10.049-18.899c6.699-4.299,14.949-6.45,24.75-6.45
		c5.9,0,11.574,0.675,17.025,2.024c5.449,1.351,9.826,2.977,13.125,4.875l-6.299,22.051c-2.902-1.5-6.127-2.724-9.676-3.676
		c-3.551-0.949-6.625-1.425-9.225-1.425c-4.402,0-6.6,0.9-6.6,2.7c0,0.9,0.697,1.701,2.1,2.4c1.398,0.7,3.6,1.5,6.6,2.399
		c5,1.5,9.248,3.101,12.75,4.8c3.5,1.702,6.6,4.301,9.301,7.801c2.699,3.501,4.049,8.051,4.049,13.649c0,8.602-2.875,15-8.625,19.2
		c-5.752,4.2-13.424,6.3-23.025,6.3c-7.9,0-15.275-1.177-22.125-3.524c-6.85-2.349-12.324-5.375-16.424-9.075L668.871,395.369z"/>
	<path fill="#ED1C24" d="M272.771,542.119h-10.38v33.6h-13.98v-33.6h-10.44v-11.4h34.8V542.119z"/>
	<path fill="#ED1C24" d="M292.511,559.518h-1.26v16.2h-13.68v-45h16.38c4.52,0,8.08,0.48,10.68,1.44c2.6,0.96,4.479,2.489,5.64,4.59
		c1.16,2.1,1.74,4.971,1.74,8.609c0,3.48-0.54,6.231-1.62,8.25c-1.08,2.021-2.84,3.49-5.28,4.41l8.46,17.7h-14.52L292.511,559.518z
		 M291.251,540.918v9.6h2.7c1.8,0,3.06-0.35,3.78-1.05c0.72-0.699,1.08-1.95,1.08-3.75c0-1.76-0.36-3-1.08-3.72
		c-0.72-0.721-1.98-1.08-3.78-1.08H291.251z"/>
	<path fill="#ED1C24" d="M356.291,530.718l-12.84,26.4v18.6h-13.98v-18.6l-12.9-26.4h14.76l5.28,14.52l5.22-14.52H356.291z"/>
	<path fill="#ED1C24" d="M399.07,568.758h-9.9l-1.32,6.96h-14.16l11.76-45h17.28l11.881,45H400.45L399.07,568.758z M397.09,558.558
		l-3-15.54l-2.94,15.54H397.09z"/>
	<path fill="#ED1C24" d="M455.289,573.258c-2.279,1.16-5.049,2.001-8.309,2.52c-3.262,0.52-6.291,0.78-9.09,0.78
		c-4.602,0-8.34-0.771-11.221-2.31c-2.881-1.54-5.01-3.96-6.391-7.261c-1.379-3.3-2.07-7.609-2.07-12.93
		c0-8.319,1.74-14.439,5.221-18.359s8.98-5.881,16.5-5.881c5.119,0,10.039,0.94,14.76,2.82l-1.74,10.68
		c-1.32-0.56-3.1-1.05-5.34-1.47s-4.34-0.63-6.299-0.63c-2.32,0-4.121,0.381-5.4,1.14c-1.281,0.761-2.201,2.011-2.76,3.75
		c-0.561,1.74-0.84,4.17-0.84,7.29c0,2.88,0.229,5.141,0.689,6.78c0.459,1.641,1.219,2.811,2.279,3.51
		c1.061,0.7,2.51,1.05,4.35,1.05c1.201,0,2.521-0.079,3.961-0.239v-5.221h-6.061v-10.5h17.76V573.258z"/>
	<path fill="#ED1C24" d="M484.27,568.758h-9.9l-1.318,6.96h-14.16l11.76-45h17.279l11.881,45h-14.16L484.27,568.758z
		 M482.289,558.558l-3-15.54l-2.939,15.54H482.289z"/>
	<path fill="#ED1C24" d="M504.609,530.718h13.98v45h-13.98V530.718z"/>
	<path fill="#ED1C24" d="M562.629,530.718v45h-13.141l-10.559-21.42v21.42h-13.141v-45h13.141l10.559,22.2v-22.2H562.629z"/>
</g>
</svg>
