<?xml version="1.0" encoding="utf-8"?>
<!-- Generator: Adobe Illustrator 15.1.0, SVG Export Plug-In . SVG Version: 6.00 Build 0)  -->
<!DOCTYPE svg PUBLIC "-//W3C//DTD SVG 1.1//EN" "http://www.w3.org/Graphics/SVG/1.1/DTD/svg11.dtd">
<svg version="1.1" id="Layer_32" xmlns="http://www.w3.org/2000/svg" xmlns:xlink="http://www.w3.org/1999/xlink" x="0px" y="0px"
	 width="800px" height="715px" viewBox="0 0 800 715" enable-background="new 0 0 800 715" xml:space="preserve">
<g>
	<path fill="#ED1C24" d="M689.391,168.007V340.14h-37.148V231.431L549.619,334.105c16.471,24.066,25.328,52.494,25.328,82.305
		c0,39.092-15.229,75.874-42.885,103.475c-27.65,27.66-64.385,42.886-103.475,42.886c-39.087,0-75.868-15.227-103.528-42.886
		c-11.071-11.074-20.157-23.617-27.066-37.219c-12.553,3.453-25.646,5.246-39.022,5.246c-39.089,0-75.871-15.227-103.534-42.887
		c-27.602-27.601-42.828-64.387-42.828-103.473c0-39.1,15.227-75.822,42.828-103.443c27.663-27.653,64.445-42.885,103.534-42.885
		c29.247,0,57.175,8.527,80.975,24.402l101.781-101.827l-110.733-0.054V80.607l174.155,0.061v172.116h-37.145V144.087
		l-99.926,99.969c8.569,9.553,15.762,20.057,21.463,31.271c12.564-3.459,25.672-5.232,39.043-5.232
		c35.799,0,69.617,12.774,96.299,36.162L625.955,205.15H517.256v-37.154L689.391,168.007z M285.519,447.51
		c-2.173-10.105-3.293-20.512-3.293-31.086c0-39.092,15.235-75.827,42.834-103.443c9.101-9.102,19.196-16.861,30.033-23.17
		c-18.464-34.17-54.631-57.436-96.122-57.436c-60.222,0-109.175,48.979-109.175,109.183c0,60.167,48.953,109.21,109.175,109.21
		C268.121,450.768,277.015,449.641,285.519,447.51z M367.078,326.253c-28.763,19.678-47.669,52.756-47.669,90.17
		c0,5.197,0.37,10.303,1.074,15.306c28.756-19.694,47.665-52.789,47.665-90.172C368.148,336.359,367.778,331.25,367.078,326.253z
		 M537.762,416.423c0-60.218-48.965-109.184-109.174-109.184c-9.152,0-18.045,1.129-26.539,3.266
		c2.164,10.084,3.285,20.486,3.285,31.052c0,39.093-15.234,75.875-42.885,103.476c-9.091,9.086-19.163,16.844-29.974,23.141
		c18.462,34.172,54.617,57.461,96.112,57.461C488.797,525.635,537.762,476.596,537.762,416.423z"/>
</g>
</svg>
