<?xml version="1.0" encoding="utf-8"?>
<!-- Generator: Adobe Illustrator 15.1.0, SVG Export Plug-In . SVG Version: 6.00 Build 0)  -->
<!DOCTYPE svg PUBLIC "-//W3C//DTD SVG 1.1//EN" "http://www.w3.org/Graphics/SVG/1.1/DTD/svg11.dtd">
<svg version="1.1" id="Layer_29" xmlns="http://www.w3.org/2000/svg" xmlns:xlink="http://www.w3.org/1999/xlink" x="0px" y="0px"
	 width="800px" height="715px" viewBox="0 0 800 715" enable-background="new 0 0 800 715" xml:space="preserve">
<g>
	<path fill="#ED1C24" d="M707.9,35.731v172.098h-37.154V99.18L562.838,207.086c19.836,25.521,30.602,56.708,30.602,89.562
		c0,39.091-15.227,75.875-42.887,103.472c-27.652,27.662-64.385,42.891-103.463,42.891c-34.318,0-66.856-11.743-93.003-33.306
		c-21.354,17.632-46.96,28.687-74.348,32.132v73.486h84.75v37.156h-84.75v84.744h-37.175V552.48h-84.69v-37.156h84.69v-73.486
		c-32.062-4.035-61.716-18.493-84.946-41.717c-27.601-27.598-42.828-64.381-42.828-103.472c0-39.095,15.228-75.82,42.828-103.442
		c27.665-27.653,64.446-42.889,103.534-42.889c34.312,0,66.812,11.738,92.935,33.315c26.146-21.577,58.685-33.315,93.003-33.315
		c32.791,0,63.928,10.734,89.443,30.518L644.416,72.901H533.721v-37.17H707.9z M261.152,405.859
		c25.394,0,48.794-8.729,67.347-23.324c-18.031-24.812-27.775-54.605-27.775-85.886c0-31.29,9.744-61.062,27.801-85.862
		c-18.566-14.601-41.969-23.315-67.372-23.315c-60.219,0-109.172,48.974-109.172,109.178
		C151.98,356.815,200.934,405.859,261.152,405.859z M370.327,296.656c0-20.964-5.932-40.562-16.209-57.206
		c-10.281,16.645-16.213,36.242-16.213,57.206c0,20.951,5.932,40.545,16.213,57.191
		C364.396,337.202,370.327,317.607,370.327,296.656z M447.09,405.867c60.201,0,109.166-49.045,109.166-109.21
		c0-60.206-48.965-109.182-109.166-109.182c-25.422,0-48.831,8.719-67.397,23.331c18.066,24.802,27.819,54.569,27.819,85.843
		c0,31.267-9.753,61.066-27.807,85.866c18.565,14.608,41.963,23.345,67.385,23.345V405.867z"/>
</g>
</svg>
