<?xml version="1.0" encoding="utf-8"?>
<!-- Generator: Adobe Illustrator 15.1.0, SVG Export Plug-In . SVG Version: 6.00 Build 0)  -->
<!DOCTYPE svg PUBLIC "-//W3C//DTD SVG 1.1//EN" "http://www.w3.org/Graphics/SVG/1.1/DTD/svg11.dtd">
<svg version="1.1" id="Layer_40" xmlns="http://www.w3.org/2000/svg" xmlns:xlink="http://www.w3.org/1999/xlink" x="0px" y="0px"
	 width="800px" height="715px" viewBox="0 0 800 715" enable-background="new 0 0 800 715" xml:space="preserve">
<g>
	<path fill="#ED1C24" d="M661.822,63.829v172.09h-37.15V127.274L516.76,235.176c19.85,25.523,30.609,56.703,30.609,89.569
		c0,39.09-15.23,75.871-42.885,103.479c-23.225,23.217-52.836,37.682-84.885,41.715v73.483h84.744v37.151H419.6v84.738h-37.181
		v-84.738h-84.703v-37.151h84.703v-73.483c-32.062-4.033-61.725-18.498-84.939-41.715c-27.607-27.607-42.838-64.389-42.838-103.479
		c0-39.093,15.23-75.819,42.838-103.445c27.652-27.651,64.438-42.89,103.522-42.89c32.809,0,63.956,10.732,89.465,30.518
		L598.342,101H487.641V63.829H661.822z M510.186,324.746c0-60.212-48.969-109.188-109.184-109.188
		c-60.219,0-109.167,48.977-109.167,109.188c0,60.162,48.947,109.208,109.167,109.208
		C461.217,433.953,510.186,384.908,510.186,324.746z"/>
</g>
</svg>
