<?xml version="1.0" encoding="utf-8"?>
<!-- Generator: Adobe Illustrator 15.1.0, SVG Export Plug-In . SVG Version: 6.00 Build 0)  -->
<!DOCTYPE svg PUBLIC "-//W3C//DTD SVG 1.1//EN" "http://www.w3.org/Graphics/SVG/1.1/DTD/svg11.dtd">
<svg version="1.1" id="Layer_28" xmlns="http://www.w3.org/2000/svg" xmlns:xlink="http://www.w3.org/1999/xlink" x="0px" y="0px"
	 width="800px" height="715px" viewBox="0 0 800 715" enable-background="new 0 0 800 715" xml:space="preserve">
<g>
	<path fill="#ED1C24" d="M516.73,446.311h84.695v37.152H516.73v84.742h-37.184v-84.742h-73.23v-37.152h73.23v-73.02
		c-28.957-2.811-56.119-14.078-78.577-32.594c-22.442,18.516-49.579,29.783-78.529,32.594v73.02h73.228v37.152H322.44v84.742
		h-37.182v-84.742h-84.69v-37.152h84.69v-74.065c-30.459-4.73-58.556-18.924-80.766-41.135
		c-27.6-27.605-42.825-64.396-42.825-103.479c0-39.092,15.226-75.82,42.825-103.445c27.656-27.652,64.442-42.879,103.531-42.879
		c34.322,0,66.814,11.734,92.945,33.31c26.136-21.575,58.681-33.31,92.993-33.31c39.088,0,75.816,15.227,103.475,42.879
		c27.652,27.625,42.895,64.354,42.895,103.445c0,39.083-15.242,75.874-42.895,103.479c-22.199,22.203-50.271,36.395-80.707,41.135
		V446.311z M308.024,336.845c25.408,0,48.804-8.727,67.358-23.33c-18.027-24.807-27.783-54.602-27.783-85.884
		c0-31.289,9.756-61.06,27.802-85.865c-18.565-14.6-41.958-23.31-67.377-23.31c-60.222,0-109.181,48.974-109.181,109.175
		C198.844,287.802,247.803,336.845,308.024,336.845z M400.996,284.834c10.281-16.65,16.211-36.246,16.211-57.191
		c0-20.965-5.93-40.563-16.211-57.213c-10.276,16.649-16.209,36.248-16.209,57.213C384.787,248.588,390.72,268.184,400.996,284.834z
		 M603.135,227.643c0-60.208-48.967-109.182-109.172-109.182c-25.42,0-48.826,8.715-67.391,23.329
		c18.072,24.799,27.824,54.568,27.824,85.842c0,31.271-9.752,61.067-27.805,85.868c18.564,14.613,41.961,23.345,67.371,23.345
		c60.205,0,109.172-49.043,109.172-109.213V227.643z"/>
</g>
</svg>
