<?xml version="1.0" encoding="utf-8"?>
<!-- Generator: Adobe Illustrator 15.1.0, SVG Export Plug-In . SVG Version: 6.00 Build 0)  -->
<!DOCTYPE svg PUBLIC "-//W3C//DTD SVG 1.1//EN" "http://www.w3.org/Graphics/SVG/1.1/DTD/svg11.dtd">
<svg version="1.1" id="Layer_39" xmlns="http://www.w3.org/2000/svg" xmlns:xlink="http://www.w3.org/1999/xlink" x="0px" y="0px"
	 width="800px" height="715px" viewBox="0 0 800 715" enable-background="new 0 0 800 715" xml:space="preserve">
<g>
	<path fill="#ED1C24" d="M661.816,63.825v172.106H624.67V127.275L516.754,235.187c19.844,25.508,30.609,56.701,30.609,89.559
		c0,39.084-15.238,75.869-42.881,103.479c-27.656,27.651-64.395,42.877-103.491,42.877c-39.084,0-75.872-15.227-103.525-42.877
		c-27.597-27.609-42.824-64.395-42.824-103.479c0-39.095,15.228-75.821,42.824-103.444c27.653-27.651,64.441-42.889,103.525-42.889
		c32.81,0,63.96,10.73,89.466,30.52l107.877-107.931H487.641V63.825H661.816z M510.178,324.746
		c0-60.211-48.969-109.182-109.187-109.182c-60.222,0-109.175,48.971-109.175,109.182c0,60.16,48.953,109.209,109.175,109.209
		C461.209,433.955,510.178,384.906,510.178,324.746z"/>
</g>
</svg>
