<?xml version="1.0" encoding="utf-8"?>
<!-- Generator: Adobe Illustrator 15.1.0, SVG Export Plug-In . SVG Version: 6.00 Build 0)  -->
<!DOCTYPE svg PUBLIC "-//W3C//DTD SVG 1.1//EN" "http://www.w3.org/Graphics/SVG/1.1/DTD/svg11.dtd">
<svg version="1.1" id="Layer_38" xmlns="http://www.w3.org/2000/svg" xmlns:xlink="http://www.w3.org/1999/xlink" x="0px" y="0px"
	 width="800px" height="715px" viewBox="0 0 800 715" enable-background="new 0 0 800 715" xml:space="preserve">
<g>
	<path fill="#ED1C24" d="M297.467,428.223c-27.606-27.609-42.825-64.396-42.825-103.478c0-39.097,15.219-75.833,42.825-103.445
		c27.656-27.661,64.438-42.89,103.521-42.89c39.088,0,75.828,15.229,103.492,42.89c27.652,27.612,42.877,64.349,42.877,103.445
		c0,39.081-15.225,75.868-42.877,103.478c-27.664,27.65-64.404,42.876-103.492,42.876
		C361.904,471.1,325.123,455.873,297.467,428.223z M510.168,324.746c0-60.212-48.967-109.183-109.18-109.183
		c-60.219,0-109.162,48.971-109.162,109.183c0,60.159,48.943,109.204,109.162,109.204
		C461.201,433.949,510.168,384.905,510.168,324.746z"/>
</g>
</svg>
