<?xml version="1.0" encoding="utf-8"?>
<!-- Generator: Adobe Illustrator 15.1.0, SVG Export Plug-In . SVG Version: 6.00 Build 0)  -->
<!DOCTYPE svg PUBLIC "-//W3C//DTD SVG 1.1//EN" "http://www.w3.org/Graphics/SVG/1.1/DTD/svg11.dtd">
<svg version="1.1" id="Layer_31" xmlns="http://www.w3.org/2000/svg" xmlns:xlink="http://www.w3.org/1999/xlink" x="0px" y="0px"
	 width="800px" height="715px" viewBox="0 0 800 715" enable-background="new 0 0 800 715" xml:space="preserve">
<g>
	<path fill="#ED1C24" d="M585.338,374.297c0,39.086-15.223,75.875-42.877,103.478c-27.65,27.652-64.391,42.877-103.479,42.877
		c-39.091,0-75.871-15.225-103.537-42.877c-27.6-27.604-42.826-64.392-42.826-103.478c0-8.749,0.767-17.374,2.265-25.804
		l-189.648-59.081l12.474-35.043l188.239,58.736c4.404-9.567,9.857-18.658,16.313-27.142L159.536,123.273l26.314-26.318
		l162.432,162.467c8.491-6.729,17.623-12.438,27.256-17.077l-58.56-187.869l35.008-12.518l58.801,188.714
		c9.197-1.782,18.629-2.703,28.195-2.703c39.088,0,75.828,15.235,103.479,42.888C570.115,298.473,585.338,335.205,585.338,374.297z
		 M548.158,374.297c0-60.205-48.973-109.177-109.176-109.177c-60.225,0-109.178,48.972-109.178,109.177
		c0,60.162,48.953,109.212,109.178,109.212C499.186,483.51,548.158,434.459,548.158,374.297z"/>
</g>
</svg>
