<?xml version="1.0" encoding="utf-8"?>
<!-- Generator: Adobe Illustrator 15.1.0, SVG Export Plug-In . SVG Version: 6.00 Build 0)  -->
<!DOCTYPE svg PUBLIC "-//W3C//DTD SVG 1.1//EN" "http://www.w3.org/Graphics/SVG/1.1/DTD/svg11.dtd">
<svg version="1.1" id="Layer_36" xmlns="http://www.w3.org/2000/svg" xmlns:xlink="http://www.w3.org/1999/xlink" x="0px" y="0px"
	 width="800px" height="715px" viewBox="0 0 800 715" enable-background="new 0 0 800 715" xml:space="preserve">
<g>
	<path fill="#ED1C24" d="M566.662,356.305c0,39.09-15.238,75.875-42.895,103.472c-27.652,27.662-64.381,42.889-103.467,42.889
		c-39.089,0-75.872-15.227-103.53-42.889c-27.597-27.597-42.834-64.382-42.834-103.472c0-32.853,10.75-64.032,30.568-89.54
		l-50.945-50.869l-18.454,69.045l-35.961-9.594l18.505-69.039l-69.015,18.447l-9.677-35.874l69.049-18.481l-50.508-50.562
		l26.271-26.273l50.559,50.56l18.539-69.04l35.909,9.619l-18.531,69.049l69.037-18.539l9.601,35.965l-68.957,18.446l50.854,50.888
		c25.528-19.795,56.708-30.525,89.521-30.525c39.086,0,75.814,15.234,103.467,42.88
		C551.424,280.488,566.662,317.221,566.662,356.305z M529.465,356.305c0-60.197-48.959-109.174-109.164-109.174
		c-60.227,0-109.183,48.978-109.183,109.174c0,60.17,48.956,109.21,109.183,109.21C480.506,465.516,529.465,416.475,529.465,356.305
		z"/>
</g>
</svg>
