<?xml version="1.0" encoding="utf-8"?>
<!-- Generator: Adobe Illustrator 15.1.0, SVG Export Plug-In . SVG Version: 6.00 Build 0)  -->
<!DOCTYPE svg PUBLIC "-//W3C//DTD SVG 1.1//EN" "http://www.w3.org/Graphics/SVG/1.1/DTD/svg11.dtd">
<svg version="1.1" id="Layer_37" xmlns="http://www.w3.org/2000/svg" xmlns:xlink="http://www.w3.org/1999/xlink" x="0px" y="0px"
	 width="800px" height="715px" viewBox="0 0 800 715" enable-background="new 0 0 800 715" xml:space="preserve">
<g>
	<path fill="#ED1C24" d="M547.357,415.839c0,39.086-15.219,75.87-42.871,103.469c-27.664,27.664-64.398,42.888-103.485,42.888
		c-39.088,0-75.875-15.225-103.538-42.888c-27.597-27.6-42.821-64.383-42.821-103.469c0-39.097,15.225-75.822,42.821-103.438
		c23.028-23.02,52.372-37.428,84.104-41.614c0.019-55.34,25.25-78.402,45.005-96.367c15.654-14.281,26.035-23.74,26.035-47.52
		c0-27.316-19.754-46.101-48.41-46.101c-17.987,0-31.711,4.823-41.278,14.587c-14.668,15.041-17.181,39.99-17.109,50.508
		l-37.184,0.027c-0.038-23.614,7.037-55.398,27.803-76.553c13.237-13.514,35-25.749,67.768-25.749
		c49.07,0,85.557,35.536,85.557,83.28c0,40.182-20.762,59.157-38.08,74.938c-18.107,16.562-32.744,29.909-32.852,68.739
		c32.338,3.917,62.258,18.417,85.664,41.823C532.139,340.017,547.357,376.743,547.357,415.839z M510.186,415.839
		c0-60.205-48.98-109.175-109.184-109.175c-60.231,0-109.176,48.97-109.176,109.175c0,60.168,48.944,109.209,109.176,109.209
		C461.205,525.049,510.186,476.008,510.186,415.839z"/>
</g>
</svg>
