<?xml version="1.0" encoding="utf-8"?>
<!-- Generator: Adobe Illustrator 15.1.0, SVG Export Plug-In . SVG Version: 6.00 Build 0)  -->
<!DOCTYPE svg PUBLIC "-//W3C//DTD SVG 1.1//EN" "http://www.w3.org/Graphics/SVG/1.1/DTD/svg11.dtd">
<svg version="1.1" id="Botoes" xmlns="http://www.w3.org/2000/svg" xmlns:xlink="http://www.w3.org/1999/xlink" x="0px" y="0px"
	 width="800px" height="160px" viewBox="0 0 800 160" enable-background="new 0 0 800 160" xml:space="preserve">
<g>
	<path fill="#FFFFFF" d="M165.955,84.888h-14.508v29.481h-9.765v-69.75h25.203c7.936,0,13.748,1.613,17.438,4.836
		c3.688,3.225,5.534,8.37,5.534,15.438c0,5.519-1.132,9.843-3.395,12.973c-2.264,3.132-5.845,5.194-10.742,6.185l15.717,30.318
		h-10.881L165.955,84.888z M151.447,77.448h15.438c4.65,0,8.075-1.038,10.276-3.115c2.2-2.077,3.302-5.223,3.302-9.439
		c0-4.093-1.102-7.13-3.302-9.114c-2.201-1.983-5.626-2.977-10.276-2.977h-15.438V77.448z"/>
	<path fill="#FFFFFF" d="M248.259,105.813v8.556h-44.175v-69.75h42.501v8.556h-32.829v21.297h30.039v8.185h-30.039v23.157H248.259z"
		/>
	<path fill="#FFFFFF" d="M298.572,46.852c3.657,1.487,6.338,3.859,8.044,7.114c1.705,3.255,2.558,7.579,2.558,12.974
		c0,5.456-0.853,9.857-2.558,13.206c-1.706,3.348-4.403,5.798-8.091,7.347c-3.69,1.551-8.542,2.325-14.555,2.325h-12.927v24.552
		h-9.858v-69.75h22.785C290.047,44.619,294.913,45.363,298.572,46.852z M295.968,78.146c2.293-2.263,3.441-6.029,3.441-11.3
		c0-3.408-0.481-6.152-1.441-8.23c-0.962-2.076-2.558-3.595-4.79-4.557c-2.232-0.961-5.301-1.441-9.207-1.441h-12.927V81.54h12.927
		C289.675,81.54,293.674,80.409,295.968,78.146z"/>
	<path fill="#FFFFFF" d="M346.374,84.888h-14.508v29.481h-9.765v-69.75h25.203c7.936,0,13.748,1.613,17.438,4.836
		c3.688,3.225,5.534,8.37,5.534,15.438c0,5.519-1.132,9.843-3.395,12.973c-2.264,3.132-5.845,5.194-10.742,6.185l15.717,30.318
		h-10.881L346.374,84.888z M331.866,77.448h15.438c4.65,0,8.075-1.038,10.276-3.115c2.2-2.077,3.302-5.223,3.302-9.439
		c0-4.093-1.102-7.13-3.302-9.114c-2.201-1.983-5.626-2.977-10.276-2.977h-15.438V77.448z"/>
	<path fill="#FFFFFF" d="M428.679,105.813v8.556h-44.176v-69.75h42.501v8.556h-32.829v21.297h30.039v8.185h-30.039v23.157H428.679z"
		/>
	<path fill="#FFFFFF" d="M441.605,98.931c3.348,2.357,6.742,4.278,10.184,5.767c3.44,1.488,6.617,2.231,9.532,2.231
		c3.224,0,5.982-1.022,8.277-3.068c2.293-2.046,3.441-4.711,3.441-7.998c0-2.355-0.651-4.371-1.953-6.045
		c-1.303-1.674-2.93-3.084-4.883-4.231c-1.953-1.146-4.573-2.465-7.858-3.953c-3.969-1.859-7.161-3.533-9.579-5.021
		s-4.48-3.472-6.185-5.952c-1.706-2.479-2.558-5.518-2.558-9.114c0-3.781,0.944-7.052,2.836-9.812
		c1.891-2.758,4.433-4.866,7.627-6.324c3.192-1.456,6.742-2.185,10.648-2.185c3.285,0,6.324,0.496,9.114,1.487
		c2.79,0.993,5.641,2.357,8.556,4.092l-2.511,7.626c-5.767-3.036-10.881-4.557-15.346-4.557c-3.348,0-6.061,0.822-8.138,2.465
		c-2.078,1.644-3.115,3.892-3.115,6.742c0,2.046,0.589,3.799,1.767,5.255c1.178,1.457,2.651,2.696,4.418,3.72
		s4.199,2.248,7.301,3.674c4.153,1.922,7.501,3.689,10.044,5.301c2.542,1.613,4.727,3.798,6.557,6.557
		c1.828,2.759,2.743,6.216,2.743,10.369c0,4.092-0.915,7.626-2.743,10.603c-1.83,2.976-4.324,5.239-7.486,6.788
		c-3.162,1.55-6.666,2.325-10.51,2.325c-4.712,0-9.114-0.962-13.206-2.883s-7.564-4.092-10.416-6.51L441.605,98.931z"/>
	<path fill="#FFFFFF" d="M540.092,105.813v8.556h-44.175v-69.75h42.501v8.556h-32.829v21.297h30.039v8.185h-30.039v23.157H540.092z"
		/>
	<path fill="#FFFFFF" d="M602.401,44.619v69.75h-9.393l-30.411-53.475l-0.186,53.475h-9.394v-69.75h9.579l30.411,53.568V44.619
		H602.401z"/>
	<path fill="#FFFFFF" d="M663.781,52.896h-19.53v61.473h-9.857V52.896h-19.53v-8.277h48.918V52.896z"/>
</g>
</svg>
