<?xml version="1.0" encoding="utf-8"?>
<!-- Generator: Adobe Illustrator 15.1.0, SVG Export Plug-In . SVG Version: 6.00 Build 0)  -->
<!DOCTYPE svg PUBLIC "-//W3C//DTD SVG 1.1//EN" "http://www.w3.org/Graphics/SVG/1.1/DTD/svg11.dtd">
<svg version="1.1" id="Gif_2" xmlns="http://www.w3.org/2000/svg" xmlns:xlink="http://www.w3.org/1999/xlink" x="0px" y="0px"
	 width="800px" height="715px" viewBox="0 0 800 715" enable-background="new 0 0 800 715" xml:space="preserve">
<g>
	<path fill="#ED1C24" d="M659.121,39.227v172.132H621.99v-108.66L515.534,209.136c20.59,25.781,31.777,57.544,31.777,91.043
		c0,39.088-15.228,75.871-42.887,103.475c-23.229,23.234-52.866,37.689-84.935,41.722v73.475h84.747V556H419.49v84.715h-37.179V556
		h-84.693v-37.15h84.693v-73.486c-32.043-4.051-61.676-18.506-84.889-41.71c-27.604-27.604-42.836-64.387-42.836-103.475
		c0-32.932,10.812-64.188,30.716-89.734l-21.544-21.55l-38.311,38.33l-26.293-26.287l38.333-38.33l-59.923-59.908v108.66h-37.185
		V39.263h174.24v37.148h-110.69l59.846,59.902l38.329-38.35l26.278,26.282l-38.347,38.361l21.597,21.615
		c25.487-19.701,56.594-30.374,89.322-30.374c32.156,0,62.722,10.313,87.953,29.37l106.74-106.808H484.94V39.227H659.121z
		 M510.131,300.179c0-60.208-48.969-109.186-109.175-109.186c-60.219,0-109.191,48.978-109.191,109.186
		c0,60.163,48.973,109.207,109.191,109.207C461.162,409.386,510.131,360.342,510.131,300.179z"/>
</g>
</svg>
