<?xml version="1.0" encoding="utf-8"?>
<!-- Generator: Adobe Illustrator 15.1.0, SVG Export Plug-In . SVG Version: 6.00 Build 0)  -->
<!DOCTYPE svg PUBLIC "-//W3C//DTD SVG 1.1//EN" "http://www.w3.org/Graphics/SVG/1.1/DTD/svg11.dtd">
<svg version="1.1" id="Layer_35" xmlns="http://www.w3.org/2000/svg" xmlns:xlink="http://www.w3.org/1999/xlink" x="0px" y="0px"
	 width="800px" height="715px" viewBox="0 0 800 715" enable-background="new 0 0 800 715" xml:space="preserve">
<g>
	<path fill="#ED1C24" d="M419.592,409.624v73.484h84.744v37.15h-84.744v84.74H382.41v-84.74h-84.697v-37.15h84.697v-73.484
		c-32.06-4.043-61.723-18.504-84.944-41.713c-27.6-27.611-42.828-64.39-42.828-103.476c0-39.097,15.229-75.825,42.828-103.448
		c27.658-27.65,64.444-42.88,103.53-42.88c39.09,0,75.826,15.229,103.48,42.88c27.652,27.623,42.885,64.352,42.885,103.448
		c0,39.086-15.232,75.864-42.885,103.476C481.258,391.12,451.639,405.581,419.592,409.624z M400.996,373.635
		c60.209,0,109.182-49.044,109.182-109.2c0-60.204-48.973-109.187-109.182-109.187c-60.218,0-109.171,48.982-109.171,109.187
		C291.825,324.591,340.778,373.635,400.996,373.635z"/>
</g>
</svg>
